<svg xmlns="http://www.w3.org/2000/svg" width="301.428" height="65.666" viewBox="0 0 301.428 65.666"><defs><style>.a{fill:#156879;}</style></defs><g transform="translate(16.697 -126.112)"><g transform="translate(67.779 126.112)"><path class="a" d="M210.622,317.566h15.816q2.4,0,3.192,1.172a5.941,5.941,0,0,1,.791,3.338,7.25,7.25,0,0,1-.527,3.252,2.929,2.929,0,0,1-2.4,1.551.784.784,0,0,0-.7.879q.176,1.174,1.464,7.615t1.465,8.261a13.076,13.076,0,0,1-1.406,7.908q-.7,1.58-1.874,1.434t-1.172-1.727l-.351-23.491a1.092,1.092,0,0,0-.117-.586.434.434,0,0,0-.264-.205,2.409,2.409,0,0,0-.439-.028H206.873a3.637,3.637,0,0,1-2.987-1.495,7.183,7.183,0,0,1-1.464-2.842,8.637,8.637,0,0,1,.059-3.308,15.224,15.224,0,0,1,1-3.368q1-1.873,1.874-.176a3.31,3.31,0,0,0,.908,1.141,2.706,2.706,0,0,0,1.23.558,11.045,11.045,0,0,0,1.494.146A15.322,15.322,0,0,0,210.622,317.566Zm-7.849,33.564q.176-2.4.264-6.415t.322-6a9.715,9.715,0,0,1,2.343-5.035q1.172-1.172,1.787-.646a1.422,1.422,0,0,1,.322,1.58,22.085,22.085,0,0,0,0,4.686,37.114,37.114,0,0,1-.352,6.181,20.49,20.49,0,0,1-1.874,5.711q-1,1.875-1.992,1.817C202.929,352.965,202.656,352.342,202.773,351.13Z" transform="translate(-202.288 -311.802)"/><path class="a" d="M8.378,6.911a1.988,1.988,0,0,1,.586,1.464A2.086,2.086,0,0,1,8.319,9.9a2.154,2.154,0,0,1-1.583.645A2.15,2.15,0,0,1,5.156,9.9a2.082,2.082,0,0,1-.644-1.523A2.334,2.334,0,0,1,5.1,6.852a2.891,2.891,0,0,0,.586-1.992A1.451,1.451,0,0,0,5.156,3.6a2.953,2.953,0,0,0-1.7-.38H.879a.844.844,0,0,1-.614-.265A.837.837,0,0,1,0,2.343V.879A.84.84,0,0,1,.265.262.837.837,0,0,1,.879,0H12.594a.846.846,0,0,1,.616.262.847.847,0,0,1,.262.616V2.343a.843.843,0,0,1-.262.614.853.853,0,0,1-.616.265H10.017a2.935,2.935,0,0,0-1.728.38,1.488,1.488,0,0,0-.5,1.259A3.123,3.123,0,0,0,8.378,6.911Z" transform="matrix(0.819, -0.574, 0.574, 0.819, 38.512, 57.029)"/><path class="a" d="M236.482,329.037q.35-1.7-.879-1.932a6.416,6.416,0,0,1-3.048-1.113,5.283,5.283,0,0,1-1.815-2.343,9.984,9.984,0,0,1-.586-3.046,6.166,6.166,0,0,1,.7-3.574,8.618,8.618,0,0,1,.937-1.58.858.858,0,0,1,.966-.233,3.9,3.9,0,0,1,1.551,1.228q.763.879,3.282,1.056a6.392,6.392,0,0,1,4.979,2.166,7.308,7.308,0,0,1,1.231,5.216,4.646,4.646,0,0,1-.528,2.2.8.8,0,0,1-.936.38,5.234,5.234,0,0,0-2.579-.177q-1.23.177-1.348,1.876a9.418,9.418,0,0,0,.792,4.247,18.656,18.656,0,0,0,1.551,3.075,21.292,21.292,0,0,1,1.757,10.369l5.272-3.867a8.844,8.844,0,0,0,.852-.849,3.439,3.439,0,0,0,.613-1.434,47.621,47.621,0,0,1,2.11-6.094q1.933-4.509,2.226-5.447a1.014,1.014,0,0,0-.879-1.464,8.245,8.245,0,0,1-3.75-1.992,6.651,6.651,0,0,1-1.638-2.576,10.366,10.366,0,0,1-.353-3.106,6.694,6.694,0,0,1,1.054-3.515,4.208,4.208,0,0,1,1.056-1.318.863.863,0,0,1,.906-.116,3.026,3.026,0,0,1,1.025,1.081,6.333,6.333,0,0,0,3.222,1.757q3.748.879,4.453,3.984.763,3.81-1.817,5.565a2.823,2.823,0,0,0-1.4,1.7,78.053,78.053,0,0,0-2.7,9.958,99,99,0,0,0-1.288,11.364,3.377,3.377,0,0,1-1.289,2.343L233.14,365.532a.625.625,0,0,1-.7.146c-.274-.1-.41-.342-.41-.732l.586-9.256a2.828,2.828,0,0,1,1.231-2.343l5.8-4.216a2.364,2.364,0,0,0,1.054-2.283,11.208,11.208,0,0,0-.732-3.075,20.4,20.4,0,0,0-1.377-2.754,15.224,15.224,0,0,1-1.113-2.138A17.21,17.21,0,0,1,236.482,329.037Z" transform="translate(-197.51 -311.794)"/><path class="a" d="M269.227,322.014a7.458,7.458,0,0,1-1.464,6.21,2.315,2.315,0,0,0-.528,1.641q1.348,8.14,1.934,13.706a13.8,13.8,0,0,1-1.406,7.968q-.763,1.58-1.933,1.4t-1.113-1.757l.644-21.439a1.667,1.667,0,0,0-.293-1.143,2.08,2.08,0,0,0-.937-.732,12.333,12.333,0,0,1-3.456-1.288,5.485,5.485,0,0,1-2.167-2.929,10.652,10.652,0,0,1-.353-3.632,7.223,7.223,0,0,1,.938-3.515q.879-1.464,1.494-1.552t1.435,1.2a6.054,6.054,0,0,0,3.162,1.757,5.191,5.191,0,0,1,4.043,4.1Zm-8.377,10.9a2.156,2.156,0,0,1,1.582.644,2.121,2.121,0,0,1,.644,1.552,2.214,2.214,0,0,1-.644,1.582,2.194,2.194,0,0,1-3.163,0,2.171,2.171,0,0,1-.644-1.551,2.2,2.2,0,0,1,2.226-2.227Z" transform="translate(-192.708 -311.8)"/><path class="a" d="M294.9,332.56a5.559,5.559,0,0,0-1.582-3.954,5.324,5.324,0,0,0-4.042-1.667H276.213a3.582,3.582,0,0,1-2.929-1.495,6.485,6.485,0,0,1-1.406-2.842,10.355,10.355,0,0,1,1.053-6.677q.936-1.873,1.817-.176a3.152,3.152,0,0,0,.937,1.141,2.9,2.9,0,0,0,1.259.558,10.916,10.916,0,0,0,1.464.146,14.876,14.876,0,0,0,1.611-.028h7.79q7.441,0,8.552,9.372.293,2.225.615,8.9t.439,7.848a18.3,18.3,0,0,1-.761,7.852,2.326,2.326,0,0,1-1.025,1.346.857.857,0,0,1-1.084-.2,1.928,1.928,0,0,1-.409-1.494Z" transform="translate(-190.38 -311.802)"/><path class="a" d="M312.152,332.281a2.155,2.155,0,0,1,1.582.644,2.117,2.117,0,0,1,.645,1.552,2.21,2.21,0,0,1-.645,1.582,2.192,2.192,0,0,1-3.162,0,2.171,2.171,0,0,1-.645-1.551,2.2,2.2,0,0,1,2.226-2.227Z" transform="translate(-183.822 -308.827)"/><path class="a" d="M310.571,350.074a2.268,2.268,0,0,1,3.162,0,2.087,2.087,0,0,1,.645,1.524,2.227,2.227,0,1,1-4.453,0A2.082,2.082,0,0,1,310.571,350.074Zm0,6.736a2.227,2.227,0,0,1,3.808,1.583,2.083,2.083,0,0,1-.645,1.523,2.259,2.259,0,0,1-3.162,0,2.078,2.078,0,0,1-.645-1.523A2.149,2.149,0,0,1,310.571,356.81Z" transform="translate(-183.822 -305.885)"/><path class="a" d="M303.153,326.469a3.856,3.856,0,0,1-1.816-1.671,6.735,6.735,0,0,1-.82-2.2,9.292,9.292,0,0,1,.029-3.368,11.774,11.774,0,0,1,1.025-3.308q.935-1.873,1.816-.176a3.31,3.31,0,0,0,.908,1.141,2.7,2.7,0,0,0,1.23.558,11.047,11.047,0,0,0,1.493.146,16.633,16.633,0,0,0,1.7-.028h8.728A7.345,7.345,0,0,1,323.3,320,12.93,12.93,0,0,1,326,326.939q.232,2.225.586,8.9t.469,7.848a18.316,18.316,0,0,1-.762,7.852q-.647,1.64-1.64,1.4t-.879-1.757l.233-6.97q.234-6.913.528-11.659a5.569,5.569,0,0,0-1.582-3.954,5.326,5.326,0,0,0-4.042-1.667H305.32a13.93,13.93,0,0,0-1.289,2.518,10.27,10.27,0,0,0,1.054,9.2q3.105,5.33,2.109,9.606-1.23,4.451-4.277,4.453H297.06a1.14,1.14,0,0,1-.965-.353.857.857,0,0,1,.029-.937l2.812-6.855a1.72,1.72,0,0,1,1.816-1.228,1.177,1.177,0,0,0,.937-.411c.117-.2.029-.623-.264-1.29a22.71,22.71,0,0,1-.967-2.869,10.666,10.666,0,0,1-.351-3.867,17.2,17.2,0,0,1,1.113-4.919A10.822,10.822,0,0,1,303.153,326.469Z" transform="translate(-186.217 -311.802)"/><path class="a" d="M279.863,281.487h11.02a5.668,5.668,0,0,1,5.168,2.61,11.934,11.934,0,0,1,1.648,6.477v23.572q0,1.419-1.7,1.42H273.844a1.306,1.306,0,0,1-1.478-1.478l.114-12.154a18.821,18.821,0,0,1,3.636-11.36,3.734,3.734,0,0,1-1.846-.456,3.344,3.344,0,0,1-1.278-1.194,9.079,9.079,0,0,1-.71-1.362,6.515,6.515,0,0,1-.37-1.194A10.118,10.118,0,0,1,272,283.1a12.787,12.787,0,0,1,.936-3.208q.964-1.816,1.818-.17a3.227,3.227,0,0,0,.88,1.106,2.618,2.618,0,0,0,1.194.541,10.67,10.67,0,0,0,1.447.142A14.9,14.9,0,0,0,279.863,281.487Zm-1.7,9.088A17.277,17.277,0,0,0,276,298.7v6.363q0,1.419,1.477,1.42h16.814q1.588,0,1.589-1.649v-8.8a5.4,5.4,0,0,0-1.534-3.834,5.163,5.163,0,0,0-3.919-1.616Z" transform="translate(-112.339 -274.671)"/><path class="a" d="M309.437,286.37a7.068,7.068,0,0,1-1.42,5.964,2.349,2.349,0,0,0-.511,1.592q1.307,7.951,1.876,13.348a13.253,13.253,0,0,1-1.364,7.668q-.738,1.532-1.873,1.39t-1.079-1.674l.625-20.846a1.533,1.533,0,0,0-1.193-1.761,10.748,10.748,0,0,1-3.351-1.306,5.319,5.319,0,0,1-2.1-2.84,10.1,10.1,0,0,1-.342-3.522,7.259,7.259,0,0,1,.91-3.408,4.675,4.675,0,0,1,1.021-1.248.811.811,0,0,1,.882-.142,2.62,2.62,0,0,1,.937,1.049,5.409,5.409,0,0,0,3.066,1.7A4.826,4.826,0,0,1,309.437,286.37ZM304.1,275.8a2.158,2.158,0,0,1,3.692,1.535,2.017,2.017,0,0,1-.625,1.477,2.192,2.192,0,0,1-3.067,0,2.017,2.017,0,0,1-.625-1.477A2.091,2.091,0,0,1,304.1,275.8Z" transform="translate(-108.686 -275.182)"/><path class="a" d="M323.512,291.768a15.059,15.059,0,0,1-2.67,5.4q-1.191,1.65-1.818,1.136-.852-.622.057-2.272c.378-.718.634-1.211.767-1.475a3.165,3.165,0,0,0,.256-1.136,2.207,2.207,0,0,0-.4-1.42,2.177,2.177,0,0,0-.852-.768,7.5,7.5,0,0,0-1.335-.483,9.987,9.987,0,0,1-1.335-.453,6.64,6.64,0,0,1-3.52-3.58,7.78,7.78,0,0,1-.456-4.034,5.553,5.553,0,0,1,1.079-2.952q.908-.908,1.364-.794c.3.075.643.434,1.021,1.078a4.636,4.636,0,0,0,3.067,1.931,5.592,5.592,0,0,1,4.033,2.9A9.758,9.758,0,0,1,323.512,291.768Z" transform="translate(-106.857 -274.673)"/></g><g transform="translate(-16.697 147.259)"><path class="a" d="M126.991,154.41a.711.711,0,0,1-.2-.515.727.727,0,0,1,.2-.528.675.675,0,0,1,.969,0,.727.727,0,0,1,.2.528.711.711,0,0,1-.2.515.675.675,0,0,1-.969,0Z" transform="translate(-108.808 -147.573)"/><path class="a" d="M132.936,150.035a1.616,1.616,0,0,0-.348-1.161,1.33,1.33,0,0,0-.993-.354h-2.2v-.758h2.41q2.087,0,2.087,2.31v4.583h-.956Z" transform="translate(-108.716 -147.762)"/><path class="a" d="M135.5,153.9h2.037a2.172,2.172,0,0,0,1.546-.54,2.352,2.352,0,0,0,.578-1.782v-.758a2.845,2.845,0,0,0-.435-1.714,1.536,1.536,0,0,0-1.317-.584h-1.3l-.323,1.379a3,3,0,0,0-.075.621.9.9,0,0,0,.23.658,1.413,1.413,0,0,0,.764.335l-.2.658a1.984,1.984,0,0,1-1.261-.491,1.547,1.547,0,0,1-.391-1.124,3.86,3.86,0,0,1,.074-.733l.472-2.062h2.174a2.3,2.3,0,0,1,1.869.795,3.523,3.523,0,0,1,.677,2.285v.7a3.093,3.093,0,0,1-.807,2.366,2.975,2.975,0,0,1-2.112.751h-2.2Z" transform="translate(-108.508 -147.762)"/><path class="a" d="M142.013,149.215l-.161-1.453h.944l.174,1.453v5.44h-.956Z" transform="translate(-108.279 -147.762)"/><path class="a" d="M149.5,153.463a6.241,6.241,0,0,1-4.279,1.317l-.869-7.018h.919l.422,3.515a3.2,3.2,0,0,0,.869-.64,2.078,2.078,0,0,0,.453-.838,5.364,5.364,0,0,0,.168-1.279l.012-.733h.919l-.012.72a4.072,4.072,0,0,1-.547,2.167,3.9,3.9,0,0,1-1.776,1.348l.236,1.913a4.214,4.214,0,0,0,2.956-1.186,4.49,4.49,0,0,0,.969-3.174l-.012-1.813h.956l.012,1.776A5.034,5.034,0,0,1,149.5,153.463Z" transform="translate(-108.192 -147.762)"/><path class="a" d="M153.984,154.146A1.385,1.385,0,0,0,155,153.73a1.718,1.718,0,0,0,.279-1.074v-4.894h3.043q2.087,0,2.086,2.31v4.583h-.955v-4.621a1.621,1.621,0,0,0-.348-1.161,1.331,1.331,0,0,0-.994-.354h-1.876v4.037a2.305,2.305,0,0,1-.509,1.633,2.483,2.483,0,0,1-1.64.64Z" transform="translate(-107.854 -147.762)"/><path class="a" d="M166.906,147.762a27.462,27.462,0,0,1-.193,3.813,3.527,3.527,0,0,1-.907,1.987,4.3,4.3,0,0,1-2.292,1.043l-2.087.41-.137-.77,2.2-.422-1.6-6.061h.956l1.515,5.813a2.044,2.044,0,0,0,1.105-.963,4.34,4.34,0,0,0,.41-1.664q.075-1.012.087-3.186Z" transform="translate(-107.598 -147.762)"/><path class="a" d="M168.294,149.215l-.163-1.453h.944l.174,1.453v1.851l-.011.783-.944.2Z" transform="translate(-107.358 -147.762)"/><path class="a" d="M172.749,153.9a3.113,3.113,0,0,0,1.105-.311,1.817,1.817,0,0,0,.745-.82,4.358,4.358,0,0,0,.373-1.64l.211-2.608h-4.472v-.758h5.49l-.037.683-.2,2.5a4.33,4.33,0,0,1-.913,2.733,2.952,2.952,0,0,1-2.2.981Zm-2.012-2.77.137-.845h.82v6.856h-.956Z" transform="translate(-107.267 -147.762)"/><path class="a" d="M176.892,154.146a1.385,1.385,0,0,0,1.012-.416,1.718,1.718,0,0,0,.279-1.074v-4.894h3.043q2.087,0,2.087,2.31v4.583h-.956v-4.621a1.616,1.616,0,0,0-.348-1.161,1.33,1.33,0,0,0-.994-.354H179.14v4.037a2.305,2.305,0,0,1-.509,1.633,2.481,2.481,0,0,1-1.64.64Z" transform="translate(-107.051 -147.762)"/><path class="a" d="M112.957,162.035a1.616,1.616,0,0,0-.348-1.161,1.33,1.33,0,0,0-.994-.354h-2.2v-.758h2.41q2.087,0,2.087,2.31v4.583h-.956Z" transform="translate(-109.417 -147.341)"/><path class="a" d="M120.337,165.463a6.245,6.245,0,0,1-4.279,1.317l-.87-7.018h.92l.421,3.515a3.19,3.19,0,0,0,.87-.64,2.1,2.1,0,0,0,.453-.838,5.417,5.417,0,0,0,.168-1.279l.012-.733h.919l-.013.72a4.072,4.072,0,0,1-.545,2.167,3.9,3.9,0,0,1-1.777,1.348l.236,1.913a4.212,4.212,0,0,0,2.956-1.186,4.48,4.48,0,0,0,.969-3.174l-.011-1.813h.955l.013,1.776A5.037,5.037,0,0,1,120.337,165.463Z" transform="translate(-109.215 -147.341)"/><path class="a" d="M123.078,165.9h2.037a2.172,2.172,0,0,0,1.546-.54,2.352,2.352,0,0,0,.578-1.782v-.758a2.845,2.845,0,0,0-.435-1.714,1.536,1.536,0,0,0-1.317-.584h-1.3l-.323,1.379a3,3,0,0,0-.074.621.9.9,0,0,0,.23.658,1.409,1.409,0,0,0,.764.335l-.2.658a1.981,1.981,0,0,1-1.26-.491,1.548,1.548,0,0,1-.391-1.124,3.942,3.942,0,0,1,.073-.733l.473-2.062h2.174a2.3,2.3,0,0,1,1.869.795,3.522,3.522,0,0,1,.677,2.285v.7a3.1,3.1,0,0,1-.807,2.366,2.977,2.977,0,0,1-2.112.751h-2.2Z" transform="translate(-108.943 -147.341)"/><path class="a" d="M134.116,166.656l-2.82-4.236-1.328,4.236h-.92l1.354-4.273.335-.82-1.143-1.8h.981l1.105,1.739,1.168,1.727.287-1.031.744-2.434h.932l-1.4,4.31,1.751,2.584Z" transform="translate(-108.729 -147.341)"/><path class="a" d="M141.109,165.463a6.245,6.245,0,0,1-4.279,1.317l-.87-7.018h.92l.421,3.515a3.206,3.206,0,0,0,.871-.64,2.1,2.1,0,0,0,.453-.838,5.415,5.415,0,0,0,.168-1.279l.011-.733h.92l-.013.72a4.072,4.072,0,0,1-.545,2.167,3.9,3.9,0,0,1-1.777,1.348l.236,1.913a4.214,4.214,0,0,0,2.956-1.186,4.48,4.48,0,0,0,.969-3.174l-.011-1.813h.955l.013,1.776A5.041,5.041,0,0,1,141.109,165.463Z" transform="translate(-108.486 -147.341)"/><path class="a" d="M151.359,165.9v.758h-5.415V165.9h3.577v-3.863a1.616,1.616,0,0,0-.348-1.161,1.33,1.33,0,0,0-.994-.354h-2.236v-.758h2.447q2.087,0,2.087,2.31V165.9Z" transform="translate(-108.136 -147.341)"/><path class="a" d="M152.585,161.215l-.161-1.453h.944l.174,1.453v5.44h-.956Z" transform="translate(-107.909 -147.341)"/><path class="a" d="M158.364,162.035a1.616,1.616,0,0,0-.348-1.161,1.331,1.331,0,0,0-.994-.354h-2.2v-.758h2.41q2.087,0,2.087,2.31v4.583h-.956Z" transform="translate(-107.825 -147.341)"/><path class="a" d="M162.717,165.9a3.113,3.113,0,0,0,1.105-.311,1.817,1.817,0,0,0,.745-.82,4.359,4.359,0,0,0,.373-1.64l.211-2.608H160.68v-.758h5.49l-.037.683-.2,2.5a4.33,4.33,0,0,1-.913,2.733,2.952,2.952,0,0,1-2.2.981Zm-2.012-2.77.137-.845h.82v6.856H160.7Z" transform="translate(-107.619 -147.341)"/><path class="a" d="M169.937,161.215l-.161-1.453h.944l.174,1.453v1.851l-.012.783-.944.2Z" transform="translate(-107.3 -147.341)"/><path class="a" d="M172.224,165.9h1.64a1.9,1.9,0,0,0,1.515-.584,2.538,2.538,0,0,0,.509-1.714v-.783a2.538,2.538,0,0,0-.509-1.714,1.9,1.9,0,0,0-1.515-.584h-1.64v-.758h1.826a2.66,2.66,0,0,1,2.068.795,3.291,3.291,0,0,1,.727,2.3v.708a3.291,3.291,0,0,1-.727,2.3,2.66,2.66,0,0,1-2.068.795h-1.826Z" transform="translate(-107.214 -147.341)"/><path class="a" d="M178.056,163.3l.137-.832h.82v4.186h-.956Zm4.26-1.267a1.616,1.616,0,0,0-.348-1.161,1.331,1.331,0,0,0-.994-.354h-2.906v-.758h3.118q2.087,0,2.087,2.31v4.583h-.956Z" transform="translate(-107.01 -147.341)"/></g></g></svg>