<svg xmlns="http://www.w3.org/2000/svg" width="45.76" height="56" viewBox="0 0 45.76 56"><defs><style>.a{fill:#f3e8d6;}.b{fill:#e5d8c6;}.c{fill:#c9b9a7;}.d{fill:#82c0cc;}.e{fill:#489fb5;}</style></defs><path class="a" d="M92.562,260.755l-2.415-21.97a2.1,2.1,0,0,0-2.7-1.623l-10.8,2.789-13.5-3.431L50.822,239.6a1.931,1.931,0,0,0-1.526,1.627l-2.48,22.652a2.056,2.056,0,0,0,2.758,1.914L62.217,262.2,77.6,266.651l13.532-3.988A1.865,1.865,0,0,0,92.562,260.755Z" transform="translate(-46.809 -210.651)"/><g transform="translate(0 25.869)"><path class="b" d="M62.218,262.2l-12.642,3.593a2.056,2.056,0,0,1-2.758-1.914l2.48-22.652a1.931,1.931,0,0,1,1.526-1.627l12.317-3.08Z" transform="translate(-46.81 -236.519)"/><path class="b" d="M334.07,267.271l-13.532,3.988-.954-26.7,10.8-2.789a2.1,2.1,0,0,1,2.7,1.623l2.415,21.97A1.865,1.865,0,0,1,334.07,267.271Z" transform="translate(-289.749 -241.129)"/><path class="b" d="M85.243,451.83l5.9-1.738.013,0c.053-.016.1-.033.155-.052.023-.009.045-.019.068-.029s.061-.025.091-.039.053-.027.08-.041l.07-.037c.03-.017.058-.036.087-.054l.054-.034c.032-.022.062-.045.092-.068l.039-.029c.033-.026.064-.054.094-.082l.027-.023c.033-.031.064-.063.095-.1l.016-.017c.032-.036.063-.072.092-.11l.008-.01q.046-.06.086-.123l0,0a1.665,1.665,0,0,0,.265-1.021h0c0-.012,0-.024,0-.037l-.134-1.217a2.007,2.007,0,0,1-1.3,1.1l-13.532,3.988-15.382-4.451L49.584,451.2a2.2,2.2,0,0,1-2.625-1.1l-.133,1.212c0,.015,0,.029,0,.044a1.7,1.7,0,0,0,.541,1.35l0,0q.041.039.084.077l0,0c.028.024.057.047.086.07l.008.006c.029.022.058.043.087.063l.012.008c.029.019.058.038.087.056l.017.01.087.049.022.011.086.042.028.012.084.036.033.012.082.03.038.012.08.024.044.011.077.019.05.01.074.014.055.008.071.01.059.005.069.006.062,0,.067,0,.066,0,.065,0,.07-.006.062-.005.073-.01.06-.008.078-.015.056-.011c.037-.008.074-.018.112-.028l.022-.006,12.642-3.593,15.382,4.451Z" transform="translate(-46.819 -423.95)"/></g><g transform="translate(0.001 26.436)"><path class="c" d="M62.227,452.8l-12.642,3.593a2.2,2.2,0,0,1-2.625-1.1l-.133,1.212c0,.008,0,.015,0,.023s0,.014,0,.021a1.652,1.652,0,0,0,0,.233c0,.012,0,.024,0,.036a1.629,1.629,0,0,0,.026.174c0,.01,0,.021.006.031.006.028.014.057.022.084l.012.042c.009.027.017.055.027.081l.014.035q.031.077.068.151l.017.033c.013.024.027.048.041.071l.026.043c.014.022.029.045.045.067l.031.042q.041.054.086.106l.039.045.051.053.046.045.053.048.057.047.068.053c.027.02.055.04.083.059l0,0,.05.032.07.043.053.03.087.044.038.019.008,0q.058.027.118.05l.018.007.032.012.094.032.051.016q.054.016.11.029l.033.008c.053.012.107.021.161.03l.019,0,.026,0c.051.007.1.012.154.016l.019,0,.065,0,.065,0h.066l.065,0h.006l.065-.005.061,0,.08-.011.039-.005.115-.022h0l.068-.015.089-.023.007,0,7.047-2,5.6-1.59.072-2Z" transform="translate(-46.821 -429.71)"/><path class="c" d="M340.232,243.19a1.659,1.659,0,0,0-.053-.184l-.005-.015a1.716,1.716,0,0,0-.073-.17l-.009-.018a1.741,1.741,0,0,0-.091-.158l-.012-.019c-.033-.05-.069-.1-.107-.146l-.014-.018q-.058-.07-.124-.135l-.016-.016q-.067-.064-.14-.123l-.016-.012q-.075-.059-.155-.111l-.014-.009q-.083-.053-.171-.1l-.009,0q-.091-.047-.188-.086h0a2.368,2.368,0,0,0-1.319-.124c-.051.01-.1.02-.152.033l-3.1.8a1.9,1.9,0,0,1,1.188,1.532l2.327,21.036a1.3,1.3,0,0,1-1,1.334l-9.332,2.75.063,1.774h0l.008.262,8.651-2.55,4.881-1.439c.054-.016.107-.034.159-.054l.05-.02c.034-.014.069-.028.1-.043l.056-.028.089-.046.056-.032.052-.032.03-.019.053-.035.054-.04.023-.017.047-.037c.021-.017.041-.036.062-.054l.016-.014.037-.033c.044-.042.085-.086.124-.131a1.868,1.868,0,0,0,.127-.165,1.8,1.8,0,0,0,.114-.187l.018-.037c.015-.031.029-.062.043-.094l.016-.038v0a1.666,1.666,0,0,0,.077-.262v0c0-.013.005-.027.007-.04.006-.034.011-.068.015-.1,0-.014,0-.028,0-.042,0-.047.007-.093.007-.141s0-.105-.007-.158l-2.416-21.97a1.683,1.683,0,0,0-.031-.2Z" transform="translate(-296.929 -241.701)"/></g><path class="d" d="M142.811,0a14.835,14.835,0,0,0-14.836,14.836c0,10,8.8,22.427,12.843,27.615a2.527,2.527,0,0,0,3.985,0c4.046-5.188,12.843-17.619,12.843-27.615A14.836,14.836,0,0,0,142.811,0Zm0,24.435a9.054,9.054,0,1,1,9.054-9.054A9.054,9.054,0,0,1,142.811,24.435Z" transform="translate(-119.098)"/><path class="e" d="M244.33,0a14.933,14.933,0,0,0-2.368.189,14.839,14.839,0,0,1,12.467,14.647c0,8.43-6.256,21.521-10.643,28.529a2.522,2.522,0,0,0,2.536-.914c4.046-5.188,12.843-17.619,12.843-27.615A14.836,14.836,0,0,0,244.33,0Z" transform="translate(-220.617)"/></svg>