<svg xmlns="http://www.w3.org/2000/svg" xmlns:xlink="http://www.w3.org/1999/xlink" width="31.79" height="20.968" viewBox="0 0 31.79 20.968"><defs><style>.a{fill-rule:evenodd;fill:url(#a);}.b{fill:#00adae;}.c{fill:#fff;}</style><linearGradient id="a" x1="0.013" y1="0.094" x2="1.095" y2="0.846" gradientUnits="objectBoundingBox"><stop offset="0" stop-color="#00adae"/><stop offset="0.248" stop-color="#00a8a9"/><stop offset="0.522" stop-color="#009c9c"/><stop offset="0.808" stop-color="#008986"/><stop offset="1" stop-color="#007873"/></linearGradient></defs><g transform="translate(0 0)"><path class="a" d="M37.94,8.718H12.555a3.211,3.211,0,0,0-3.2,3.2V21.956a3.211,3.211,0,0,0,3.2,3.2h3.633c.705,0,.93.155,1.241.842l.85,1.709L19.128,26c.311-.687.536-.842,1.241-.842H37.94a3.211,3.211,0,0,0,3.2-3.2V11.92A3.211,3.211,0,0,0,37.94,8.718Z" transform="translate(-9.353 -8.718)"/><circle class="b" cx="0.715" cy="0.715" r="0.715" transform="translate(8.243 19.537)"/></g><g transform="translate(2.766 2.547)"><path class="c" d="M48.386,26.728a1.346,1.346,0,0,0-.55-.327,2.339,2.339,0,0,0-.7-.1H44.3v1.4h2.171a.486.486,0,0,1,.42.171.857.857,0,0,1,.124.506v5.5h1.847V28.257a2.98,2.98,0,0,0-.124-.923,1.482,1.482,0,0,0-.353-.605M41,27.7h.735v6.177H43.57V26.3H41Zm13.6.828a2.9,2.9,0,0,0-.214-1.23,1.587,1.587,0,0,0-.553-.669,1.868,1.868,0,0,0-.759-.281,5.936,5.936,0,0,0-.848-.061L49.5,26.3l.035,5.2a2.646,2.646,0,0,0,.669,1.893,2.615,2.615,0,0,0,1.931.648,2.991,2.991,0,0,0,1.146-.2,2,2,0,0,0,.773-.547,2.119,2.119,0,0,0,.428-.837,4.164,4.164,0,0,0,.13-1.077ZM52.61,32.408a.561.561,0,0,1-.484.249.675.675,0,0,1-.53-.231,1.431,1.431,0,0,1-.205-.909l-.012-3.8H52a1.021,1.021,0,0,1,.264.035.508.508,0,0,1,.231.136.733.733,0,0,1,.165.287,1.493,1.493,0,0,1,.064.48l.046,2.854A1.608,1.608,0,0,1,52.61,32.408ZM31.485,28.539h-.128v-.3h.149c.149,0,.2-.064.2-.167s-.054-.167-.2-.167c-.43,0-.51.63-1.107.63-.334,0-.525-.161-.525-.475s.191-.474.525-.474h.065v.3h-.087c-.149,0-.206.058-.206.161s.057.161.206.161c.43,0,.51-.63,1.107-.63.334,0,.525.164.525.48S31.819,28.539,31.485,28.539Zm.5.767-1.113.117,1.113.117v.442l-2.089.229V29.9l1.647-.173L29.9,29.57V29.26l1.659-.161L29.9,28.931V28.65l2.089.228Zm0,1.91H29.9v-.879h.3v.557h.582v-.442h.3v.442h.612v-.557h.3Zm0,.562-1.513.4h1.513v.29H29.9v-.4l1.25-.331H29.9v-.287h2.089Zm.932-5.18a1.439,1.439,0,0,0-.605-.3,3.107,3.107,0,0,0-.706-.078H28.359V33.8h5.146V28.284a2.925,2.925,0,0,0-.159-1.056A1.538,1.538,0,0,0,32.918,26.6Zm3.614,4.257V26.3h-2.57v1.4h.747l-.023,3.155ZM39.978,26.3H37.251v1.4h1.06l.4,2.779c-.258.228-2.673,3.144-2.982,3.4h2.1c.284-.282.807-1.088,1.178-1.482l.237,1.482h1.841l-.544-3.259Z" transform="translate(-28.359 -26.217)"/><path class="c" d="M29.431,89.207l0-.871h-.2v-.185h.394v1.057Zm1.71.883h-.2V88.573a.25.25,0,0,0-.056-.187.22.22,0,0,0-.164-.05l-.307,0V90.09h-.428V89.9h.24l-.009-1.557h-.131v-.191l.667-.006a.623.623,0,0,1,.141.016.31.31,0,0,1,.123.058.3.3,0,0,1,.088.116.471.471,0,0,1,.033.193ZM32.3,88.336V90.09h-.2V88.336h-.556v-.185h.9v.185Zm1.28,1.754V88.336H32.86v-.185h.915v1.94Zm-.716-1.4h.194v1.4H32.86Zm2.761,1.4V88.582a.29.29,0,0,0-.049-.19.2.2,0,0,0-.157-.056H35v-.185h.449a.6.6,0,0,1,.139.016.308.308,0,0,1,.12.056.278.278,0,0,1,.085.115.493.493,0,0,1,.032.193v1.56Zm.977-1.754V90.09h-.2V88.336h-.179v-.185H36.8v.185Zm1.1,1.754-.078-.524-.122.162q-.064.084-.126.159l-.116.141q-.054.065-.094.108v-.28q.046-.044.1-.1l.109-.121.113-.126c.037-.042.073-.083.1-.122l-.1-1.047h-.234v-.185h.413l.118,1.178.107.762Zm1.013,0V89.9h.382l-.027-1.289a.424.424,0,0,0-.022-.147.249.249,0,0,0-.055-.091.174.174,0,0,0-.074-.045.285.285,0,0,0-.081-.012.18.18,0,0,0-.1.026.223.223,0,0,0-.067.065.311.311,0,0,0-.039.087.885.885,0,0,0-.021.092l-.188,1.5h-.212l.243-1.66q-.046-.015-.12-.03l-.129-.027.012-.246.167.06c.065.024.127.051.186.079a.407.407,0,0,1,.112-.094.355.355,0,0,1,.184-.042.6.6,0,0,1,.124.018.324.324,0,0,1,.144.075.377.377,0,0,1,.1.179,1.228,1.228,0,0,1,.033.325l.006,1.363Zm1.723,0V88.336h-.715v-.185h.916v1.94Zm-.715-1.4h.194v1.4h-.194Zm2.564,1.4h-.2l.382-1.751h-.619v-.545h.2v.36h.659Zm2.237-.6a.865.865,0,0,1-.044.278.535.535,0,0,1-.114.185.4.4,0,0,1-.084.061.626.626,0,0,1-.093.043.41.41,0,0,1-.088.023.519.519,0,0,1-.069.006h-.865l-.061-1.94h.215l.028,1.754.376,0-.009-.345-.006-1.406h.2L43.9,89.9h.117a.311.311,0,0,0,.1-.023.3.3,0,0,0,.105-.064.431.431,0,0,0,.1-.316l0-1.349h.21Zm2.349.6h-.2V88.573a.251.251,0,0,0-.056-.187.222.222,0,0,0-.165-.05l-.307,0V90.09h-.428V89.9h.24l-.009-1.557h-.13v-.191l.667-.006a.627.627,0,0,1,.141.016.309.309,0,0,1,.123.058.3.3,0,0,1,.088.116.473.473,0,0,1,.033.193Zm.586-.883,0-.871h-.2v-.185h.394v1.057Zm.583.883V89.9H48.6V88.336h-.544v-.185H48.8V89.9h.157v.188Zm2.017,0V88.336h-.715v-.185h.916v1.94Zm-.715-1.4h.194v1.4h-.194Zm2.761,1.4V88.582a.288.288,0,0,0-.049-.19.2.2,0,0,0-.157-.056h-.419v-.185h.449a.6.6,0,0,1,.139.016.309.309,0,0,1,.12.056.279.279,0,0,1,.085.115.493.493,0,0,1,.032.193v1.56Zm1.713,0h-.2V88.573a.252.252,0,0,0-.056-.187.222.222,0,0,0-.165-.05l-.307,0V90.09h-.428V89.9h.24l-.009-1.557h-.13v-.191l.667-.006a.626.626,0,0,1,.141.016.309.309,0,0,1,.123.058.3.3,0,0,1,.088.116.476.476,0,0,1,.033.193Zm1.2,0-.3-.8-.167-.455-.145,1.256h-.2l.2-1.43-.2-.51h.225l.409,1.024.176-1.024h.206l-.264,1.215.275.724Z" transform="translate(-29.107 -78.832)"/></g></svg>