<svg xmlns="http://www.w3.org/2000/svg" xmlns:xlink="http://www.w3.org/1999/xlink" viewBox="0 0 422.84 132.17"><defs><style>.cls-1,.cls-10,.cls-11,.cls-6,.cls-8{fill:none;}.cls-2{clip-path:url(#clip-path);}.cls-3{fill:#231f20;}.cls-4{fill:#005b9e;}.cls-5{fill:#c2922c;}.cls-6{stroke:#c2922c;}.cls-10,.cls-11,.cls-6,.cls-8{stroke-miterlimit:10;stroke-width:0.49px;}.cls-7{fill:#a02545;}.cls-8{stroke:#a02545;}.cls-9{fill:#5e923f;}.cls-10{stroke:#5e923f;}.cls-11{stroke:#005b9e;}</style><clipPath id="clip-path" transform="translate(-10.7 -12.28)"><rect class="cls-1" width="448" height="155"/></clipPath></defs><title>ארגון בתי הכנסת</title><g id="Layer_2" data-name="Layer 2"><g id="Layer_1-2" data-name="Layer 1"><g class="cls-2"><path class="cls-3" d="M134.52,45.4a4.17,4.17,0,0,1-.3,1.84,3,3,0,0,1-.92,1.31c-.18.14-.3.17-.39.1a.39.39,0,0,1-.12-.33V42a16.48,16.48,0,0,0-.1-2,2.07,2.07,0,0,0-.35-1.1,2,2,0,0,0-.63-.44,3.87,3.87,0,0,0-1.42-.18h-3.77a2.56,2.56,0,0,0-.61.06,1.25,1.25,0,0,0-.55.39,2.85,2.85,0,0,0-.49,1,4,4,0,0,0-.23,1.22,4.48,4.48,0,0,0,.26,1.44,7.63,7.63,0,0,0,.6,1.35l.08.14a.76.76,0,0,1,.08.2.86.86,0,0,1,0,.45l-.65,4H120.3l.74-4.73h2A8.39,8.39,0,0,1,123,43c0-.27,0-.56,0-.87a5.54,5.54,0,0,1,.09-1,8.6,8.6,0,0,1,.25-1,5.1,5.1,0,0,1,.42-.92,3.3,3.3,0,0,1,.57-.73.22.22,0,0,0,.09-.16.12.12,0,0,0-.09-.14,3.92,3.92,0,0,1-.7-.25,2,2,0,0,1-.61-.4,3.08,3.08,0,0,1-.67-.93A3.84,3.84,0,0,1,122,35a5.44,5.44,0,0,1,.31-1.75,3.65,3.65,0,0,1,.91-1.49,1,1,0,0,1,.44-.22c.16,0,.25.09.27.37l0,.48a.75.75,0,0,0,.2.43,2.2,2.2,0,0,0,.34.28,2.08,2.08,0,0,0,.94.14h4.85a7,7,0,0,1,2,.23,2.66,2.66,0,0,1,1.18.67,2.6,2.6,0,0,1,.6,1.25,11.06,11.06,0,0,1,.21,2.47v2.31ZM149,40.52a23.69,23.69,0,0,1-.29,3.92,6.47,6.47,0,0,1-1,2.63,4.33,4.33,0,0,1-1.7,1.35,7.73,7.73,0,0,1-3.12.5,17.91,17.91,0,0,1-1.79-.08,7,7,0,0,1-1.29-.26,2.91,2.91,0,0,1-.95-.47,4.18,4.18,0,0,1-.74-.72,4.64,4.64,0,0,1-.82-2,13.63,13.63,0,0,1-.24-2.64,7.3,7.3,0,0,1,.22-1.81,6.88,6.88,0,0,1,.61-1.53,3,3,0,0,1,.43-.6l.46-.53a3.28,3.28,0,0,1-.66-.19,1.79,1.79,0,0,1-.65-.44,2.26,2.26,0,0,1-.6-1,5.77,5.77,0,0,1-.2-1.69,4.44,4.44,0,0,1,.1-.81,6,6,0,0,1,.29-.91,6.71,6.71,0,0,1,.42-.85,2.8,2.8,0,0,1,.53-.67,1,1,0,0,1,.44-.22c.16,0,.25.09.27.37l0,.48a.74.74,0,0,0,.19.43,2.26,2.26,0,0,0,.35.28,2,2,0,0,0,.9.14h5a6.53,6.53,0,0,1,1.31.17,2.74,2.74,0,0,1,1.45.94,3.19,3.19,0,0,1,.66,1.2,7.78,7.78,0,0,1,.28,1.51c0,.53.08,1.1.08,1.69Zm-1.43.74a5.58,5.58,0,0,0-.18-1.42,2.25,2.25,0,0,0-.69-1.13,2.4,2.4,0,0,0-.86-.43,4.55,4.55,0,0,0-1-.11h-3.46a2.68,2.68,0,0,0-1,.23,2.46,2.46,0,0,0-.93.67,3.1,3.1,0,0,0-.23.39A3.52,3.52,0,0,0,139,40c-.06.19-.11.38-.15.56a2.49,2.49,0,0,0-.06.49,3.73,3.73,0,0,0,.31,1.61,2.09,2.09,0,0,0,1,1,3.51,3.51,0,0,0,1.29.35,16,16,0,0,0,1.66.08,14.64,14.64,0,0,0,1.72-.1,5.3,5.3,0,0,0,1.43-.38,2,2,0,0,0,1.07-.87A3.06,3.06,0,0,0,147.61,41.26Zm10.31,2.33c0,.28,0,.85-.08,1.71s-.14,2-.24,3.25h-7.2l.63-5.08h4.43q.39,0,.39-.45V39.1a.92.92,0,0,0-.23-.6.94.94,0,0,0-.76-.27h-1.25a2.89,2.89,0,0,1-1.13-.23,1.6,1.6,0,0,1-.77-.63,3.66,3.66,0,0,1-.48-2.1,5.5,5.5,0,0,1,.08-.86,5.78,5.78,0,0,1,.23-.91,4.31,4.31,0,0,1,.35-.82,3.46,3.46,0,0,1,.47-.67,1,1,0,0,1,.65-.3c.19,0,.26.2.22.58a1.1,1.1,0,0,0,.07.65c.09.2.3.29.62.29h1.39a2.58,2.58,0,0,1,1.08.19,1.8,1.8,0,0,1,.76.63,1.9,1.9,0,0,1,.27.7,4.9,4.9,0,0,1,.08.78,7.47,7.47,0,0,1-.1,1.28c-.07.39-.14.73-.22,1A5.89,5.89,0,0,0,157,39q0,.62,0,.87a4.4,4.4,0,0,0,.12.87,5.89,5.89,0,0,0,.23.89l.36,1,.18.46A2.18,2.18,0,0,1,157.92,43.59Zm13.23-3c0,.51,0,1-.05,1.6a10.79,10.79,0,0,1-.28,1.77c-.15.67-.32,1.34-.49,2s-.32,1.27-.45,1.74-.23.63-.39.7a2.93,2.93,0,0,1-1,.1h-9l.68-5h7.46a2.69,2.69,0,0,0,1.89-.5,1.79,1.79,0,0,0,.49-1.35V41.6a5.91,5.91,0,0,0-.18-1.61,2.25,2.25,0,0,0-.55-1,1.88,1.88,0,0,0-.92-.5,5.39,5.39,0,0,0-1.27-.13h-4.6a4,4,0,0,1-1-.14,2,2,0,0,1-.94-.56,2.57,2.57,0,0,1-.66-1,4.77,4.77,0,0,1-.24-1.69,5.44,5.44,0,0,1,.31-1.75,3.65,3.65,0,0,1,.91-1.49,1,1,0,0,1,.42-.22c.16,0,.25.09.29.37l0,.48a.58.58,0,0,0,.18.43,2.26,2.26,0,0,0,.35.28,2.19,2.19,0,0,0,1,.14h3.8c.38,0,.74,0,1.07,0a2.81,2.81,0,0,1,1,.23,2.66,2.66,0,0,1,.82.59,3.59,3.59,0,0,1,.69,1.14,10.26,10.26,0,0,1,.5,2.25,23.73,23.73,0,0,1,.18,3.05ZM185.4,36c0,.21,0,.43,0,.64a2.76,2.76,0,0,1-.14.67,3.37,3.37,0,0,1-.77,1.07.84.84,0,0,0-.25.57,3.24,3.24,0,0,0,0,.88l.39,2.47a6.59,6.59,0,0,0,.12.74c.06.28.11.57.16.86s.09.58.14.85a4.46,4.46,0,0,1,.06.64,3.23,3.23,0,0,1-.51,1.86,5.06,5.06,0,0,1-1.66,1.44.26.26,0,0,1-.33-.06c-.1-.1-.13-.17-.1-.23a7.11,7.11,0,0,0,.29-.92,3.23,3.23,0,0,0,.11-1l-.29-5.36a3,3,0,0,1,.4-1.87c0-.08.07-.15.1-.2s.1-.16.21-.31a.49.49,0,0,0,.06-.22c0-.07-.08-.1-.22-.1h-7.36a4.27,4.27,0,0,1-1-.14,2.08,2.08,0,0,1-1-.56,2.67,2.67,0,0,1-.65-1,4.77,4.77,0,0,1-.24-1.69,5.46,5.46,0,0,1,.32-1.75,3.63,3.63,0,0,1,.9-1.49,1.05,1.05,0,0,1,.45-.22c.16,0,.25.09.27.37l0,.48a.75.75,0,0,0,.2.43,2.79,2.79,0,0,0,.34.28,2.19,2.19,0,0,0,1,.14h6.36a6.24,6.24,0,0,1,1.1.1,1.89,1.89,0,0,1,.92.47,1.72,1.72,0,0,1,.49.82,5,5,0,0,1,.13,1.27Zm-9.75,9.22a4.43,4.43,0,0,1-.22,1.92,3.07,3.07,0,0,1-1.5,1.55.34.34,0,0,1-.29,0c-.09,0-.13-.12-.13-.27v-4.8a3.06,3.06,0,0,1,.24-1.17,2.9,2.9,0,0,1,.62-1,1.79,1.79,0,0,1,.48-.39,1.82,1.82,0,0,1,.48-.2c.13,0,.22,0,.27,0a.31.31,0,0,1,0,.27,1.1,1.1,0,0,0-.15.57,2.89,2.89,0,0,0,0,.93Zm23.54-8a12.23,12.23,0,0,1-.16,1.92,4.8,4.8,0,0,1-.82,1.91,4.88,4.88,0,0,1-.77.92,8.69,8.69,0,0,1-.87.72,1.82,1.82,0,0,1-.34.22.68.68,0,0,1-.31.1.22.22,0,0,1-.17-.09l-.15-.14-.19-.25a.31.31,0,0,1,0-.23.53.53,0,0,1,.08-.15.75.75,0,0,0,.11-.13l.56-.4a2.42,2.42,0,0,0,.44-.42,2.38,2.38,0,0,0,.43-.56,2.11,2.11,0,0,0,.17-.93,2.41,2.41,0,0,0-.09-.67,1.09,1.09,0,0,0-.26-.49.75.75,0,0,0-.29-.17,1.73,1.73,0,0,0-.36,0h-1.38a1.65,1.65,0,0,1-1-.27,2.16,2.16,0,0,1-.62-.66,2.68,2.68,0,0,1-.36-.92,5.93,5.93,0,0,1-.12-1.24,6.79,6.79,0,0,1,.06-.86,4.77,4.77,0,0,1,.2-.91,4.28,4.28,0,0,1,.34-.82,2.54,2.54,0,0,1,.48-.67.91.91,0,0,1,.63-.3c.19,0,.26.2.22.58a1,1,0,0,0,.11.65.65.65,0,0,0,.63.29h1.53a2.76,2.76,0,0,1,.91.16,2.34,2.34,0,0,1,.79.5,2.05,2.05,0,0,1,.4.76,4.11,4.11,0,0,1,.18,1.33Zm15.18,8.17a4.31,4.31,0,0,1-.29,1.84,3,3,0,0,1-.93,1.31c-.17.14-.3.17-.38.1a.39.39,0,0,1-.12-.33V42a16.29,16.29,0,0,0-.11-2,2,2,0,0,0-.34-1.1,2,2,0,0,0-.64-.44,3.77,3.77,0,0,0-1.41-.18h-3.78a2.68,2.68,0,0,0-.61.06,1.37,1.37,0,0,0-.55.39,3.06,3.06,0,0,0-.48,1A4,4,0,0,0,204.5,41a4.46,4.46,0,0,0,.25,1.44,7,7,0,0,0,.61,1.35.7.7,0,0,0,.08.14.76.76,0,0,1,.08.2.86.86,0,0,1,0,.45l-.66,4h-4.7l.74-4.73h2a8.39,8.39,0,0,1-.07-.84c0-.27,0-.56,0-.87a4.75,4.75,0,0,1,.1-1,7,7,0,0,1,.25-1,5.06,5.06,0,0,1,.41-.92,3.06,3.06,0,0,1,.58-.73.21.21,0,0,0,.08-.16.12.12,0,0,0-.08-.14,4.31,4.31,0,0,1-.71-.25,2.1,2.1,0,0,1-.6-.4,2.92,2.92,0,0,1-.67-.93,3.84,3.84,0,0,1-.27-1.63,5.44,5.44,0,0,1,.31-1.75,3.65,3.65,0,0,1,.91-1.49,1,1,0,0,1,.44-.22c.16,0,.25.09.27.37l0,.48a.74.74,0,0,0,.19.43,2.79,2.79,0,0,0,.34.28,2.14,2.14,0,0,0,1,.14h4.85a6.91,6.91,0,0,1,2,.23,2.69,2.69,0,0,1,1.19.67,2.6,2.6,0,0,1,.6,1.25,11.06,11.06,0,0,1,.21,2.47v2.31Zm14-1.93-.53,5.08H216l.66-5.08h8.08c.42,0,.68-.08.77-.25a1.74,1.74,0,0,0,.25-.64,4.29,4.29,0,0,0,.09-.9l0-.79c0-.4-.06-.81-.12-1.22a1.45,1.45,0,0,0-.39-.9,1.38,1.38,0,0,0-.73-.35,5.77,5.77,0,0,0-.85-.06h-4.49a4,4,0,0,1-.94-.14,2.05,2.05,0,0,1-1-.56,2.44,2.44,0,0,1-.65-1,4.77,4.77,0,0,1-.24-1.69,5,5,0,0,1,.33-1.73,3.54,3.54,0,0,1,1-1.51,1,1,0,0,1,.44-.22c.16,0,.25.09.27.37l0,.48a.69.69,0,0,0,.2.43,2.2,2.2,0,0,0,.34.28,2.08,2.08,0,0,0,.94.14h4.56a6.11,6.11,0,0,1,1.22.16,1.87,1.87,0,0,1,1.16.8,3.51,3.51,0,0,1,.47,1.08,5.79,5.79,0,0,1,.16,1.42q0,.63,0,1.59c0,.64-.07,1.25-.13,1.82l-.21,1.7a4.93,4.93,0,0,1-.32,1.31.28.28,0,0,0,0,.25c0,.07.12.11.26.11Zm17.82-5.11c0,.42,0,.77,0,1.07a6.18,6.18,0,0,1-.08.8,3.41,3.41,0,0,1-.23.68,5.56,5.56,0,0,1-.41.72,4.16,4.16,0,0,1-.83.86l-1.1.86-1.3,1a3.34,3.34,0,0,0-.61.63,1.71,1.71,0,0,0-.36.67,1.42,1.42,0,0,0,.23,1,1.26,1.26,0,0,1,.22.65,1.44,1.44,0,0,1-.06.43,2.13,2.13,0,0,1-.24.43,3.39,3.39,0,0,1-.43.42,1,1,0,0,1-.65.17,1.29,1.29,0,0,1-.66-.14,2.07,2.07,0,0,1-.49-.42,2.17,2.17,0,0,1-.31-.49,1.52,1.52,0,0,1-.11-.63A2.66,2.66,0,0,1,239,46a2.81,2.81,0,0,1,.48-.68,5.56,5.56,0,0,1,.56-.54L243,42.31a2.89,2.89,0,0,0,.89-1.09,3.12,3.12,0,0,0,.17-1,2.06,2.06,0,0,0-.43-1.46,1.83,1.83,0,0,0-1.38-.45H237a2,2,0,0,1-.62-.11.89.89,0,0,1-.45-.27,1.81,1.81,0,0,1-.28-.42,2.33,2.33,0,0,1-.18-.53,3.57,3.57,0,0,1-.1-.81c0-.32,0-.73,0-1.25a9.91,9.91,0,0,1,.19-2.12,8.51,8.51,0,0,1,.4-1.33l.29-.62a3.41,3.41,0,0,1,.31-.56c.13-.2.12-.35-.06-.45l-.26-.11a1.6,1.6,0,0,1-.78-.63,1.41,1.41,0,0,1-.19-.45,2.79,2.79,0,0,1-.05-.59,1.41,1.41,0,0,1,.12-.56,4.63,4.63,0,0,1,.28-.54,5,5,0,0,1,.34-.48,1.28,1.28,0,0,1,.34-.3c.17-.11.29-.08.35.12a1.67,1.67,0,0,1,.07.24s.08.1.2.18l.86.51a1.61,1.61,0,0,1,.52.48,1,1,0,0,1,.19.55v.09a1.35,1.35,0,0,1-.16.64,9.43,9.43,0,0,1-.55.88,3.48,3.48,0,0,0-.31.52,5.2,5.2,0,0,0-.29.61,2.8,2.8,0,0,0-.11.61c0,.24,0,.45,0,.61a1.32,1.32,0,0,0,.19.68.87.87,0,0,0,.8.32h5.43a2.65,2.65,0,0,1,2.25.8,4.27,4.27,0,0,1,.58,2.49ZM265.09,36v.41A2.52,2.52,0,0,1,265,37a2.25,2.25,0,0,1-.24.65,2.19,2.19,0,0,1-.48.64l-.82.84a5.5,5.5,0,0,0-1,1.33c-.24.5-.53,1.18-.86,2a18.52,18.52,0,0,0-.84,2.9L260.27,48l-.09.38c0,.09-.17.13-.44.13H249.68a13.25,13.25,0,0,0-.11-1.78c-.08-.52-.2-1.1-.35-1.76s-.29-1.33-.38-1.94a11.84,11.84,0,0,1-.13-1.75,5.75,5.75,0,0,1,.2-1.57,6.52,6.52,0,0,1,.63-1.39l-.32-.13-.49-.13a1.17,1.17,0,0,1-.53-.44,2.61,2.61,0,0,1-.38-.77,3.68,3.68,0,0,1-.19-1.3A7.58,7.58,0,0,1,248,33.4a2.81,2.81,0,0,1,1-1.56c.26-.19.45-.24.57-.13a.38.38,0,0,1,.14.33c0,.13,0,.27,0,.42a1,1,0,0,0,0,.4.7.7,0,0,0,.24.27,1.09,1.09,0,0,0,.57.1h.6a1.62,1.62,0,0,1,1.36.6,3,3,0,0,1,.48,1.9,7.18,7.18,0,0,1-.15,1.6,3.6,3.6,0,0,1-.44,1.09c-.07.09-.14.12-.2.08a.86.86,0,0,1-.19-.11.76.76,0,0,0-.4-.12h-.43c-.15,0-.32.18-.53.54a4,4,0,0,0-.31,1.87,5.42,5.42,0,0,0,.05.64,7.54,7.54,0,0,0,.16.77,5.82,5.82,0,0,0,.21.73,1.93,1.93,0,0,0,.26.52.92.92,0,0,0,.6.34,5.57,5.57,0,0,0,.89.06h.06l3-5.37a2.28,2.28,0,0,1-.78-.12,1.8,1.8,0,0,1-.66-.5,2.54,2.54,0,0,1-.35-.82,5.07,5.07,0,0,1-.14-1.33,8.32,8.32,0,0,1,.28-2.19,2.72,2.72,0,0,1,1-1.56c.26-.19.44-.24.56-.13a.4.4,0,0,1,.16.33c0,.13,0,.27-.05.42a1,1,0,0,0,.05.4.59.59,0,0,0,.25.27,1.13,1.13,0,0,0,.57.1h.51a1.7,1.7,0,0,1,1.48.6,3.36,3.36,0,0,1,.42,1.9,4.45,4.45,0,0,1-.71,2.75c-.06.07-.11.1-.17.07l-.22-.1a1.67,1.67,0,0,0-.71-.13.43.43,0,0,0-.38.24l-2.92,5.17h3.47a9.46,9.46,0,0,0,1,0,1.77,1.77,0,0,0,.66-.19,1.28,1.28,0,0,0,.46-.44,9.13,9.13,0,0,0,.43-.81,9.07,9.07,0,0,1,1.54-2.35,12.73,12.73,0,0,1,1.25-1.13.37.37,0,0,0,.13-.3c0-.1-.07-.15-.19-.15l-.83,0a2.19,2.19,0,0,1-1-.29,1.57,1.57,0,0,1-.6-.66,3.06,3.06,0,0,1-.26-1,8,8,0,0,1-.07-1.07,6.53,6.53,0,0,1,.24-1.8,3.6,3.6,0,0,1,.57-1.24,2.74,2.74,0,0,1,.39-.42.76.76,0,0,1,.5-.14c.14,0,.21.11.2.34s0,.41,0,.54a3.18,3.18,0,0,0,0,.47c0,.12.18.18.49.18h1.16a1.61,1.61,0,0,1,.89.19,2,2,0,0,1,.55.5,1.68,1.68,0,0,1,.33.94C265.07,35.25,265.09,35.64,265.09,36Zm13.46,1.19a11.14,11.14,0,0,1-.16,1.92,4.63,4.63,0,0,1-.81,1.91,4.58,4.58,0,0,1-.78.92,7.63,7.63,0,0,1-.86.72,2.22,2.22,0,0,1-.34.22.72.72,0,0,1-.31.1.26.26,0,0,1-.18-.09,1.84,1.84,0,0,1-.14-.14l-.19-.25a.31.31,0,0,1,0-.23.53.53,0,0,1,.08-.15l.11-.13.56-.4a2.79,2.79,0,0,0,.44-.42,2.65,2.65,0,0,0,.42-.56,2,2,0,0,0,.18-.93,2.41,2.41,0,0,0-.09-.67,1.2,1.2,0,0,0-.26-.49.83.83,0,0,0-.29-.17,1.77,1.77,0,0,0-.37,0h-1.38a1.69,1.69,0,0,1-1-.27,2.13,2.13,0,0,1-.61-.66,2.5,2.5,0,0,1-.37-.92,6.67,6.67,0,0,1-.05-2.1,4.75,4.75,0,0,1,.19-.91,5,5,0,0,1,.34-.82,3.1,3.1,0,0,1,.48-.67.91.91,0,0,1,.63-.3c.19,0,.27.2.23.58a1,1,0,0,0,.11.65.65.65,0,0,0,.63.29h1.52a2.72,2.72,0,0,1,.91.16,2.16,2.16,0,0,1,.79.5,2.05,2.05,0,0,1,.41.76,4.13,4.13,0,0,1,.17,1.33Zm14-1.11a8.21,8.21,0,0,1,1.19,4.52,21,21,0,0,1-.15,2.54c-.1.82-.22,1.68-.35,2.57,0,.22-.09.49-.14.8s-.09.61-.13.9-.12.73-.16,1.1h-8.55l.6-4.85h6.39c.47,0,.77-.13.9-.4a1.68,1.68,0,0,0,.2-.73,4.44,4.44,0,0,0-.31-1.59,4.53,4.53,0,0,0-1.1-1.59,3.71,3.71,0,0,0-1.69-1,7.4,7.4,0,0,0-1.92-.27,4.77,4.77,0,0,0-1.44.2,3.56,3.56,0,0,0-1.31.82,3.85,3.85,0,0,0-.92,1.22,10.22,10.22,0,0,0-.53,1.33,9.47,9.47,0,0,0-.36,1.44c-.08.46-.16,1-.24,1.74l-.11,1.14a3.89,3.89,0,0,1-.1.54,2.71,2.71,0,0,1-.15.5,2.46,2.46,0,0,1-.45.74,2.11,2.11,0,0,1-.64.57,1.58,1.58,0,0,1-.56.26c-.17,0-.27,0-.29-.1a.73.73,0,0,1,0-.35l.2-1.71a19.56,19.56,0,0,1,1-4.65,6.11,6.11,0,0,1,.34-.68,8.77,8.77,0,0,1,.51-.79,7.64,7.64,0,0,1,.61-.77,5.56,5.56,0,0,1,.65-.64c.16-.16.2-.31.12-.43a.41.41,0,0,0-.38-.19l-1.17,0a1.41,1.41,0,0,1-.63-.19,2.24,2.24,0,0,1-.67-.58,2.92,2.92,0,0,1-.39-.69,3.2,3.2,0,0,1-.18-1.22,8.25,8.25,0,0,1,.31-2.21,2.83,2.83,0,0,1,1-1.59c.26-.19.45-.24.56-.13a.36.36,0,0,1,.15.33,2.72,2.72,0,0,0,0,.42,1,1,0,0,0,0,.4,1,1,0,0,0,.22.27.86.86,0,0,0,.53.1h.77a2.11,2.11,0,0,1,1.41.54,2.06,2.06,0,0,1,.64,1.67,4.1,4.1,0,0,1-.57,2.11.47.47,0,0,0,0,.24c0,.08.06.09.16,0a.64.64,0,0,0,.2-.14l.08-.06a.08.08,0,0,0,0,0,.58.58,0,0,1,.1-.12,3.05,3.05,0,0,0,.51-.64,8.52,8.52,0,0,0,.48-1,7.65,7.65,0,0,0,.33-1.17,5.62,5.62,0,0,0,.13-1.15c0-.28.11-.43.32-.44a4.66,4.66,0,0,1,.64,0,4.26,4.26,0,0,1,1,.28,8.14,8.14,0,0,1,1.17.6,7,7,0,0,1,1.18.9,7.53,7.53,0,0,1,1,1.22ZM306,38.36c0,.42,0,.77,0,1.07a6.18,6.18,0,0,1-.08.8,3.41,3.41,0,0,1-.23.68,5.56,5.56,0,0,1-.41.72,4.16,4.16,0,0,1-.83.86l-1.1.86-1.3,1a3.06,3.06,0,0,0-.61.63,1.71,1.71,0,0,0-.36.67,1.42,1.42,0,0,0,.23,1,1.26,1.26,0,0,1,.22.65,1.44,1.44,0,0,1-.06.43,2.13,2.13,0,0,1-.24.43,3.39,3.39,0,0,1-.43.42,1,1,0,0,1-.65.17,1.29,1.29,0,0,1-.66-.14,2.07,2.07,0,0,1-.49-.42,2.17,2.17,0,0,1-.31-.49,1.52,1.52,0,0,1-.11-.63,2.66,2.66,0,0,1,.24-1.1,3.06,3.06,0,0,1,.47-.68,6.88,6.88,0,0,1,.57-.54l2.89-2.47a2.89,2.89,0,0,0,.89-1.09,3.12,3.12,0,0,0,.17-1,2.06,2.06,0,0,0-.43-1.46,1.83,1.83,0,0,0-1.38-.45h-5.26a2,2,0,0,1-.62-.11,1,1,0,0,1-.46-.27,2.13,2.13,0,0,1-.27-.42,2.33,2.33,0,0,1-.18-.53,3.57,3.57,0,0,1-.1-.81c0-.32,0-.73,0-1.25a9.91,9.91,0,0,1,.19-2.12,8.51,8.51,0,0,1,.4-1.33l.29-.62a3.41,3.41,0,0,1,.31-.56c.13-.2.12-.35-.06-.45l-.26-.11a1.6,1.6,0,0,1-.78-.63,1.41,1.41,0,0,1-.19-.45,2.79,2.79,0,0,1-.05-.59,1.41,1.41,0,0,1,.12-.56,4.63,4.63,0,0,1,.28-.54,5,5,0,0,1,.34-.48,1.28,1.28,0,0,1,.34-.3c.17-.11.29-.08.35.12a1.67,1.67,0,0,1,.07.24s.08.1.2.18l.86.51a1.61,1.61,0,0,1,.52.48,1,1,0,0,1,.19.55v.09A1.35,1.35,0,0,1,298,29a9.43,9.43,0,0,1-.55.88,3.48,3.48,0,0,0-.31.52,5.2,5.2,0,0,0-.29.61,2.8,2.8,0,0,0-.11.61c0,.24,0,.45,0,.61a1.32,1.32,0,0,0,.19.68.87.87,0,0,0,.8.32h5.43a2.65,2.65,0,0,1,2.25.8,4.27,4.27,0,0,1,.58,2.49Zm7.84,7a4.25,4.25,0,0,1-.42,2.08,3.3,3.3,0,0,1-1.35,1.25c-.13.06-.22,0-.28,0a.21.21,0,0,1-.06-.21c.06-.32.11-.65.16-1a6.89,6.89,0,0,0,.07-1V40.13a3.69,3.69,0,0,0-.17-1.4.55.55,0,0,0-.51-.37h-1.9a1.53,1.53,0,0,1-.95-.27,2.19,2.19,0,0,1-.59-.66,2.49,2.49,0,0,1-.36-.92,5.93,5.93,0,0,1-.12-1.24,6.92,6.92,0,0,1,.07-.86,5.78,5.78,0,0,1,.23-.91,6.13,6.13,0,0,1,.35-.82,3.1,3.1,0,0,1,.48-.67,1,1,0,0,1,.64-.3c.18,0,.26.2.22.58a1,1,0,0,0,.11.65.65.65,0,0,0,.63.29h1.55a1.91,1.91,0,0,1,2.11,1.46,2.84,2.84,0,0,1,.09.69,9.83,9.83,0,0,1-.09,1.34c-.06.43-.11.8-.15,1.1s-.07.63-.1,1.08a8.52,8.52,0,0,0,0,1.12l0,1.43c0,.16,0,.43.06.82s.07.79.11,1.22.07.81.1,1.17S313.84,45.25,313.84,45.34ZM328.62,36c0,.09,0,.23,0,.41a3.29,3.29,0,0,1-.09.58,2.7,2.7,0,0,1-.26.67,2.22,2.22,0,0,1-.5.66,8,8,0,0,0-1.43,2.7,16.32,16.32,0,0,0-.45,1.92,18,18,0,0,0-.27,2.39,4.2,4.2,0,0,1-.28,1.19,2.43,2.43,0,0,1-1,1.11c-.52.33-1.14.69-1.86,1.09s-1.48.78-2.25,1.16-1.52.73-2.25,1.06-1.37.59-1.9.78V46.68l1-.33,1.06-.37c.36-.12.71-.26,1.05-.4a4.45,4.45,0,0,0,.85-.45c.34-.22.47-.39.4-.53a2,2,0,0,0-.37-.45l-1.54-1.7a2.72,2.72,0,0,1-.67-1.13,6.61,6.61,0,0,1-.17-1.68,4.65,4.65,0,0,1,.05-.69c0-.2.07-.4.11-.59l-.68-.13-.49-.12a1.35,1.35,0,0,1-.53-.45,2.89,2.89,0,0,1-.38-.77,4,4,0,0,1-.18-1.3,7.58,7.58,0,0,1,.31-2.19,2.86,2.86,0,0,1,1-1.56c.26-.19.45-.24.57-.13a.35.35,0,0,1,.14.33c0,.13,0,.27,0,.42a1.2,1.2,0,0,0,0,.4.68.68,0,0,0,.26.27,1.2,1.2,0,0,0,.59.1h.74a1.69,1.69,0,0,1,1.47.6,3.27,3.27,0,0,1,.43,1.9,11.11,11.11,0,0,1-.1,1.58,2.74,2.74,0,0,1-.41,1.08c-.06.1-.12.13-.19.1a.76.76,0,0,1-.2-.13.85.85,0,0,0-.56-.13h-.59a.3.3,0,0,0-.3.22.69.69,0,0,0,.08.56,6.11,6.11,0,0,0,.41.68c.15.2.37.47.67.8l.88,1a1.89,1.89,0,0,1,.48.87,3.1,3.1,0,0,1,.12.73c0,.22,0,.44,0,.64a1.36,1.36,0,0,1-.07.55c0,.1,0,.17,0,.21a.14.14,0,0,0,.18,0c.19-.11.4-.24.63-.36a8,8,0,0,0,.7-.44,1.74,1.74,0,0,0,.62-.53,3.73,3.73,0,0,0,.42-.89c.08-.2.18-.43.3-.68s.24-.48.39-.72l.4-.67.31-.49.42-.52.35-.38a.25.25,0,0,0,.09-.29.3.3,0,0,0-.23-.17l-1.08-.1a3.17,3.17,0,0,1-1.08-.29,1.39,1.39,0,0,1-.64-.63,3.06,3.06,0,0,1-.28-1,8,8,0,0,1-.07-1.07,6.53,6.53,0,0,1,.24-1.8,3.58,3.58,0,0,1,.59-1.24,2.3,2.3,0,0,1,.38-.42.76.76,0,0,1,.5-.14c.15,0,.21.11.2.34s0,.41,0,.54a1.33,1.33,0,0,0,.07.47c.05.12.29.18.73.18h1.31a1.65,1.65,0,0,1,.89.2,2,2,0,0,1,.53.52,1.79,1.79,0,0,1,.32.9A9.39,9.39,0,0,1,328.62,36ZM342.78,36c0,.21,0,.43,0,.64a3.34,3.34,0,0,1-.14.67,3.37,3.37,0,0,1-.77,1.07.84.84,0,0,0-.25.57,3.24,3.24,0,0,0,0,.88l.39,2.47a6.59,6.59,0,0,0,.12.74c.06.28.11.57.16.86s.09.58.14.85a4.46,4.46,0,0,1,.06.64,3.23,3.23,0,0,1-.51,1.86,5.11,5.11,0,0,1-1.67,1.44.25.25,0,0,1-.32-.06c-.1-.1-.14-.17-.1-.23a7.11,7.11,0,0,0,.29-.92,3.23,3.23,0,0,0,.1-1L340,41.06a2.83,2.83,0,0,1,.07-1,2.6,2.6,0,0,1,.34-.84c0-.08.07-.15.1-.2s.1-.16.21-.31a.63.63,0,0,0,.05-.22c0-.07-.07-.1-.21-.1h-7.37a4.19,4.19,0,0,1-1-.14,2,2,0,0,1-1-.56,2.67,2.67,0,0,1-.65-1,4.77,4.77,0,0,1-.24-1.69,5.46,5.46,0,0,1,.32-1.75,3.63,3.63,0,0,1,.9-1.49,1.05,1.05,0,0,1,.45-.22c.16,0,.25.09.26.37l0,.48a.75.75,0,0,0,.2.43,2.2,2.2,0,0,0,.34.28,2.16,2.16,0,0,0,1,.14h6.36a6,6,0,0,1,1.09.1,1.88,1.88,0,0,1,.93.47,1.72,1.72,0,0,1,.49.82,5,5,0,0,1,.13,1.27ZM333,45.2a4.28,4.28,0,0,1-.21,1.92,3.11,3.11,0,0,1-1.5,1.55.34.34,0,0,1-.29,0c-.09,0-.13-.12-.13-.27v-4.8a3.06,3.06,0,0,1,.24-1.17,2.75,2.75,0,0,1,.62-1,1.79,1.79,0,0,1,.48-.39,1.93,1.93,0,0,1,.47-.2c.14,0,.23,0,.28,0a.31.31,0,0,1,0,.27,1.1,1.1,0,0,0-.15.57,2.89,2.89,0,0,0,0,.93ZM356.45,36a7.78,7.78,0,0,1-.06.84,3.25,3.25,0,0,1-.29,1l-.27.53c-.12.24-.24.5-.37.78a6.22,6.22,0,0,0-.33.83,1.75,1.75,0,0,0-.1.71l.53,6.69c0,.42.07.72.09.91a5.49,5.49,0,0,1,0,.58,4,4,0,0,1-.52,2.08,3.83,3.83,0,0,1-1.38,1.39c-.1.08-.17.08-.22,0a.39.39,0,0,1-.07-.23c0-.28,0-.59.07-.93s0-.71,0-1.09V41.41a3.77,3.77,0,0,1,.06-.6c0-.25.09-.5.15-.76a5.31,5.31,0,0,1,.21-.7,1.57,1.57,0,0,1,.27-.47.31.31,0,0,0,.08-.33c0-.13-.17-.19-.39-.19h-1.62a2.06,2.06,0,0,1-2-1.13,2.6,2.6,0,0,1-.28-.92,8.43,8.43,0,0,1-.06-1,5.32,5.32,0,0,1,.31-1.8,4.65,4.65,0,0,1,.65-1.24,2.73,2.73,0,0,1,.38-.42.74.74,0,0,1,.51-.14c.13,0,.19.11.19.34s0,.41,0,.54a.75.75,0,0,0,.15.47q.15.18.84.18h1.36a1.62,1.62,0,0,1,1,.27,4.71,4.71,0,0,1,.6.58,1.35,1.35,0,0,1,.37.85C356.44,35.27,356.45,35.64,356.45,36Zm7.91,9.3a4.38,4.38,0,0,1-.41,2.08,3.33,3.33,0,0,1-1.36,1.25c-.13.06-.22,0-.28,0a.21.21,0,0,1-.06-.21c.06-.32.11-.65.16-1a6.86,6.86,0,0,0,.08-1V40.13a3.64,3.64,0,0,0-.18-1.4.53.53,0,0,0-.51-.37h-1.9a1.53,1.53,0,0,1-.95-.27,2.33,2.33,0,0,1-.59-.66,2.68,2.68,0,0,1-.36-.92,5.93,5.93,0,0,1-.12-1.24,5.5,5.5,0,0,1,.08-.86,4.83,4.83,0,0,1,.22-.91,5.08,5.08,0,0,1,.36-.82A2.54,2.54,0,0,1,359,32a.91.91,0,0,1,.63-.3c.19,0,.26.2.22.58a1,1,0,0,0,.11.65.65.65,0,0,0,.63.29h1.56a2.11,2.11,0,0,1,1.84.85,1.87,1.87,0,0,1,.26.61,2.84,2.84,0,0,1,.09.69,9.83,9.83,0,0,1-.09,1.34c-.06.43-.1.8-.14,1.1s-.08.63-.11,1.08A10.71,10.71,0,0,0,364,40l0,1.43c0,.16,0,.43.06.82s.07.79.11,1.22.08.81.11,1.17S364.36,45.25,364.36,45.34Zm9.86-.36a6.59,6.59,0,0,1-.06.76c0,.33-.09.63-.14.91l-.37,1.82c0,.09-.06.14-.14.14h-.28a1.05,1.05,0,0,1-.24,0c-.09,0-.13-.07-.13-.14,0-.4,0-.8-.05-1.19a8.27,8.27,0,0,0-.29-1.53c-.1-.31-.2-.62-.33-.93a9,9,0,0,0-.44-1c-.1-.19-.2-.29-.3-.29s-.15.1-.21.29-.09.37-.17.67-.16.65-.25,1l-.52,2.55a.89.89,0,0,1-.12.29.57.57,0,0,1-.42.16,3.79,3.79,0,0,1-.67.06H366c-.24,0-.35-.1-.31-.32l.71-5,1.33,0a9.51,9.51,0,0,0,1.29-.05,6.08,6.08,0,0,0,1-.17,1.93,1.93,0,0,0,.8-.39,1.82,1.82,0,0,0,.48-.56,2.88,2.88,0,0,0,.25-.81q0-.23.06-.6c0-.25,0-.49,0-.72a5.07,5.07,0,0,0,0-.68,3.57,3.57,0,0,0-.06-.44,1.66,1.66,0,0,0-.39-.47,1.3,1.3,0,0,0-.77-.18h-1.73a1.76,1.76,0,0,1-1-.27,2.29,2.29,0,0,1-.64-.64,3.55,3.55,0,0,1-.47-2,5.5,5.5,0,0,1,.08-.86,5.71,5.71,0,0,1,.21-.91,5.08,5.08,0,0,1,.36-.82,3.46,3.46,0,0,1,.47-.67,1,1,0,0,1,.65-.3c.19,0,.26.2.22.58a1.1,1.1,0,0,0,.08.65c.08.2.29.29.61.29h2a2.83,2.83,0,0,1,1.06.17A1.81,1.81,0,0,1,373,34a2,2,0,0,1,.28.69,2.79,2.79,0,0,1,.11.76,6.94,6.94,0,0,1-.12,1.31c-.08.41-.16.76-.24,1a4.07,4.07,0,0,0-.16.87c0,.21,0,.41,0,.58a3.44,3.44,0,0,0,0,.51c0,.19.06.39.1.59l.12.58a4.53,4.53,0,0,0,.11.46c.09.24.17.45.24.62s.15.36.24.57a6.23,6.23,0,0,1,.42,1.44A7.12,7.12,0,0,1,374.22,45Zm12.2.42a4,4,0,0,1-.29,1.84,3,3,0,0,1-.93,1.31c-.17.14-.3.17-.37.1a.39.39,0,0,1-.12-.33V40.76a5.51,5.51,0,0,0-.11-1.22,1.6,1.6,0,0,0-.34-.69,1.72,1.72,0,0,0-.86-.4,6.16,6.16,0,0,0-1.32-.13h-3.61a4.65,4.65,0,0,1-1-.12,1.92,1.92,0,0,1-1-.54,2.67,2.67,0,0,1-.65-1,4.77,4.77,0,0,1-.24-1.69,5.46,5.46,0,0,1,.32-1.75,3.63,3.63,0,0,1,.9-1.49,1.05,1.05,0,0,1,.45-.22c.16,0,.25.09.27.37l0,.48a.75.75,0,0,0,.2.43,2.79,2.79,0,0,0,.34.28,2.19,2.19,0,0,0,1,.14h3a4.61,4.61,0,0,1,3.28.9,2.7,2.7,0,0,1,.59,1.25,11.06,11.06,0,0,1,.21,2.47v2.31Zm15.41-.09a4.1,4.1,0,0,1-.13,1,3.19,3.19,0,0,1-.38.93,2.38,2.38,0,0,1-.63.81,4.52,4.52,0,0,1-.73.5.9.9,0,0,1-.52.15.19.19,0,0,1-.19-.21,2.33,2.33,0,0,0-.07-.47,2.08,2.08,0,0,0-.27-.57,5.92,5.92,0,0,0-.81-1l-.87-.91-5.47-5.2c-.15-.13-.27-.17-.35-.14a.63.63,0,0,0-.19.11.84.84,0,0,0-.31.5,3.47,3.47,0,0,0,0,.44,1.52,1.52,0,0,0,.37.84,6.65,6.65,0,0,0,.84.92,2.29,2.29,0,0,1,.35.33,3.24,3.24,0,0,0,.44.38,3,3,0,0,1,.82,1.08,3.36,3.36,0,0,1,.24,1.33,2.83,2.83,0,0,1-.49,1.74,1.71,1.71,0,0,1-1.5.67h-3.24a.47.47,0,0,1-.33-.11.54.54,0,0,1-.15-.29.4.4,0,0,1,.08-.31.72.72,0,0,1,.34-.25c.54-.19.83-.46.89-.79a.77.77,0,0,0,0-.36,2,2,0,0,0-.12-.33,9.44,9.44,0,0,1-.61-1.25,3.51,3.51,0,0,1-.21-1.24,5.1,5.1,0,0,1,.27-1.62,3.63,3.63,0,0,1,.76-1.33,5.45,5.45,0,0,1,1.25-1l-1.06-.9a9.24,9.24,0,0,1-.71-.7,2.42,2.42,0,0,1-.51-.81,2.11,2.11,0,0,1-.19-.65,6.73,6.73,0,0,1,0-.69,3.43,3.43,0,0,1,.21-1.24,4.28,4.28,0,0,1,.52-1,4.05,4.05,0,0,1,.66-.7,2.49,2.49,0,0,1,.6-.4.94.94,0,0,1,.77-.1c.18.09.22.26.13.52a1.06,1.06,0,0,0,.06.68,2.63,2.63,0,0,0,.82,1L397,39.1c.1.1.18.13.24.1a.63.63,0,0,0,.21-.22l.34-.5a4.65,4.65,0,0,0,.26-.4c.07-.15,0-.24-.18-.26l-.3,0a1.87,1.87,0,0,1-1-.49,2,2,0,0,1-.66-1.06,3.37,3.37,0,0,1-.07-1.07A6.54,6.54,0,0,1,396,34a6.62,6.62,0,0,1,.31-1,3.1,3.1,0,0,1,.38-.68q.43-.54.69-.45c.17.06.24.21.2.45a.64.64,0,0,0,.08.59.72.72,0,0,0,.48.21l1.43,0a2,2,0,0,1,1,.32,1.43,1.43,0,0,1,.57.87,6.45,6.45,0,0,1,.09.69c0,.26,0,.5,0,.71a4.39,4.39,0,0,1,0,.44q0,.29-.09.63a3.79,3.79,0,0,1-.18.66,2,2,0,0,1-.33.59.14.14,0,0,1-.23,0,.66.66,0,0,0-.25-.13l-.23-.07a.9.9,0,0,0-.28,0l-.34,0a.39.39,0,0,0-.36.19l-.24.35-.54.82a.65.65,0,0,0-.11.32v.19a.86.86,0,0,0,0,.28,1,1,0,0,0,.28.38l1.7,1.56a8.22,8.22,0,0,1,1.23,1.46A3.24,3.24,0,0,1,401.83,45.31ZM416,36c0,.21,0,.43,0,.64a2.76,2.76,0,0,1-.14.67,3.37,3.37,0,0,1-.77,1.07.84.84,0,0,0-.25.57,3.24,3.24,0,0,0,0,.88l.39,2.47a6.59,6.59,0,0,0,.12.74c.06.28.11.57.16.86s.09.58.14.85a4.46,4.46,0,0,1,.06.64,3.23,3.23,0,0,1-.51,1.86,5,5,0,0,1-1.67,1.44.25.25,0,0,1-.32-.06c-.1-.1-.13-.17-.1-.23a7.11,7.11,0,0,0,.29-.92,3.23,3.23,0,0,0,.11-1l-.29-5.36a3,3,0,0,1,.4-1.87c0-.08.07-.15.1-.2s.1-.16.21-.31a.49.49,0,0,0,.06-.22c0-.07-.08-.1-.22-.1h-7.36a4.19,4.19,0,0,1-1-.14,2,2,0,0,1-1-.56,2.67,2.67,0,0,1-.65-1,4.77,4.77,0,0,1-.24-1.69,5.46,5.46,0,0,1,.32-1.75,3.63,3.63,0,0,1,.9-1.49,1.05,1.05,0,0,1,.45-.22c.16,0,.25.09.27.37l0,.48a.75.75,0,0,0,.2.43,2.79,2.79,0,0,0,.34.28,2.19,2.19,0,0,0,1,.14h6.36a6.24,6.24,0,0,1,1.1.1,1.89,1.89,0,0,1,.92.47,1.72,1.72,0,0,1,.49.82,5,5,0,0,1,.13,1.27Zm-9.75,9.22a4.43,4.43,0,0,1-.22,1.92,3.07,3.07,0,0,1-1.5,1.55.34.34,0,0,1-.29,0c-.09,0-.13-.12-.13-.27v-4.8a3.06,3.06,0,0,1,.24-1.17,2.9,2.9,0,0,1,.62-1,1.79,1.79,0,0,1,.48-.39,1.82,1.82,0,0,1,.48-.2c.13,0,.22,0,.27,0a.31.31,0,0,1,0,.27,1.1,1.1,0,0,0-.15.57,2.89,2.89,0,0,0,0,.93Z" transform="translate(-10.7 -12.28)"/><path class="cls-3" d="M134.52,72a4.11,4.11,0,0,1-.3,1.83,2.93,2.93,0,0,1-.92,1.32c-.18.13-.3.17-.39.1a.43.43,0,0,1-.12-.34V68.59a16.65,16.65,0,0,0-.1-2,2,2,0,0,0-.35-1.09,1.88,1.88,0,0,0-.63-.45,3.87,3.87,0,0,0-1.42-.18h-3.77a2.09,2.09,0,0,0-.61.07,1.21,1.21,0,0,0-.55.38,2.82,2.82,0,0,0-.49,1,3.94,3.94,0,0,0-.23,1.22A4.58,4.58,0,0,0,124.9,69a7.63,7.63,0,0,0,.6,1.35l.08.13a.93.93,0,0,1,.08.2.86.86,0,0,1,0,.45l-.65,4H120.3l.74-4.74h2a8.39,8.39,0,0,1-.07-.84c0-.27,0-.56,0-.87a5.54,5.54,0,0,1,.09-1,8,8,0,0,1,.25-1,4.8,4.8,0,0,1,.42-.92,3.08,3.08,0,0,1,.57-.73.24.24,0,0,0,.09-.17.12.12,0,0,0-.09-.14,3.87,3.87,0,0,1-.7-.24,2,2,0,0,1-.61-.41,3.08,3.08,0,0,1-.67-.93,3.82,3.82,0,0,1-.27-1.62,5.35,5.35,0,0,1,.31-1.75,3.58,3.58,0,0,1,.91-1.49,1,1,0,0,1,.44-.23c.16,0,.25.09.27.37l0,.48a.69.69,0,0,0,.2.43,1.74,1.74,0,0,0,.34.28,2.05,2.05,0,0,0,.94.15h4.85a7.09,7.09,0,0,1,2,.22,2.67,2.67,0,0,1,1.18.68,2.52,2.52,0,0,1,.6,1.24,11.16,11.16,0,0,1,.21,2.48v2.3Zm8.17-.06a4.34,4.34,0,0,1-.41,2.07,3.26,3.26,0,0,1-1.36,1.25c-.13.06-.22.06-.28,0a.26.26,0,0,1-.06-.22c.06-.32.12-.64.16-1a7,7,0,0,0,.08-1V66.69a3.7,3.7,0,0,0-.18-1.41.55.55,0,0,0-.51-.37h-1.9a1.62,1.62,0,0,1-.95-.26,2.33,2.33,0,0,1-.59-.66,2.74,2.74,0,0,1-.36-.93,5.86,5.86,0,0,1-.12-1.24,5.5,5.5,0,0,1,.08-.86,5.63,5.63,0,0,1,.22-.9,5.19,5.19,0,0,1,.36-.83,2.34,2.34,0,0,1,.48-.66.93.93,0,0,1,.63-.31c.19,0,.26.21.22.59a1,1,0,0,0,.11.64.65.65,0,0,0,.63.3h1.56a2.11,2.11,0,0,1,1.84.84,1.93,1.93,0,0,1,.26.62,2.84,2.84,0,0,1,.09.69,9.69,9.69,0,0,1-.09,1.33c-.06.44-.1.81-.14,1.11s-.07.63-.1,1.08a8.63,8.63,0,0,0,0,1.11l0,1.44q0,.22.06.81c0,.39.08.79.11,1.22s.08.82.11,1.18S142.69,71.8,142.69,71.9Zm8.21-8.12a12.46,12.46,0,0,1-.16,1.93,4.76,4.76,0,0,1-.82,1.9,5.29,5.29,0,0,1-.77.93q-.45.4-.87.72a1.8,1.8,0,0,1-.34.21.72.72,0,0,1-.31.11.26.26,0,0,1-.18-.09l-.14-.15-.19-.24a.34.34,0,0,1,0-.24.64.64,0,0,1,.08-.14l.11-.13c.23-.18.42-.31.56-.41a2.42,2.42,0,0,0,.44-.42,1.83,1.83,0,0,0,.42-.56,1.92,1.92,0,0,0,.18-.92,2.48,2.48,0,0,0-.09-.68,1.05,1.05,0,0,0-.26-.48.68.68,0,0,0-.29-.18,1.73,1.73,0,0,0-.36,0H146.5a1.72,1.72,0,0,1-1-.26,2.05,2.05,0,0,1-.62-.66,2.38,2.38,0,0,1-.36-.93,5.86,5.86,0,0,1-.12-1.24,6.79,6.79,0,0,1,.06-.86,5.54,5.54,0,0,1,.19-.9,5.17,5.17,0,0,1,.35-.83,2.53,2.53,0,0,1,.47-.66,1,1,0,0,1,.64-.31c.18,0,.26.21.22.59a1,1,0,0,0,.11.64.65.65,0,0,0,.63.3h1.53a2.66,2.66,0,0,1,.9.15,2.28,2.28,0,0,1,.8.5,2.14,2.14,0,0,1,.4.76,4.15,4.15,0,0,1,.18,1.33Zm14.27,3.3a23.56,23.56,0,0,1-.29,3.91,6.32,6.32,0,0,1-1,2.64,4.26,4.26,0,0,1-1.7,1.35,7.75,7.75,0,0,1-3.12.49c-.7,0-1.29,0-1.79-.08a7,7,0,0,1-1.29-.25,3.14,3.14,0,0,1-1-.48,3.5,3.5,0,0,1-.73-.71,4.57,4.57,0,0,1-.83-2,13.84,13.84,0,0,1-.23-2.65A6.66,6.66,0,0,1,154.1,66a3,3,0,0,1,.43-.6c.19-.21.34-.38.46-.53a3.7,3.7,0,0,1-.66-.19,1.84,1.84,0,0,1-.65-.43,2.24,2.24,0,0,1-.6-1,5.74,5.74,0,0,1-.2-1.68,4.44,4.44,0,0,1,.1-.82,5.56,5.56,0,0,1,.29-.9,6.11,6.11,0,0,1,.42-.85,2.66,2.66,0,0,1,.53-.67,1,1,0,0,1,.44-.23c.16,0,.25.09.27.37l0,.48a.65.65,0,0,0,.2.43,1.74,1.74,0,0,0,.34.28,2,2,0,0,0,.9.15h5a5.8,5.8,0,0,1,1.31.17,2.74,2.74,0,0,1,1.45.93,3.16,3.16,0,0,1,.66,1.21,6.88,6.88,0,0,1,.28,1.5c0,.54.08,1.1.08,1.7Zm-1.43.74a5.47,5.47,0,0,0-.18-1.42,2.23,2.23,0,0,0-.69-1.14,2.57,2.57,0,0,0-.86-.43,4.59,4.59,0,0,0-1-.1h-3.45a2.7,2.7,0,0,0-1,.22,2.66,2.66,0,0,0-.93.68,2.35,2.35,0,0,0-.23.38,5.11,5.11,0,0,0-.21.52q-.09.28-.15.57a2.41,2.41,0,0,0-.06.49,3.83,3.83,0,0,0,.31,1.6,2.09,2.09,0,0,0,1.06,1,3.82,3.82,0,0,0,1.28.35,16.29,16.29,0,0,0,1.66.07,14.79,14.79,0,0,0,1.72-.09,5.31,5.31,0,0,0,1.43-.39,1.9,1.9,0,0,0,1.07-.87A3,3,0,0,0,163.74,67.82Zm15.34-.35a4.15,4.15,0,0,1-.77,2.61,6.15,6.15,0,0,1-1.84,1.57l-2.11,1.13a2.93,2.93,0,0,0-1.12,1c-.23.35-.44.69-.64,1a1.28,1.28,0,0,1-.15.25.35.35,0,0,1-.3.12.55.55,0,0,1-.56-.3,1.67,1.67,0,0,1-.15-.75,2.27,2.27,0,0,1,.66-1.57,5.94,5.94,0,0,1,1.61-1.22l2.55-1.33a3.26,3.26,0,0,0,.73-.59,1.74,1.74,0,0,0,.35-1.2,11.93,11.93,0,0,0-.08-1.38,2.07,2.07,0,0,0-.55-1.14,2.31,2.31,0,0,0-1-.59,5.1,5.1,0,0,0-1.4-.17h-4.56a3.85,3.85,0,0,1-.9-.12,1.82,1.82,0,0,1-.91-.53,2.48,2.48,0,0,1-.63-1,5,5,0,0,1-.23-1.68,5.35,5.35,0,0,1,.31-1.75,3.58,3.58,0,0,1,.91-1.49,1,1,0,0,1,.44-.23c.16,0,.25.09.27.37l0,.48a.69.69,0,0,0,.2.43,1.74,1.74,0,0,0,.34.28,2.1,2.1,0,0,0,1,.15h4.72a5.61,5.61,0,0,1,1.48.19,2.77,2.77,0,0,1,1,.43,4.72,4.72,0,0,1,.56.53,2.65,2.65,0,0,1,.42.73,4.51,4.51,0,0,1,.27,1.11,12.83,12.83,0,0,1,.09,1.66ZM170.16,76a4.18,4.18,0,0,1-.24,1.41,3,3,0,0,1-.74,1.19,2.32,2.32,0,0,1-.42.32,1,1,0,0,1-.56.15c-.26,0-.34-.17-.24-.5a5.8,5.8,0,0,0,.17-.8,7.16,7.16,0,0,0,.05-1.2l-.06-2.44c0-.67-.05-1.38-.1-2.13s-.06-1.51-.06-2.27a3.65,3.65,0,0,1,.11-.91,5.87,5.87,0,0,1,.28-.93,4.27,4.27,0,0,1,.4-.77,2.09,2.09,0,0,1,.43-.48.39.39,0,0,1,.48,0,.38.38,0,0,1,.13.24.58.58,0,0,1,0,.29c0,.19-.09.44-.16.75a4.74,4.74,0,0,0-.1.87V70a9.32,9.32,0,0,0,.12,1.44l.36,2.5c0,.3.08.65.13,1.06A8.28,8.28,0,0,1,170.16,76Zm17.12-4.09a4.34,4.34,0,0,1-.41,2.07,3.26,3.26,0,0,1-1.36,1.25c-.13.06-.22.06-.28,0a.23.23,0,0,1-.06-.22c.06-.32.12-.64.16-1a7,7,0,0,0,.08-1V66.69a3.7,3.7,0,0,0-.18-1.41.55.55,0,0,0-.51-.37h-1.9a1.6,1.6,0,0,1-.95-.26,2.33,2.33,0,0,1-.59-.66,2.74,2.74,0,0,1-.36-.93,5.86,5.86,0,0,1-.12-1.24,5.5,5.5,0,0,1,.08-.86,4.73,4.73,0,0,1,.22-.9,5.19,5.19,0,0,1,.36-.83,2.34,2.34,0,0,1,.48-.66.93.93,0,0,1,.63-.31c.19,0,.26.21.22.59a1,1,0,0,0,.11.64.65.65,0,0,0,.63.3h1.56a2.11,2.11,0,0,1,1.84.84,1.93,1.93,0,0,1,.26.62,2.84,2.84,0,0,1,.09.69,9.69,9.69,0,0,1-.09,1.33c-.06.44-.1.81-.14,1.11a10.59,10.59,0,0,0-.1,1.08,8.63,8.63,0,0,0,0,1.11L187,68q0,.22.06.81c0,.39.08.79.11,1.22s.08.82.11,1.18S187.28,71.8,187.28,71.9Zm14-9.43c0,.3,0,.55,0,.78a2.8,2.8,0,0,1-.16.68,3,3,0,0,1-.5.91c-.06.09-.1.14-.14.15a.25.25,0,0,1-.16,0,.79.79,0,0,0-.24-.11,2,2,0,0,0-.33,0l-.32,0a.54.54,0,0,0-.25.17c-.19.18-.26.58-.2,1.22l.18,2.31c0,.22,0,.5.09.83s.09.66.14,1,.09.65.13.93a4.93,4.93,0,0,1,.06.57,5.06,5.06,0,0,1-.34,1.81,3.29,3.29,0,0,1-1.68,1.54.3.3,0,0,1-.34,0c-.09-.07-.12-.14-.08-.2a6.53,6.53,0,0,0,.25-1,6.63,6.63,0,0,0,.08-1l-.07-5a8.2,8.2,0,0,1,.09-1.11,4.75,4.75,0,0,1,.24-1,1.17,1.17,0,0,1,.15-.27q.09-.12.24-.36a.45.45,0,0,0,.06-.21c0-.07-.07-.11-.22-.11h-6.11a4,4,0,0,1-1-.13,2.16,2.16,0,0,1-.95-.56,2.52,2.52,0,0,1-.65-1,4.75,4.75,0,0,1-.24-1.68,6.1,6.1,0,0,1,.27-1.74,3.08,3.08,0,0,1,.95-1.5,1,1,0,0,1,.44-.23c.16,0,.25.09.27.37l0,.48a.65.65,0,0,0,.2.43,1.74,1.74,0,0,0,.34.28,2.1,2.1,0,0,0,1,.15h6.18a4.75,4.75,0,0,1,1.14.12,1.67,1.67,0,0,1,.79.42,2.31,2.31,0,0,1,.5.82A3.88,3.88,0,0,1,201.26,62.47Zm7.91,9.43a4.21,4.21,0,0,1-.42,2.07,3.2,3.2,0,0,1-1.36,1.25c-.12.06-.21.06-.27,0a.23.23,0,0,1-.06-.22c.06-.32.11-.64.16-1a7,7,0,0,0,.07-1V66.69a4,4,0,0,0-.17-1.41.57.57,0,0,0-.51-.37h-1.9a1.58,1.58,0,0,1-1-.26,2.19,2.19,0,0,1-.59-.66,2.38,2.38,0,0,1-.36-.93,5.86,5.86,0,0,1-.12-1.24,5.42,5.42,0,0,1,.07-.86,5.66,5.66,0,0,1,.23-.9,6.27,6.27,0,0,1,.35-.83,2.81,2.81,0,0,1,.48-.66,1,1,0,0,1,.63-.31c.19,0,.27.21.23.59a1,1,0,0,0,.11.64.65.65,0,0,0,.63.3H207a2.11,2.11,0,0,1,1.85.84,2.18,2.18,0,0,1,.26.62,2.84,2.84,0,0,1,.09.69,9.69,9.69,0,0,1-.09,1.33l-.15,1.11c0,.27-.07.63-.1,1.08a8.37,8.37,0,0,0,0,1.11l0,1.44c0,.15,0,.42.05.81s.08.79.12,1.22.07.82.1,1.18S209.17,71.8,209.17,71.9Zm15.39.06a4.11,4.11,0,0,1-.3,1.83,2.93,2.93,0,0,1-.92,1.32c-.18.13-.3.17-.39.1a.43.43,0,0,1-.12-.34V68.59a16.65,16.65,0,0,0-.1-2,2,2,0,0,0-.35-1.09,1.7,1.7,0,0,0-.63-.45,3.87,3.87,0,0,0-1.42-.18h-3.77a2.13,2.13,0,0,0-.61.07,1.21,1.21,0,0,0-.55.38,2.82,2.82,0,0,0-.49,1,3.9,3.9,0,0,0-.22,1.22,4.55,4.55,0,0,0,.25,1.44,7.63,7.63,0,0,0,.6,1.35l.08.13a.6.6,0,0,1,.08.2.86.86,0,0,1,0,.45l-.65,4h-4.71l.74-4.74h2c0-.29-.06-.57-.07-.84s0-.56,0-.87a5.54,5.54,0,0,1,.09-1,6.54,6.54,0,0,1,.26-1,4.23,4.23,0,0,1,.41-.92,3.08,3.08,0,0,1,.57-.73.24.24,0,0,0,.09-.17.12.12,0,0,0-.09-.14,4.15,4.15,0,0,1-.7-.24,1.88,1.88,0,0,1-.6-.41,3,3,0,0,1-.68-.93,3.82,3.82,0,0,1-.27-1.62,5.62,5.62,0,0,1,.31-1.75,3.58,3.58,0,0,1,.91-1.49,1,1,0,0,1,.44-.23c.16,0,.25.09.27.37l0,.48a.69.69,0,0,0,.2.43,1.74,1.74,0,0,0,.34.28,2.05,2.05,0,0,0,.94.15h4.85a7,7,0,0,1,2,.22,2.67,2.67,0,0,1,1.18.68,2.52,2.52,0,0,1,.61,1.24,11.16,11.16,0,0,1,.21,2.48v2.3Zm12.56,0a4,4,0,0,1-.29,1.83,3.11,3.11,0,0,1-.93,1.32c-.18.13-.3.17-.38.1a.43.43,0,0,1-.12-.34V67.31a4.88,4.88,0,0,0-.11-1.21,1.4,1.4,0,0,0-.34-.69,1.53,1.53,0,0,0-.85-.4,6.28,6.28,0,0,0-1.32-.14h-3.62a4.65,4.65,0,0,1-1-.12,1.9,1.9,0,0,1-1-.53,2.61,2.61,0,0,1-.64-1,4.75,4.75,0,0,1-.24-1.68,5.35,5.35,0,0,1,.31-1.75,3.58,3.58,0,0,1,.91-1.49,1,1,0,0,1,.44-.23c.16,0,.25.09.27.37l0,.48a.65.65,0,0,0,.2.43,1.74,1.74,0,0,0,.34.28,2.08,2.08,0,0,0,.95.15h3a4.64,4.64,0,0,1,3.29.9,2.61,2.61,0,0,1,.58,1.24,11.16,11.16,0,0,1,.21,2.48v2.3Zm8.23-.06a4.22,4.22,0,0,1-.41,2.07,3.2,3.2,0,0,1-1.36,1.25c-.12.06-.21.06-.27,0a.23.23,0,0,1-.06-.22c.06-.32.11-.64.16-1a7,7,0,0,0,.07-1V66.69a4,4,0,0,0-.17-1.41.57.57,0,0,0-.51-.37h-1.9a1.58,1.58,0,0,1-1-.26,2.19,2.19,0,0,1-.59-.66,2.38,2.38,0,0,1-.36-.93,5.86,5.86,0,0,1-.12-1.24A5.42,5.42,0,0,1,239,61a4.76,4.76,0,0,1,.23-.9,6.27,6.27,0,0,1,.35-.83,2.81,2.81,0,0,1,.48-.66.93.93,0,0,1,.63-.31c.19,0,.27.21.23.59a1,1,0,0,0,.11.64.65.65,0,0,0,.63.3h1.55a2.12,2.12,0,0,1,1.85.84,2.18,2.18,0,0,1,.26.62,2.82,2.82,0,0,1,.08.69,9.7,9.7,0,0,1-.08,1.33l-.15,1.11c0,.27-.07.63-.1,1.08a8.37,8.37,0,0,0,0,1.11L245,68c0,.15,0,.42.05.81s.08.79.12,1.22.07.82.1,1.18S245.35,71.8,245.35,71.9Zm15.33,0a4,4,0,0,1-.14,1,3.42,3.42,0,0,1-.37.94,2.65,2.65,0,0,1-.63.81,7.42,7.42,0,0,1-.74.5.94.94,0,0,1-.52.14c-.13,0-.19-.09-.19-.2a1.73,1.73,0,0,0-.07-.47,2.61,2.61,0,0,0-.26-.58,6.16,6.16,0,0,0-.82-1c-.36-.39-.65-.7-.87-.92l-5.47-5.2c-.15-.12-.26-.17-.35-.13a.65.65,0,0,0-.19.1.92.92,0,0,0-.3.51,3.49,3.49,0,0,0,0,.44,1.49,1.49,0,0,0,.37.83,7.5,7.5,0,0,0,.85.93,2.84,2.84,0,0,1,.35.32,3,3,0,0,0,.43.39,3,3,0,0,1,.82,1.07,3.41,3.41,0,0,1,.24,1.34,2.87,2.87,0,0,1-.49,1.74,1.74,1.74,0,0,1-1.5.67h-3.24a.45.45,0,0,1-.33-.12.51.51,0,0,1-.15-.28.43.43,0,0,1,.08-.31.7.7,0,0,1,.35-.25c.53-.19.82-.46.88-.8a.77.77,0,0,0,0-.36c0-.14-.08-.24-.11-.32a8.84,8.84,0,0,1-.61-1.25,3.35,3.35,0,0,1-.22-1.25,5.19,5.19,0,0,1,.27-1.62,3.63,3.63,0,0,1,.76-1.33,5.73,5.73,0,0,1,1.25-1l-1.06-.9a7.68,7.68,0,0,1-.71-.7,2.59,2.59,0,0,1-.51-.81,2.14,2.14,0,0,1-.19-.64,6.73,6.73,0,0,1,0-.69,3.49,3.49,0,0,1,.21-1.25,4.39,4.39,0,0,1,.52-1,4.13,4.13,0,0,1,.66-.71,2.61,2.61,0,0,1,.6-.39A1,1,0,0,1,250,59c.18.09.22.27.12.53a1.06,1.06,0,0,0,.06.68,2.59,2.59,0,0,0,.83,1l4.9,4.37c.1.1.18.14.24.11a.56.56,0,0,0,.21-.22l.35-.5a3.91,3.91,0,0,0,.25-.4c.08-.16,0-.24-.18-.26l-.3,0a1.89,1.89,0,0,1-1-.5,2.08,2.08,0,0,1-.66-1.06,3.35,3.35,0,0,1-.07-1.07,7.88,7.88,0,0,1,.16-1.13,6.62,6.62,0,0,1,.32-1,3,3,0,0,1,.37-.68q.44-.54.69-.45c.17.06.24.21.2.45a.66.66,0,0,0,.08.6.76.76,0,0,0,.49.2l1.42.06a2,2,0,0,1,1,.31A1.42,1.42,0,0,1,260,61a5.83,5.83,0,0,1,.09.69c0,.26,0,.49,0,.7s0,.26,0,.45-.05.39-.09.62a3.9,3.9,0,0,1-.18.67,2.13,2.13,0,0,1-.33.59.15.15,0,0,1-.23,0,.66.66,0,0,0-.25-.13l-.23-.08a.88.88,0,0,0-.28,0h-.34a.41.41,0,0,0-.36.19c-.08.13-.16.24-.24.35l-.53.83a.55.55,0,0,0-.12.31v.2a.9.9,0,0,0,0,.28,1.13,1.13,0,0,0,.28.37l1.7,1.57A8.17,8.17,0,0,1,260.18,70,3.25,3.25,0,0,1,260.68,71.87Zm14.15-9.34c0,.22,0,.43,0,.65a2.62,2.62,0,0,1-.15.66,3,3,0,0,1-.77,1.07.85.85,0,0,0-.25.58,4.31,4.31,0,0,0,0,.88l.4,2.46a6.48,6.48,0,0,0,.11.75c.06.28.11.56.16.86s.1.58.14.84a4.84,4.84,0,0,1,.07.65,3.28,3.28,0,0,1-.51,1.86,5.08,5.08,0,0,1-1.67,1.43.27.27,0,0,1-.33,0q-.15-.15-.09-.24c.1-.28.2-.58.29-.91a3.61,3.61,0,0,0,.1-1L272,67.61a2.62,2.62,0,0,1,.06-1,3.09,3.09,0,0,1,.34-.84c0-.08.08-.14.11-.19a3,3,0,0,1,.2-.32.45.45,0,0,0,.06-.21c0-.07-.08-.11-.22-.11h-7.36a4.06,4.06,0,0,1-1-.13,2.15,2.15,0,0,1-1-.56,2.61,2.61,0,0,1-.64-1,4.75,4.75,0,0,1-.24-1.68,5.35,5.35,0,0,1,.31-1.75,3.58,3.58,0,0,1,.91-1.49,1,1,0,0,1,.44-.23c.16,0,.25.09.27.37l0,.48a.69.69,0,0,0,.19.43,2.1,2.1,0,0,0,.34.28,2.15,2.15,0,0,0,1,.15h6.36a6.28,6.28,0,0,1,1.1.09,1.91,1.91,0,0,1,.92.48,1.61,1.61,0,0,1,.49.82,4.85,4.85,0,0,1,.13,1.27Zm-9.75,9.22a4.49,4.49,0,0,1-.21,1.93,3.13,3.13,0,0,1-1.51,1.54.35.35,0,0,1-.29,0c-.08,0-.13-.12-.13-.28V70.2a3.07,3.07,0,0,1,.24-1.18,3,3,0,0,1,.62-1,1.69,1.69,0,0,1,.49-.4,2.85,2.85,0,0,1,.47-.2c.13,0,.23,0,.27,0a.3.3,0,0,1,0,.28,1.05,1.05,0,0,0-.15.57,3.53,3.53,0,0,0,0,.92Zm30.73.21a4.11,4.11,0,0,1-.3,1.83,3,3,0,0,1-.92,1.32c-.18.13-.31.17-.39.1a.43.43,0,0,1-.12-.34V68.59a16.65,16.65,0,0,0-.1-2,2,2,0,0,0-.35-1.09,1.88,1.88,0,0,0-.63-.45,3.87,3.87,0,0,0-1.42-.18h-3.77a2.09,2.09,0,0,0-.61.07,1.21,1.21,0,0,0-.55.38,2.82,2.82,0,0,0-.49,1,3.94,3.94,0,0,0-.23,1.22,4.58,4.58,0,0,0,.26,1.44,7.63,7.63,0,0,0,.6,1.35l.08.13a.93.93,0,0,1,.08.2.86.86,0,0,1,0,.45l-.65,4h-4.71l.74-4.74h2a8.39,8.39,0,0,1-.07-.84c0-.27,0-.56,0-.87a5.6,5.6,0,0,1,.1-1,8,8,0,0,1,.25-1,4.8,4.8,0,0,1,.42-.92,3.08,3.08,0,0,1,.57-.73.24.24,0,0,0,.09-.17.12.12,0,0,0-.09-.14,3.87,3.87,0,0,1-.7-.24,2,2,0,0,1-.61-.41,3.08,3.08,0,0,1-.67-.93,3.82,3.82,0,0,1-.27-1.62,5.35,5.35,0,0,1,.31-1.75,3.58,3.58,0,0,1,.91-1.49,1,1,0,0,1,.44-.23c.16,0,.25.09.27.37l0,.48a.65.65,0,0,0,.2.43,1.74,1.74,0,0,0,.34.28,2.05,2.05,0,0,0,.94.15h4.85a7.09,7.09,0,0,1,2,.22,2.67,2.67,0,0,1,1.18.68,2.52,2.52,0,0,1,.6,1.24,11.16,11.16,0,0,1,.21,2.48v2.3ZM304,71.9a4.34,4.34,0,0,1-.41,2.07,3.26,3.26,0,0,1-1.36,1.25c-.13.06-.22.06-.28,0a.23.23,0,0,1-.06-.22c.06-.32.12-.64.16-1a7,7,0,0,0,.08-1V66.69a3.7,3.7,0,0,0-.18-1.41.55.55,0,0,0-.51-.37h-1.9a1.62,1.62,0,0,1-.95-.26A2.33,2.33,0,0,1,298,64a2.74,2.74,0,0,1-.36-.93,5.86,5.86,0,0,1-.12-1.24,5.5,5.5,0,0,1,.08-.86,4.73,4.73,0,0,1,.22-.9,5.19,5.19,0,0,1,.36-.83,2.34,2.34,0,0,1,.48-.66.93.93,0,0,1,.63-.31c.19,0,.26.21.22.59a1,1,0,0,0,.11.64.65.65,0,0,0,.63.3h1.56a2.11,2.11,0,0,1,1.84.84,1.93,1.93,0,0,1,.26.62,2.84,2.84,0,0,1,.09.69,9.69,9.69,0,0,1-.09,1.33c-.06.44-.1.81-.14,1.11a10.59,10.59,0,0,0-.1,1.08,8.63,8.63,0,0,0,0,1.11l0,1.44q0,.22.06.81c0,.39.08.79.11,1.22s.08.82.11,1.18S304,71.8,304,71.9Zm12.65-7c0,.42,0,.78,0,1.07a4.7,4.7,0,0,1-.08.8,3.2,3.2,0,0,1-.23.68,5.56,5.56,0,0,1-.41.72,4.2,4.2,0,0,1-.83.87l-1.1.86-1.3,1a4.08,4.08,0,0,0-.61.63,1.74,1.74,0,0,0-.36.68,1.41,1.41,0,0,0,.23,1,1.29,1.29,0,0,1,.22.66,1.49,1.49,0,0,1-.06.43,1.85,1.85,0,0,1-.24.42,2.91,2.91,0,0,1-.43.43,1.09,1.09,0,0,1-.65.17,1.29,1.29,0,0,1-.66-.15,1.54,1.54,0,0,1-.48-.42,1.74,1.74,0,0,1-.32-.48,1.52,1.52,0,0,1-.11-.63,2.71,2.71,0,0,1,.24-1.11,2.58,2.58,0,0,1,.48-.67,7.16,7.16,0,0,1,.56-.55l2.89-2.47a2.73,2.73,0,0,0,.89-1.09,3,3,0,0,0,.17-1,2.07,2.07,0,0,0-.43-1.47,1.82,1.82,0,0,0-1.38-.45h-5.26a2,2,0,0,1-.62-.1.94.94,0,0,1-.45-.28,1.76,1.76,0,0,1-.28-.41,2.43,2.43,0,0,1-.18-.54,4.14,4.14,0,0,1-.1-.8c0-.32,0-.74,0-1.25a10,10,0,0,1,.2-2.13,6.77,6.77,0,0,1,.4-1.33c.07-.17.17-.38.28-.62a3.26,3.26,0,0,1,.31-.55q.21-.31-.06-.45l-.26-.12a1.53,1.53,0,0,1-.78-.62,1.62,1.62,0,0,1-.19-.45,3,3,0,0,1-.05-.6,1.37,1.37,0,0,1,.12-.55,4.07,4.07,0,0,1,.28-.55,5,5,0,0,1,.35-.48,1,1,0,0,1,.33-.29c.17-.12.29-.08.35.11s.06.2.07.24.08.11.2.18l.86.51a1.64,1.64,0,0,1,.52.49,1,1,0,0,1,.19.54v.09a1.39,1.39,0,0,1-.16.65,7.74,7.74,0,0,1-.55.87,3.48,3.48,0,0,0-.31.52,5.23,5.23,0,0,0-.29.62,2.58,2.58,0,0,0-.11.6c0,.25,0,.45,0,.62a1.21,1.21,0,0,0,.2.67.84.84,0,0,0,.79.33h5.43a2.65,2.65,0,0,1,2.25.79,4.31,4.31,0,0,1,.58,2.49Zm7.9-1.13a12.46,12.46,0,0,1-.16,1.93,4.76,4.76,0,0,1-.82,1.9,5.29,5.29,0,0,1-.77.93q-.45.4-.87.72a1.8,1.8,0,0,1-.34.21.72.72,0,0,1-.31.11.26.26,0,0,1-.18-.09l-.14-.15-.19-.24a.34.34,0,0,1,0-.24.64.64,0,0,1,.08-.14l.11-.13c.23-.18.42-.31.56-.41a2.42,2.42,0,0,0,.44-.42,1.83,1.83,0,0,0,.42-.56,1.92,1.92,0,0,0,.18-.92,2.48,2.48,0,0,0-.09-.68,1.05,1.05,0,0,0-.26-.48.68.68,0,0,0-.29-.18,1.73,1.73,0,0,0-.36,0h-1.38a1.72,1.72,0,0,1-1-.26,2.05,2.05,0,0,1-.62-.66,2.38,2.38,0,0,1-.36-.93,5.86,5.86,0,0,1-.12-1.24,6.79,6.79,0,0,1,.06-.86,5.54,5.54,0,0,1,.19-.9,5.17,5.17,0,0,1,.35-.83,2.53,2.53,0,0,1,.47-.66,1,1,0,0,1,.64-.31c.18,0,.26.21.22.59a1,1,0,0,0,.11.64.65.65,0,0,0,.63.3h1.53a2.66,2.66,0,0,1,.9.15,2.28,2.28,0,0,1,.8.5,2.14,2.14,0,0,1,.4.76,4.15,4.15,0,0,1,.18,1.33Zm14.28-1.25c0,.22,0,.43,0,.65a2.6,2.6,0,0,1-.14.66,3.16,3.16,0,0,1-.77,1.07.85.85,0,0,0-.25.58,3.24,3.24,0,0,0,0,.88l.39,2.46a6.73,6.73,0,0,0,.12.75c.06.28.11.56.16.86s.09.58.14.84a4.58,4.58,0,0,1,.06.65,3.28,3.28,0,0,1-.51,1.86,4.88,4.88,0,0,1-1.67,1.43.26.26,0,0,1-.32,0c-.1-.1-.14-.18-.1-.24a7,7,0,0,0,.29-.91,3.6,3.6,0,0,0,.11-1L336,67.61a2.62,2.62,0,0,1,.06-1,2.8,2.8,0,0,1,.34-.84l.1-.19a3.81,3.81,0,0,1,.21-.32.43.43,0,0,0,.05-.21c0-.07-.07-.11-.21-.11h-7.36a4.13,4.13,0,0,1-1-.13,2.12,2.12,0,0,1-1-.56,2.63,2.63,0,0,1-.65-1,4.75,4.75,0,0,1-.24-1.68,5.37,5.37,0,0,1,.32-1.75,3.57,3.57,0,0,1,.9-1.49,1.07,1.07,0,0,1,.45-.23c.16,0,.25.09.27.37l0,.48a.69.69,0,0,0,.2.43,2.1,2.1,0,0,0,.34.28,2.15,2.15,0,0,0,1,.15h6.36a6.28,6.28,0,0,1,1.1.09,1.91,1.91,0,0,1,.92.48,1.68,1.68,0,0,1,.49.82,4.85,4.85,0,0,1,.13,1.27Zm-9.76,9.22a4.35,4.35,0,0,1-.21,1.93,3.06,3.06,0,0,1-1.5,1.54.35.35,0,0,1-.29,0c-.09,0-.13-.12-.13-.28V70.2a3.07,3.07,0,0,1,.24-1.18,3,3,0,0,1,.62-1,1.65,1.65,0,0,1,.48-.4,2.92,2.92,0,0,1,.48-.2c.13,0,.22,0,.27,0a.33.33,0,0,1,0,.28,1.05,1.05,0,0,0-.15.57,2.84,2.84,0,0,0,0,.92Zm23.73-4.28a4.09,4.09,0,0,1-.77,2.61,6,6,0,0,1-1.84,1.57l-2.1,1.13a3,3,0,0,0-1.13,1c-.23.35-.44.69-.63,1a1.28,1.28,0,0,1-.15.25.38.38,0,0,1-.3.12.58.58,0,0,1-.57-.3,1.68,1.68,0,0,1-.14-.75,2.26,2.26,0,0,1,.65-1.57,6.1,6.1,0,0,1,1.61-1.22L350,69.94a3.22,3.22,0,0,0,.72-.59,1.69,1.69,0,0,0,.35-1.2,11.93,11.93,0,0,0-.08-1.38,2,2,0,0,0-.54-1.14,2.28,2.28,0,0,0-1-.59,5,5,0,0,0-1.39-.17h-4.56a3.85,3.85,0,0,1-.9-.12,1.85,1.85,0,0,1-.92-.53,2.48,2.48,0,0,1-.63-1,5.06,5.06,0,0,1-.22-1.68,5.35,5.35,0,0,1,.31-1.75,3.67,3.67,0,0,1,.9-1.49,1.07,1.07,0,0,1,.45-.23c.16,0,.25.09.27.37l0,.48a.64.64,0,0,0,.19.43,2.1,2.1,0,0,0,.34.28,2.15,2.15,0,0,0,1,.15H349a5.69,5.69,0,0,1,1.49.19,2.86,2.86,0,0,1,1,.43,4.62,4.62,0,0,1,.55.53,2.66,2.66,0,0,1,.43.73,4.51,4.51,0,0,1,.27,1.11,15.21,15.21,0,0,1,.08,1.66ZM343.87,76a4.18,4.18,0,0,1-.24,1.41,3.09,3.09,0,0,1-.75,1.19,1.94,1.94,0,0,1-.41.32,1,1,0,0,1-.56.15c-.26,0-.34-.17-.25-.5a5.68,5.68,0,0,0,.18-.8,7.3,7.3,0,0,0,0-1.2l-.06-2.44q0-1-.09-2.13c-.05-.76-.07-1.51-.07-2.27a4.18,4.18,0,0,1,.11-.91,7.14,7.14,0,0,1,.28-.93,4.27,4.27,0,0,1,.4-.77,2.35,2.35,0,0,1,.43-.48.39.39,0,0,1,.48,0,.34.34,0,0,1,.13.24.57.57,0,0,1,0,.29c0,.19-.09.44-.16.75a4,4,0,0,0-.1.87V70a10.66,10.66,0,0,0,.11,1.44l.37,2.5c0,.3.08.65.13,1.06S343.87,75.72,343.87,76Zm23.44-13.46c0,.22,0,.43,0,.65a3.11,3.11,0,0,1-.14.66,3.16,3.16,0,0,1-.77,1.07.85.85,0,0,0-.25.58,3.24,3.24,0,0,0,0,.88l.39,2.46a6.73,6.73,0,0,0,.12.75c.06.28.11.56.16.86s.09.58.14.84a4.58,4.58,0,0,1,.06.65,3.28,3.28,0,0,1-.51,1.86,5,5,0,0,1-1.67,1.43.26.26,0,0,1-.32,0c-.1-.1-.14-.18-.1-.24a7,7,0,0,0,.29-.91,3.29,3.29,0,0,0,.1-1l-.29-5.36a2.84,2.84,0,0,1,.07-1,2.8,2.8,0,0,1,.34-.84l.1-.19a3.81,3.81,0,0,1,.21-.32.58.58,0,0,0,.05-.21c0-.07-.07-.11-.21-.11h-7.37a4.12,4.12,0,0,1-1-.13,2.12,2.12,0,0,1-1-.56,2.63,2.63,0,0,1-.65-1,4.75,4.75,0,0,1-.24-1.68,5.37,5.37,0,0,1,.32-1.75,3.57,3.57,0,0,1,.9-1.49,1.07,1.07,0,0,1,.45-.23c.16,0,.25.09.26.37l0,.48a.69.69,0,0,0,.2.43,1.74,1.74,0,0,0,.34.28,2.13,2.13,0,0,0,1,.15h6.36a6.28,6.28,0,0,1,1.1.09,1.91,1.91,0,0,1,.92.48,1.68,1.68,0,0,1,.49.82,4.85,4.85,0,0,1,.13,1.27Zm-9.76,9.22a4.35,4.35,0,0,1-.21,1.93,3.1,3.1,0,0,1-1.5,1.54.35.35,0,0,1-.29,0c-.09,0-.13-.12-.13-.28V70.2a3.07,3.07,0,0,1,.24-1.18,2.8,2.8,0,0,1,.62-1,1.65,1.65,0,0,1,.48-.4,3.26,3.26,0,0,1,.47-.2c.14,0,.23,0,.28,0a.33.33,0,0,1,0,.28,1.05,1.05,0,0,0-.15.57,2.84,2.84,0,0,0,0,.92Zm17.84.15A4.21,4.21,0,0,1,375,74a3.17,3.17,0,0,1-1.35,1.25c-.13.06-.22.06-.28,0a.23.23,0,0,1-.06-.22c.06-.32.11-.64.16-1a7,7,0,0,0,.08-1V66.69a3.7,3.7,0,0,0-.18-1.41.55.55,0,0,0-.51-.37h-1.9a1.6,1.6,0,0,1-.95-.26,2.33,2.33,0,0,1-.59-.66,2.74,2.74,0,0,1-.36-.93,5.86,5.86,0,0,1-.12-1.24A5.5,5.5,0,0,1,369,61a4.73,4.73,0,0,1,.22-.9,5.19,5.19,0,0,1,.36-.83,2.34,2.34,0,0,1,.48-.66.93.93,0,0,1,.63-.31c.19,0,.26.21.22.59a1,1,0,0,0,.11.64.65.65,0,0,0,.63.3h1.56a2.11,2.11,0,0,1,1.84.84,1.93,1.93,0,0,1,.26.62,2.84,2.84,0,0,1,.09.69,9.69,9.69,0,0,1-.09,1.33c-.06.44-.11.81-.14,1.11s-.08.63-.11,1.08a10.53,10.53,0,0,0,0,1.11l0,1.44q0,.22.06.81c0,.39.07.79.11,1.22s.08.82.1,1.18S375.39,71.8,375.39,71.9Z" transform="translate(-10.7 -12.28)"/><path class="cls-3" d="M123.94,101.64l-3.6-16.73h3.12l2.27,11.49,2.75-11.49h3.61l2.64,11.68L137,84.91h3.06l-3.66,16.73h-3.22l-3-12.51-3,12.51Z" transform="translate(-10.7 -12.28)"/><path class="cls-3" d="M140.37,95.41a7.2,7.2,0,0,1,.71-3.1,5.21,5.21,0,0,1,2-2.28,5.5,5.5,0,0,1,2.9-.78A5.15,5.15,0,0,1,150,91a6.54,6.54,0,0,1,1.59,4.51,6.64,6.64,0,0,1-1.6,4.56,5.11,5.11,0,0,1-4,1.81,5.85,5.85,0,0,1-2.86-.75A4.93,4.93,0,0,1,141.08,99,8.06,8.06,0,0,1,140.37,95.41Zm3,.17a4.34,4.34,0,0,0,.77,2.76,2.35,2.35,0,0,0,3.79,0,4.39,4.39,0,0,0,.77-2.79,4.29,4.29,0,0,0-.77-2.73,2.35,2.35,0,0,0-3.79,0A4.34,4.34,0,0,0,143.33,95.58Z" transform="translate(-10.7 -12.28)"/><path class="cls-3" d="M156.46,101.64h-2.89V89.52h2.68v1.72a5.09,5.09,0,0,1,1.24-1.61,2.17,2.17,0,0,1,1.25-.38,3.43,3.43,0,0,1,1.9.6l-.9,2.8a2.34,2.34,0,0,0-1.35-.53,1.48,1.48,0,0,0-1,.37,2.65,2.65,0,0,0-.66,1.34,21.24,21.24,0,0,0-.24,4.06Z" transform="translate(-10.7 -12.28)"/><path class="cls-3" d="M161.67,101.64V84.91h2.88v16.73Z" transform="translate(-10.7 -12.28)"/><path class="cls-3" d="M177.32,101.64h-2.68V99.86a4.51,4.51,0,0,1-1.57,1.54,3.74,3.74,0,0,1-1.84.51,4,4,0,0,1-3.22-1.68,7.4,7.4,0,0,1-1.34-4.7A7.27,7.27,0,0,1,168,90.85a4.07,4.07,0,0,1,3.29-1.6,4,4,0,0,1,3.17,1.68v-6h2.88Zm-7.7-6.33a6.11,6.11,0,0,0,.48,2.81,2.16,2.16,0,0,0,2,1.26,2.08,2.08,0,0,0,1.69-.94,4.76,4.76,0,0,0,.7-2.82,5.15,5.15,0,0,0-.68-3,2.09,2.09,0,0,0-3.46,0A4.4,4.4,0,0,0,169.62,95.31Z" transform="translate(-10.7 -12.28)"/><path class="cls-3" d="M184.87,93.38a11.84,11.84,0,0,1,.68-4.29,8,8,0,0,1,1.41-2.3,5.88,5.88,0,0,1,1.94-1.5,7.58,7.58,0,0,1,3.25-.66,6.7,6.7,0,0,1,5.32,2.29,9.4,9.4,0,0,1,2,6.38,9.34,9.34,0,0,1-2,6.33,7.34,7.34,0,0,1-10.64,0A9.2,9.2,0,0,1,184.87,93.38Zm3.13-.12a6.73,6.73,0,0,0,1.18,4.31,3.8,3.8,0,0,0,6,0,6.85,6.85,0,0,0,1.17-4.36,6.74,6.74,0,0,0-1.14-4.29,3.91,3.91,0,0,0-6,0A6.81,6.81,0,0,0,188,93.26Z" transform="translate(-10.7 -12.28)"/><path class="cls-3" d="M204.39,101.64h-2.88V89.52h2.68v1.72a5.09,5.09,0,0,1,1.23-1.61,2.17,2.17,0,0,1,1.25-.38,3.41,3.41,0,0,1,1.9.6l-.89,2.8a2.4,2.4,0,0,0-1.36-.53,1.52,1.52,0,0,0-1,.37,2.65,2.65,0,0,0-.66,1.34,21.24,21.24,0,0,0-.24,4.06Z" transform="translate(-10.7 -12.28)"/><path class="cls-3" d="M209.33,102.43l3.3.45a1.34,1.34,0,0,0,.38.88,2,2,0,0,0,1.29.34,3.1,3.1,0,0,0,1.7-.38,1.49,1.49,0,0,0,.57-.81,5.2,5.2,0,0,0,.14-1.47V99.67a3.83,3.83,0,0,1-3.27,2A3.94,3.94,0,0,1,210,99.57a7.62,7.62,0,0,1-1-4.06,7.21,7.21,0,0,1,1.32-4.66,4.09,4.09,0,0,1,3.28-1.6,3.88,3.88,0,0,1,3.34,2v-1.7h2.7v10.87a11.69,11.69,0,0,1-.32,3.21,4,4,0,0,1-.89,1.66,3.77,3.77,0,0,1-1.53.95,7.29,7.29,0,0,1-2.43.34,5.87,5.87,0,0,1-3.94-1,3.49,3.49,0,0,1-1.16-2.68C209.32,102.72,209.33,102.59,209.33,102.43Zm2.58-7.1a4.8,4.8,0,0,0,.67,2.82,2,2,0,0,0,1.66.9,2.22,2.22,0,0,0,1.79-.92,4.28,4.28,0,0,0,.73-2.72,4.56,4.56,0,0,0-.7-2.8,2.13,2.13,0,0,0-1.77-.91,2.07,2.07,0,0,0-1.71.89A4.62,4.62,0,0,0,211.91,95.33Z" transform="translate(-10.7 -12.28)"/><path class="cls-3" d="M224.41,93.22l-2.62-.53a4.67,4.67,0,0,1,1.52-2.6,5.17,5.17,0,0,1,3.21-.84,6.42,6.42,0,0,1,2.87.5A3,3,0,0,1,230.72,91a7.2,7.2,0,0,1,.39,2.87l0,3.74a13.6,13.6,0,0,0,.14,2.36,7.38,7.38,0,0,0,.51,1.63h-2.85c-.08-.22-.17-.53-.28-1,0-.19-.08-.32-.1-.38a5.3,5.3,0,0,1-1.58,1.2,4.09,4.09,0,0,1-1.8.4,3.47,3.47,0,0,1-2.65-1,3.53,3.53,0,0,1-1-2.56,3.65,3.65,0,0,1,.44-1.83,3,3,0,0,1,1.24-1.24,9,9,0,0,1,2.29-.74,15.25,15.25,0,0,0,2.8-.79v-.32a1.74,1.74,0,0,0-.41-1.32,2.28,2.28,0,0,0-1.55-.39,1.88,1.88,0,0,0-1.2.34A2.31,2.31,0,0,0,224.41,93.22Zm3.86,2.6c-.37.13-1,.3-1.75.49a4.69,4.69,0,0,0-1.57.56,1.36,1.36,0,0,0-.57,1.13,1.68,1.68,0,0,0,.45,1.16,1.51,1.51,0,0,0,1.15.49,2.34,2.34,0,0,0,1.49-.57,2,2,0,0,0,.69-1.06,6.83,6.83,0,0,0,.11-1.56Z" transform="translate(-10.7 -12.28)"/><path class="cls-3" d="M243.66,101.64h-2.89V95.45a10.9,10.9,0,0,0-.18-2.54A1.73,1.73,0,0,0,240,92a1.62,1.62,0,0,0-1-.32,2.19,2.19,0,0,0-1.35.45,2.31,2.31,0,0,0-.81,1.21,11.51,11.51,0,0,0-.22,2.79v5.49h-2.89V89.52h2.68V91.3a4.24,4.24,0,0,1,3.59-2,3.9,3.9,0,0,1,1.75.38,3,3,0,0,1,1.2,1A3.86,3.86,0,0,1,243.5,92a10.78,10.78,0,0,1,.16,2.16Z" transform="translate(-10.7 -12.28)"/><path class="cls-3" d="M246.4,87.88v-3h2.88v3Zm0,13.76V89.52h2.88v12.12Z" transform="translate(-10.7 -12.28)"/><path class="cls-3" d="M250.89,101.64v-2.5L255,93.92c.67-.85,1.16-1.45,1.48-1.81-.33,0-.77,0-1.32,0l-3.85,0V89.52h9v2.27l-4.16,5.34-1.47,1.77c.8-.06,1.3-.08,1.49-.08h4.46v2.82Z" transform="translate(-10.7 -12.28)"/><path class="cls-3" d="M264.51,93.22l-2.62-.53a4.61,4.61,0,0,1,1.52-2.6,5.16,5.16,0,0,1,3.2-.84,6.44,6.44,0,0,1,2.88.5A3,3,0,0,1,270.82,91a7.24,7.24,0,0,1,.38,2.87l0,3.74a14.7,14.7,0,0,0,.14,2.36,7.45,7.45,0,0,0,.52,1.63H269c-.08-.22-.17-.53-.28-1-.05-.19-.08-.32-.1-.38a5.43,5.43,0,0,1-1.58,1.2,4.15,4.15,0,0,1-1.8.4,3.51,3.51,0,0,1-2.66-1,3.57,3.57,0,0,1-1-2.56A3.65,3.65,0,0,1,262,96.5a3,3,0,0,1,1.23-1.24,9.12,9.12,0,0,1,2.3-.74,15.25,15.25,0,0,0,2.8-.79v-.32a1.78,1.78,0,0,0-.41-1.32,2.28,2.28,0,0,0-1.55-.39,1.88,1.88,0,0,0-1.2.34A2.31,2.31,0,0,0,264.51,93.22Zm3.86,2.6a17.89,17.89,0,0,1-1.76.49,4.78,4.78,0,0,0-1.57.56,1.38,1.38,0,0,0-.56,1.13,1.68,1.68,0,0,0,.45,1.16,1.49,1.49,0,0,0,1.15.49,2.34,2.34,0,0,0,1.49-.57,2,2,0,0,0,.69-1.06,7.48,7.48,0,0,0,.11-1.56Z" transform="translate(-10.7 -12.28)"/><path class="cls-3" d="M278.84,89.52v2.55h-2V97a16.27,16.27,0,0,0,.05,1.73.76.76,0,0,0,.26.4.74.74,0,0,0,.49.16,3.38,3.38,0,0,0,1.16-.31l.24,2.49a5.23,5.23,0,0,1-2.28.48,3.34,3.34,0,0,1-1.4-.29,2.09,2.09,0,0,1-.92-.76,3.11,3.11,0,0,1-.41-1.24,17.84,17.84,0,0,1-.09-2.26V92.07h-1.32V89.52H274V87.11l2.9-1.87v4.28Z" transform="translate(-10.7 -12.28)"/><path class="cls-3" d="M280.63,87.88v-3h2.89v3Zm0,13.76V89.52h2.89v12.12Z" transform="translate(-10.7 -12.28)"/><path class="cls-3" d="M285.62,95.41a7.19,7.19,0,0,1,.7-3.1,5.33,5.33,0,0,1,2-2.28,5.53,5.53,0,0,1,2.9-.78A5.19,5.19,0,0,1,295.29,91a7.26,7.26,0,0,1,0,9.07,5.11,5.11,0,0,1-4,1.81,5.85,5.85,0,0,1-2.86-.75A5,5,0,0,1,286.32,99,8.07,8.07,0,0,1,285.62,95.41Zm2.95.17a4.34,4.34,0,0,0,.77,2.76,2.36,2.36,0,0,0,3.8,0,4.4,4.4,0,0,0,.76-2.79,4.29,4.29,0,0,0-.76-2.73,2.36,2.36,0,0,0-3.8,0A4.34,4.34,0,0,0,288.57,95.58Z" transform="translate(-10.7 -12.28)"/><path class="cls-3" d="M308.86,101.64H306V95.45a10.9,10.9,0,0,0-.18-2.54,1.86,1.86,0,0,0-.6-.89,1.62,1.62,0,0,0-1-.32,2.19,2.19,0,0,0-1.35.45,2.33,2.33,0,0,0-.82,1.21,12.06,12.06,0,0,0-.22,2.79v5.49h-2.88V89.52h2.68V91.3a4.24,4.24,0,0,1,3.59-2,3.9,3.9,0,0,1,1.75.38,3,3,0,0,1,1.19,1A3.88,3.88,0,0,1,308.7,92a11.59,11.59,0,0,1,.16,2.16Z" transform="translate(-10.7 -12.28)"/><path class="cls-3" d="M316.39,95.41a7.2,7.2,0,0,1,.71-3.1,5.21,5.21,0,0,1,2-2.28,5.5,5.5,0,0,1,2.9-.78A5.15,5.15,0,0,1,326.06,91a6.53,6.53,0,0,1,1.58,4.51,6.63,6.63,0,0,1-1.59,4.56,5.14,5.14,0,0,1-4,1.81,5.82,5.82,0,0,1-2.86-.75A4.93,4.93,0,0,1,317.1,99,8.06,8.06,0,0,1,316.39,95.41Zm3,.17a4.28,4.28,0,0,0,.77,2.76,2.35,2.35,0,0,0,3.79,0,4.39,4.39,0,0,0,.77-2.79,4.29,4.29,0,0,0-.77-2.73,2.35,2.35,0,0,0-3.79,0A4.28,4.28,0,0,0,319.35,95.58Z" transform="translate(-10.7 -12.28)"/><path class="cls-3" d="M328.45,89.52h1.6v-.91a6.8,6.8,0,0,1,.29-2.28,2.47,2.47,0,0,1,1.08-1.23,3.78,3.78,0,0,1,2-.47,7.14,7.14,0,0,1,2.41.41l-.39,2.23a5.23,5.23,0,0,0-1.32-.18,1.13,1.13,0,0,0-.9.32,2.08,2.08,0,0,0-.27,1.25v.86h2.15V92h-2.15v9.6h-2.89V92h-1.6Z" transform="translate(-10.7 -12.28)"/><path class="cls-3" d="M341.39,93.38a11.61,11.61,0,0,1,.69-4.29,7.93,7.93,0,0,1,1.4-2.3,5.91,5.91,0,0,1,1.95-1.5,7.56,7.56,0,0,1,3.24-.66A6.71,6.71,0,0,1,354,86.92a9.4,9.4,0,0,1,2,6.38,9.34,9.34,0,0,1-2,6.33,6.63,6.63,0,0,1-5.3,2.29,6.71,6.71,0,0,1-5.33-2.28A9.15,9.15,0,0,1,341.39,93.38Zm3.14-.12a6.73,6.73,0,0,0,1.18,4.31,3.8,3.8,0,0,0,6,0,6.92,6.92,0,0,0,1.16-4.36,6.81,6.81,0,0,0-1.13-4.29,3.91,3.91,0,0,0-6,0A6.81,6.81,0,0,0,344.53,93.26Z" transform="translate(-10.7 -12.28)"/><path class="cls-3" d="M360.92,101.64H358V89.52h2.68v1.72A5.09,5.09,0,0,1,362,89.63a2.17,2.17,0,0,1,1.25-.38,3.41,3.41,0,0,1,1.9.6l-.9,2.8a2.34,2.34,0,0,0-1.35-.53,1.48,1.48,0,0,0-1,.37,2.65,2.65,0,0,0-.66,1.34,21.24,21.24,0,0,0-.24,4.06Z" transform="translate(-10.7 -12.28)"/><path class="cls-3" d="M371.13,89.52v2.55h-2V97a16.27,16.27,0,0,0,0,1.73.76.76,0,0,0,.26.4.74.74,0,0,0,.49.16,3.33,3.33,0,0,0,1.16-.31l.25,2.49a5.26,5.26,0,0,1-2.28.48,3.38,3.38,0,0,1-1.41-.29,2.14,2.14,0,0,1-.92-.76,3.12,3.12,0,0,1-.4-1.24,15.56,15.56,0,0,1-.1-2.26V92.07h-1.32V89.52h1.32V87.11l2.9-1.87v4.28Z" transform="translate(-10.7 -12.28)"/><path class="cls-3" d="M375.8,84.91v6.15a4.1,4.1,0,0,1,3.33-1.81,3.79,3.79,0,0,1,1.8.41,3,3,0,0,1,1.21,1,4,4,0,0,1,.55,1.41,14,14,0,0,1,.15,2.41v7.11H380V95.23a10.52,10.52,0,0,0-.16-2.41,1.53,1.53,0,0,0-.58-.82,1.73,1.73,0,0,0-1-.3,2.23,2.23,0,0,0-1.29.39,2.19,2.19,0,0,0-.82,1.17,7.54,7.54,0,0,0-.26,2.31v6.07h-2.89V84.91Z" transform="translate(-10.7 -12.28)"/><path class="cls-3" d="M384.91,95.41a7.2,7.2,0,0,1,.71-3.1,5.21,5.21,0,0,1,2-2.28,5.5,5.5,0,0,1,2.9-.78A5.15,5.15,0,0,1,394.58,91a6.53,6.53,0,0,1,1.58,4.51,6.63,6.63,0,0,1-1.59,4.56,5.14,5.14,0,0,1-4,1.81,5.82,5.82,0,0,1-2.86-.75A4.93,4.93,0,0,1,385.62,99,8.06,8.06,0,0,1,384.91,95.41Zm3,.17a4.28,4.28,0,0,0,.77,2.76,2.35,2.35,0,0,0,3.79,0,4.39,4.39,0,0,0,.77-2.79,4.29,4.29,0,0,0-.77-2.73,2.35,2.35,0,0,0-3.79,0A4.28,4.28,0,0,0,387.87,95.58Z" transform="translate(-10.7 -12.28)"/><path class="cls-3" d="M408.23,101.64h-2.68V99.86A4.51,4.51,0,0,1,404,101.4a3.74,3.74,0,0,1-1.84.51,4,4,0,0,1-3.21-1.68,7.34,7.34,0,0,1-1.34-4.7,7.27,7.27,0,0,1,1.3-4.68,4.07,4.07,0,0,1,3.3-1.6,4,4,0,0,1,3.16,1.68v-6h2.88Zm-7.7-6.33a6,6,0,0,0,.49,2.81,2.14,2.14,0,0,0,2,1.26,2.08,2.08,0,0,0,1.69-.94,4.69,4.69,0,0,0,.7-2.82,5.15,5.15,0,0,0-.68-3,2.08,2.08,0,0,0-3.45,0A4.33,4.33,0,0,0,400.53,95.31Z" transform="translate(-10.7 -12.28)"/><path class="cls-3" d="M410.22,95.41a7.2,7.2,0,0,1,.71-3.1,5.21,5.21,0,0,1,2-2.28,5.5,5.5,0,0,1,2.9-.78A5.15,5.15,0,0,1,419.89,91a6.53,6.53,0,0,1,1.58,4.51,6.63,6.63,0,0,1-1.59,4.56,5.14,5.14,0,0,1-4,1.81,5.82,5.82,0,0,1-2.86-.75A4.93,4.93,0,0,1,410.93,99,8.06,8.06,0,0,1,410.22,95.41Zm3,.17a4.28,4.28,0,0,0,.77,2.76,2.35,2.35,0,0,0,3.79,0,4.39,4.39,0,0,0,.77-2.79,4.29,4.29,0,0,0-.77-2.73,2.35,2.35,0,0,0-3.79,0A4.28,4.28,0,0,0,413.18,95.58Z" transform="translate(-10.7 -12.28)"/><path class="cls-3" d="M422.16,101.64l3.93-6.24-3.77-5.88h3.52l1.93,3.33,2-3.33h3.38l-3.69,5.74,4,6.38H430l-2.22-3.76-2.24,3.76Z" transform="translate(-10.7 -12.28)"/><path class="cls-3" d="M131.43,122l2.95,1a7.46,7.46,0,0,1-2.25,4.06,6,6,0,0,1-4,1.33,6.2,6.2,0,0,1-4.93-2.27,9.31,9.31,0,0,1-1.93-6.23,9.81,9.81,0,0,1,1.94-6.48,6.33,6.33,0,0,1,5.1-2.31A5.91,5.91,0,0,1,132.8,113a6.86,6.86,0,0,1,1.54,3.08l-3,.8a3.64,3.64,0,0,0-1.11-2,3,3,0,0,0-2.06-.75,3.29,3.29,0,0,0-2.72,1.33,7.11,7.11,0,0,0-1,4.32c0,2.12.34,3.62,1,4.52a3.19,3.19,0,0,0,2.67,1.35,2.88,2.88,0,0,0,2.08-.86A5.16,5.16,0,0,0,131.43,122Z" transform="translate(-10.7 -12.28)"/><path class="cls-3" d="M136.09,122a7.13,7.13,0,0,1,.71-3.09,5.1,5.1,0,0,1,2-2.28,5.42,5.42,0,0,1,2.9-.79,5.15,5.15,0,0,1,4,1.78,6.54,6.54,0,0,1,1.58,4.52,6.63,6.63,0,0,1-1.59,4.55,5.14,5.14,0,0,1-4,1.81,5.82,5.82,0,0,1-2.86-.75,4.88,4.88,0,0,1-2.07-2.21A8.06,8.06,0,0,1,136.09,122Zm3,.17a4.28,4.28,0,0,0,.77,2.76,2.35,2.35,0,0,0,3.79,0,4.38,4.38,0,0,0,.77-2.78,4.3,4.3,0,0,0-.77-2.74,2.35,2.35,0,0,0-3.79,0A4.28,4.28,0,0,0,139.05,122.12Z" transform="translate(-10.7 -12.28)"/><path class="cls-3" d="M149.2,116.06h2.66v1.66a4.14,4.14,0,0,1,3.4-1.93,3.35,3.35,0,0,1,1.81.48,3.5,3.5,0,0,1,1.27,1.45,5,5,0,0,1,1.55-1.45,3.46,3.46,0,0,1,1.77-.48,3.69,3.69,0,0,1,2,.54,3.29,3.29,0,0,1,1.24,1.59,7.6,7.6,0,0,1,.3,2.51v7.75h-2.89v-6.93a5.59,5.59,0,0,0-.3-2.32,1.31,1.31,0,0,0-1.23-.69,1.88,1.88,0,0,0-1.14.41,2.31,2.31,0,0,0-.77,1.21,9.35,9.35,0,0,0-.24,2.5v5.82h-2.88v-6.64a10.43,10.43,0,0,0-.15-2.28,1.55,1.55,0,0,0-.48-.77,1.46,1.46,0,0,0-.88-.25,1.91,1.91,0,0,0-1.2.4,2.22,2.22,0,0,0-.77,1.15,9.74,9.74,0,0,0-.23,2.5v5.89H149.2Z" transform="translate(-10.7 -12.28)"/><path class="cls-3" d="M167.68,116.06h2.66v1.66a4.15,4.15,0,0,1,3.4-1.93,3.36,3.36,0,0,1,1.82.48,3.55,3.55,0,0,1,1.26,1.45,5.23,5.23,0,0,1,1.55-1.45,3.52,3.52,0,0,1,1.78-.48,3.64,3.64,0,0,1,2,.54,3.17,3.17,0,0,1,1.24,1.59,7.6,7.6,0,0,1,.3,2.51v7.75h-2.88v-6.93a5.59,5.59,0,0,0-.3-2.32,1.33,1.33,0,0,0-1.23-.69,1.83,1.83,0,0,0-1.14.41,2.25,2.25,0,0,0-.77,1.21,9.35,9.35,0,0,0-.24,2.5v5.82h-2.88v-6.64a10.2,10.2,0,0,0-.16-2.28,1.42,1.42,0,0,0-.48-.77,1.41,1.41,0,0,0-.87-.25,1.91,1.91,0,0,0-1.2.4,2.16,2.16,0,0,0-.77,1.15,9.74,9.74,0,0,0-.23,2.5v5.89h-2.89Z" transform="translate(-10.7 -12.28)"/><path class="cls-3" d="M193.56,128.18v-1.82a4.24,4.24,0,0,1-1.56,1.53,4,4,0,0,1-2.05.56,3.75,3.75,0,0,1-2-.53,3.07,3.07,0,0,1-1.26-1.51,7.41,7.41,0,0,1-.39-2.68v-7.67h2.88v5.57a16.69,16.69,0,0,0,.16,3.13,1.7,1.7,0,0,0,.58.91A1.63,1.63,0,0,0,191,126a2.11,2.11,0,0,0,1.32-.45,2.23,2.23,0,0,0,.8-1.12,13.85,13.85,0,0,0,.22-3.27v-5.11h2.88v12.12Z" transform="translate(-10.7 -12.28)"/><path class="cls-3" d="M209,128.18h-2.88V122a10.6,10.6,0,0,0-.19-2.53,1.71,1.71,0,0,0-.6-.9,1.62,1.62,0,0,0-1-.32,2.14,2.14,0,0,0-1.35.46,2.27,2.27,0,0,0-.81,1.21,11.41,11.41,0,0,0-.22,2.78v5.49H199V116.06h2.68v1.78a4.24,4.24,0,0,1,3.59-2,4,4,0,0,1,1.75.38,3,3,0,0,1,1.2,1,3.56,3.56,0,0,1,.56,1.34,10.78,10.78,0,0,1,.16,2.16Z" transform="translate(-10.7 -12.28)"/><path class="cls-3" d="M211.7,114.42v-3h2.88v3Zm0,13.76V116.06h2.88v12.12Z" transform="translate(-10.7 -12.28)"/><path class="cls-3" d="M222.35,116.06v2.56h-2v4.88a12.68,12.68,0,0,0,.06,1.73.66.66,0,0,0,.25.4.76.76,0,0,0,.49.16,3.5,3.5,0,0,0,1.16-.3l.25,2.48a5.23,5.23,0,0,1-2.28.48,3.38,3.38,0,0,1-1.41-.29,2.06,2.06,0,0,1-.92-.75,3.23,3.23,0,0,1-.4-1.25,17.11,17.11,0,0,1-.1-2.26v-5.28h-1.32v-2.56h1.32v-2.4l2.9-1.88v4.28Z" transform="translate(-10.7 -12.28)"/><path class="cls-3" d="M224.14,114.42v-3H227v3Zm0,13.76V116.06H227v12.12Z" transform="translate(-10.7 -12.28)"/><path class="cls-3" d="M236.11,124.32l2.87.54a5.15,5.15,0,0,1-1.75,2.67,5.33,5.33,0,0,1-7.2-1.14,7.53,7.53,0,0,1-1.08-4.18,7.2,7.2,0,0,1,1.42-4.72,4.47,4.47,0,0,1,3.58-1.7,4.6,4.6,0,0,1,3.84,1.78c.94,1.19,1.39,3,1.35,5.47h-7.23a3.42,3.42,0,0,0,.7,2.22,2.08,2.08,0,0,0,1.66.8,1.68,1.68,0,0,0,1.14-.41A2.65,2.65,0,0,0,236.11,124.32Zm.16-3.24a3.28,3.28,0,0,0-.64-2.11,1.88,1.88,0,0,0-1.5-.73,1.92,1.92,0,0,0-1.56.77,3.21,3.21,0,0,0-.61,2.07Z" transform="translate(-10.7 -12.28)"/><path class="cls-3" d="M240.26,124.72l2.9-.49a2.38,2.38,0,0,0,.75,1.42,2.3,2.3,0,0,0,1.58.49,2.63,2.63,0,0,0,1.68-.46,1,1,0,0,0,.38-.86.92.92,0,0,0-.2-.6,2.28,2.28,0,0,0-1-.42,14.22,14.22,0,0,1-4.42-1.57,3.23,3.23,0,0,1-1.3-2.72,3.56,3.56,0,0,1,1.12-2.65,4.9,4.9,0,0,1,3.47-1.07,5.58,5.58,0,0,1,3.33.81,4.13,4.13,0,0,1,1.5,2.39l-2.72.56a1.92,1.92,0,0,0-.66-1.08,2.26,2.26,0,0,0-1.4-.38,2.83,2.83,0,0,0-1.63.36.77.77,0,0,0-.33.65.73.73,0,0,0,.29.58,10.3,10.3,0,0,0,2.7.9,7.48,7.48,0,0,1,3.21,1.43,3.09,3.09,0,0,1,.91,2.38,3.82,3.82,0,0,1-1.25,2.86,5.17,5.17,0,0,1-3.71,1.2,5.63,5.63,0,0,1-3.53-1A4.71,4.71,0,0,1,240.26,124.72Z" transform="translate(-10.7 -12.28)"/><path class="cls-3" d="M260.57,119.76l-2.61-.53a4.63,4.63,0,0,1,1.51-2.6,5.17,5.17,0,0,1,3.21-.84,6.26,6.26,0,0,1,2.87.51,2.92,2.92,0,0,1,1.33,1.29,7.14,7.14,0,0,1,.39,2.86l0,3.75a13.47,13.47,0,0,0,.14,2.35,7.38,7.38,0,0,0,.51,1.63H265c-.08-.21-.17-.53-.28-1l-.1-.38a5,5,0,0,1-1.58,1.2,4.09,4.09,0,0,1-1.8.4,3.5,3.5,0,0,1-2.65-1,3.57,3.57,0,0,1-1-2.57,3.67,3.67,0,0,1,.44-1.83,2.94,2.94,0,0,1,1.24-1.23,8.6,8.6,0,0,1,2.29-.75,13.78,13.78,0,0,0,2.8-.79V120a1.73,1.73,0,0,0-.41-1.31,2.22,2.22,0,0,0-1.55-.4,1.88,1.88,0,0,0-1.2.34A2.35,2.35,0,0,0,260.57,119.76Zm3.86,2.6a15.75,15.75,0,0,1-1.75.49,4.92,4.92,0,0,0-1.57.56,1.37,1.37,0,0,0-.57,1.13,1.64,1.64,0,0,0,.45,1.16,1.51,1.51,0,0,0,1.15.49,2.34,2.34,0,0,0,1.49-.57,2,2,0,0,0,.69-1.06,6.72,6.72,0,0,0,.11-1.56Z" transform="translate(-10.7 -12.28)"/><path class="cls-3" d="M279.82,128.18h-2.89V122a10.79,10.79,0,0,0-.18-2.53,1.71,1.71,0,0,0-.6-.9,1.62,1.62,0,0,0-1-.32,2.14,2.14,0,0,0-1.35.46,2.27,2.27,0,0,0-.81,1.21,11.41,11.41,0,0,0-.22,2.78v5.49h-2.89V116.06h2.68v1.78a4.24,4.24,0,0,1,3.59-2,4,4,0,0,1,1.75.38,3,3,0,0,1,1.2,1,3.73,3.73,0,0,1,.56,1.34,10.78,10.78,0,0,1,.16,2.16Z" transform="translate(-10.7 -12.28)"/><path class="cls-3" d="M292.56,128.18h-2.68V126.4a4.45,4.45,0,0,1-1.58,1.54,3.7,3.7,0,0,1-1.83.51,4,4,0,0,1-3.22-1.68,7.38,7.38,0,0,1-1.34-4.7,7.27,7.27,0,0,1,1.3-4.68,4.07,4.07,0,0,1,3.3-1.6,3.92,3.92,0,0,1,3.16,1.69v-6h2.89Zm-7.7-6.32a6.06,6.06,0,0,0,.48,2.8,2.16,2.16,0,0,0,2,1.26A2,2,0,0,0,289,125a4.68,4.68,0,0,0,.7-2.81,5.17,5.17,0,0,0-.67-3,2.09,2.09,0,0,0-3.46,0A4.44,4.44,0,0,0,284.86,121.86Z" transform="translate(-10.7 -12.28)"/><path class="cls-3" d="M300.12,122.74l2.95-.32a4.18,4.18,0,0,0,1.09,2.43,3.07,3.07,0,0,0,2.2.77,3.15,3.15,0,0,0,2.21-.69,2.13,2.13,0,0,0,.75-1.61,1.62,1.62,0,0,0-.32-1,2.49,2.49,0,0,0-1.09-.73c-.36-.13-1.17-.38-2.43-.73a7.79,7.79,0,0,1-3.43-1.65,4.55,4.55,0,0,1-1.39-3.37,4.72,4.72,0,0,1,.65-2.39,4.24,4.24,0,0,1,1.88-1.69,6.86,6.86,0,0,1,3-.58,5.94,5.94,0,0,1,4.27,1.38,5.1,5.1,0,0,1,1.5,3.68l-3,.15a2.94,2.94,0,0,0-.83-1.85,2.83,2.83,0,0,0-1.93-.57,3.23,3.23,0,0,0-2.07.61,1.26,1.26,0,0,0-.48,1,1.34,1.34,0,0,0,.45,1,7.45,7.45,0,0,0,2.79,1.12,14.07,14.07,0,0,1,3.28,1.2,4.44,4.44,0,0,1,1.66,1.7,5.81,5.81,0,0,1-.11,5.36,4.38,4.38,0,0,1-2,1.86,7.69,7.69,0,0,1-3.27.62,6.08,6.08,0,0,1-4.39-1.47A6.63,6.63,0,0,1,300.12,122.74Z" transform="translate(-10.7 -12.28)"/><path class="cls-3" d="M313.34,116.06h3.07l2.6,8.6,2.55-8.6h3l-3.85,11.66-.69,2.11a8.61,8.61,0,0,1-.72,1.62,3.55,3.55,0,0,1-.79.91,3.42,3.42,0,0,1-1.1.54,5.19,5.19,0,0,1-1.48.2,6.86,6.86,0,0,1-1.63-.2l-.26-2.51a5.79,5.79,0,0,0,1.23.15,1.74,1.74,0,0,0,1.49-.66,4.68,4.68,0,0,0,.73-1.67Z" transform="translate(-10.7 -12.28)"/><path class="cls-3" d="M336.1,128.18h-2.88V122a10.07,10.07,0,0,0-.19-2.53,1.71,1.71,0,0,0-.6-.9,1.6,1.6,0,0,0-1-.32,2.1,2.1,0,0,0-1.34.46,2.29,2.29,0,0,0-.82,1.21,11.41,11.41,0,0,0-.22,2.78v5.49h-2.88V116.06h2.68v1.78a4.23,4.23,0,0,1,3.59-2,4,4,0,0,1,1.74.38,3,3,0,0,1,1.2,1,3.75,3.75,0,0,1,.57,1.34,11.76,11.76,0,0,1,.15,2.16Z" transform="translate(-10.7 -12.28)"/><path class="cls-3" d="M341,119.76l-2.62-.53a4.59,4.59,0,0,1,1.52-2.6,5.16,5.16,0,0,1,3.2-.84,6.28,6.28,0,0,1,2.88.51,3,3,0,0,1,1.33,1.29,7.37,7.37,0,0,1,.38,2.86l0,3.75a14.56,14.56,0,0,0,.14,2.35,6.94,6.94,0,0,0,.52,1.63h-2.86c-.07-.21-.16-.53-.27-1-.05-.19-.09-.31-.11-.38a5,5,0,0,1-1.58,1.2,4.07,4.07,0,0,1-1.79.4,3.53,3.53,0,0,1-2.66-1,3.57,3.57,0,0,1-1-2.57,3.78,3.78,0,0,1,.44-1.83,3,3,0,0,1,1.24-1.23,8.69,8.69,0,0,1,2.3-.75,14,14,0,0,0,2.8-.79V120a1.77,1.77,0,0,0-.41-1.31,2.24,2.24,0,0,0-1.55-.4,1.84,1.84,0,0,0-1.2.34A2.35,2.35,0,0,0,341,119.76Zm3.86,2.6a16.07,16.07,0,0,1-1.76.49,5,5,0,0,0-1.57.56,1.37,1.37,0,0,0-.56,1.13,1.64,1.64,0,0,0,.45,1.16,1.48,1.48,0,0,0,1.15.49,2.36,2.36,0,0,0,1.49-.57,2,2,0,0,0,.69-1.06,7.35,7.35,0,0,0,.11-1.56Z" transform="translate(-10.7 -12.28)"/><path class="cls-3" d="M350.06,129l3.29.44a1.37,1.37,0,0,0,.38.88,2,2,0,0,0,1.3.34,3.07,3.07,0,0,0,1.69-.37,1.52,1.52,0,0,0,.58-.81,5.45,5.45,0,0,0,.13-1.48v-1.76a3.83,3.83,0,0,1-3.26,2,3.91,3.91,0,0,1-3.48-2.07,7.5,7.5,0,0,1-1-4.06A7.16,7.16,0,0,1,351,117.4a4.06,4.06,0,0,1,3.28-1.61,3.91,3.91,0,0,1,3.34,2v-1.7h2.7v10.88a12.07,12.07,0,0,1-.32,3.2,4,4,0,0,1-.9,1.67,3.87,3.87,0,0,1-1.53.94,7.27,7.27,0,0,1-2.43.35,5.81,5.81,0,0,1-3.93-1.06,3.48,3.48,0,0,1-1.16-2.68C350.05,129.26,350.05,129.13,350.06,129Zm2.58-7.11a4.7,4.7,0,0,0,.67,2.82,2,2,0,0,0,1.66.9,2.2,2.2,0,0,0,1.78-.92,4.28,4.28,0,0,0,.73-2.72,4.56,4.56,0,0,0-.7-2.8,2.14,2.14,0,0,0-1.76-.91,2.06,2.06,0,0,0-1.71.9A4.52,4.52,0,0,0,352.64,121.87Z" transform="translate(-10.7 -12.28)"/><path class="cls-3" d="M362.31,122a7.13,7.13,0,0,1,.71-3.09,5.1,5.1,0,0,1,2-2.28,5.44,5.44,0,0,1,2.9-.79,5.19,5.19,0,0,1,4.06,1.78,7.26,7.26,0,0,1,0,9.07,5.11,5.11,0,0,1-4,1.81,5.85,5.85,0,0,1-2.86-.75,4.88,4.88,0,0,1-2.07-2.21A8.06,8.06,0,0,1,362.31,122Zm3,.17a4.34,4.34,0,0,0,.77,2.76,2.35,2.35,0,0,0,3.79,0,4.38,4.38,0,0,0,.77-2.78,4.3,4.3,0,0,0-.77-2.74,2.35,2.35,0,0,0-3.79,0A4.34,4.34,0,0,0,365.27,122.12Z" transform="translate(-10.7 -12.28)"/><path class="cls-3" d="M375.37,129l3.3.44a1.32,1.32,0,0,0,.37.88,2,2,0,0,0,1.3.34,3.07,3.07,0,0,0,1.69-.37,1.52,1.52,0,0,0,.58-.81,5.45,5.45,0,0,0,.13-1.48v-1.76a3.83,3.83,0,0,1-3.26,2,3.91,3.91,0,0,1-3.48-2.07,7.5,7.5,0,0,1-1-4.06,7.16,7.16,0,0,1,1.32-4.65,4.06,4.06,0,0,1,3.28-1.61,3.91,3.91,0,0,1,3.34,2v-1.7h2.7v10.88a12.07,12.07,0,0,1-.32,3.2,4.13,4.13,0,0,1-.89,1.67,4,4,0,0,1-1.54.94,7.27,7.27,0,0,1-2.43.35,5.81,5.81,0,0,1-3.93-1.06,3.48,3.48,0,0,1-1.16-2.68C375.36,129.26,375.36,129.13,375.37,129Zm2.58-7.11a4.7,4.7,0,0,0,.67,2.82,2,2,0,0,0,1.66.9,2.2,2.2,0,0,0,1.78-.92,4.28,4.28,0,0,0,.73-2.72,4.56,4.56,0,0,0-.7-2.8,2.14,2.14,0,0,0-1.76-.91,2.06,2.06,0,0,0-1.71.9A4.52,4.52,0,0,0,378,121.87Z" transform="translate(-10.7 -12.28)"/><path class="cls-3" d="M395.47,128.18v-1.82a4.34,4.34,0,0,1-1.57,1.53,4,4,0,0,1-2,.56,3.78,3.78,0,0,1-2-.53,3.07,3.07,0,0,1-1.26-1.51,7.41,7.41,0,0,1-.39-2.68v-7.67h2.89v5.57a18.12,18.12,0,0,0,.15,3.13,1.7,1.7,0,0,0,.58.91,1.65,1.65,0,0,0,1.07.34,2.12,2.12,0,0,0,1.33-.45,2.29,2.29,0,0,0,.8-1.12,14.7,14.7,0,0,0,.21-3.27v-5.11h2.89v12.12Z" transform="translate(-10.7 -12.28)"/><path class="cls-3" d="M407.26,124.32l2.88.54a5.27,5.27,0,0,1-1.75,2.67,5.34,5.34,0,0,1-7.21-1.14,7.53,7.53,0,0,1-1.07-4.18,7.2,7.2,0,0,1,1.41-4.72,4.49,4.49,0,0,1,3.59-1.7,4.63,4.63,0,0,1,3.84,1.78c.93,1.19,1.38,3,1.34,5.47h-7.23a3.48,3.48,0,0,0,.7,2.22,2.1,2.1,0,0,0,1.66.8,1.64,1.64,0,0,0,1.14-.41A2.65,2.65,0,0,0,407.26,124.32Zm.17-3.24a3.28,3.28,0,0,0-.65-2.11,1.88,1.88,0,0,0-1.5-.73,1.92,1.92,0,0,0-1.56.77,3.21,3.21,0,0,0-.61,2.07Z" transform="translate(-10.7 -12.28)"/><path class="cls-3" d="M411.42,124.72l2.89-.49a2.38,2.38,0,0,0,.75,1.42,2.32,2.32,0,0,0,1.58.49,2.68,2.68,0,0,0,1.69-.46,1.07,1.07,0,0,0,.38-.86.88.88,0,0,0-.21-.6,2.22,2.22,0,0,0-1-.42,14.22,14.22,0,0,1-4.42-1.57,3.22,3.22,0,0,1-1.29-2.72,3.55,3.55,0,0,1,1.11-2.65,4.91,4.91,0,0,1,3.48-1.07,5.54,5.54,0,0,1,3.32.81,4.13,4.13,0,0,1,1.5,2.39l-2.72.56a1.92,1.92,0,0,0-.66-1.08,2.25,2.25,0,0,0-1.39-.38,2.86,2.86,0,0,0-1.64.36.76.76,0,0,0-.32.65.72.72,0,0,0,.28.58,10.3,10.3,0,0,0,2.7.9A7.59,7.59,0,0,1,420.7,122a3.12,3.12,0,0,1,.9,2.38,3.82,3.82,0,0,1-1.25,2.86,5.17,5.17,0,0,1-3.71,1.2,5.65,5.65,0,0,1-3.53-1A4.65,4.65,0,0,1,411.42,124.72Z" transform="translate(-10.7 -12.28)"/><path class="cls-4" d="M63,20c-27.31.23-51.14,18.14-52.27,45.77-1.12,27.44,20.5,51.4,47.9,53.19a53.59,53.59,0,0,0,44.89-19.47c2.06-2.52-2.78-3.47-4.32-1.6A46.68,46.68,0,0,1,63,115.24,47.3,47.3,0,0,1,30.58,102C12.7,84.74,11.07,58.11,27.09,39.1,36,28.6,48.9,24,62.59,23.89c3,0,3.9-3.89.42-3.87" transform="translate(-10.7 -12.28)"/><path class="cls-4" d="M65.92,28.38V14c0-2.73-5.19-2-5.19.37V28.74c0,2.73,5.19,2,5.19-.36" transform="translate(-10.7 -12.28)"/><path class="cls-5" d="M62.61,100.79c21.7,0,39.45-16.6,40.83-37.59h-2.5C99.49,82.28,83.29,97.32,63.52,97.32s-36-15-37.41-34.12H21.78c1.39,21,19.14,37.59,40.83,37.59" transform="translate(-10.7 -12.28)"/><path class="cls-6" d="M62.61,100.79c21.7,0,39.45-16.6,40.83-37.59h-2.5C99.49,82.28,83.29,97.32,63.52,97.32s-36-15-37.41-34.12H21.78C23.17,84.19,40.92,100.79,62.61,100.79Z" transform="translate(-10.7 -12.28)"/><path class="cls-7" d="M62.64,88.74a27.93,27.93,0,0,0,28-25.54H87.91a24.36,24.36,0,0,1-48.45,0H34.6a27.93,27.93,0,0,0,28,25.54" transform="translate(-10.7 -12.28)"/><path class="cls-8" d="M62.64,88.74a27.93,27.93,0,0,0,28-25.54H87.91a24.36,24.36,0,0,1-48.45,0H34.6A27.93,27.93,0,0,0,62.64,88.74Z" transform="translate(-10.7 -12.28)"/><path class="cls-9" d="M62.64,77a16.06,16.06,0,0,0,16-13.77H75.3a11.69,11.69,0,0,1-23.24,0H46.63A16.07,16.07,0,0,0,62.64,77" transform="translate(-10.7 -12.28)"/><path class="cls-10" d="M62.64,77a16.06,16.06,0,0,0,16-13.77H75.3a11.69,11.69,0,0,1-23.24,0H46.63A16.07,16.07,0,0,0,62.64,77Z" transform="translate(-10.7 -12.28)"/><polygon class="cls-4" points="54.44 35.53 50.5 35.53 51.57 56.66 53.34 56.66 54.44 35.53"/><polygon class="cls-11" points="54.44 35.53 50.5 35.53 51.57 56.66 53.34 56.66 54.44 35.53"/><polygon class="cls-4" points="54.44 91.67 50.5 91.67 51.57 114.42 53.34 114.42 54.44 91.67"/><polygon class="cls-11" points="54.44 91.67 50.5 91.67 51.57 114.42 53.34 114.42 54.44 91.67"/><rect class="cls-4" x="29.16" y="128.82" width="46.03" height="3.35"/><path class="cls-4" d="M41.79,138.75h8.65c7-7.42,22.06-5.65,28.5,0h5c-14.24-15.31-35.15-7.84-42.18,0" transform="translate(-10.7 -12.28)"/></g></g></g></svg>