<svg xmlns="http://www.w3.org/2000/svg" width="22.322" height="13.259" viewBox="0 0 22.322 13.259"><defs><style>.a{fill:#489fb5;}</style></defs><g transform="translate(0)"><path class="a" d="M20.782,95.13a9.334,9.334,0,0,0-3.265-.528,9.334,9.334,0,0,0-3.265.528c-.993.385-1.539.942-1.539,1.57a4.8,4.8,0,1,1-9.609,0c0-.578-.779-.837-1.552-.837S0,96.122,0,96.7a11.161,11.161,0,0,0,19.053,7.892A11.088,11.088,0,0,0,22.322,96.7C22.322,96.073,21.775,95.515,20.782,95.13Zm-3.265.238c2.465,0,4.038.789,4.038,1.331s-1.573,1.331-4.038,1.331S13.48,97.243,13.48,96.7,15.053,95.368,17.517,95.368ZM1.552,96.63a2.169,2.169,0,0,1,.575.07,2.17,2.17,0,0,1-.575.07,2.17,2.17,0,0,1-.575-.07A2.169,2.169,0,0,1,1.552,96.63Zm9.609,10.465A10.408,10.408,0,0,1,.793,97.444a3,3,0,0,0,.759.092,2.916,2.916,0,0,0,.833-.113A5.57,5.57,0,0,0,12.6,99.7a6.273,6.273,0,0,0,.924.445c.192.074.4.144.607.207a.383.383,0,1,0,.219-.734c-.192-.057-.376-.12-.549-.187a5.492,5.492,0,0,1-.833-.4,5.524,5.524,0,0,0,.4-1.228,3.748,3.748,0,0,0,.882.47,9.335,9.335,0,0,0,3.265.528,9.334,9.334,0,0,0,3.265-.528,4.088,4.088,0,0,0,.7-.345,10.323,10.323,0,0,1-.3,1.524,10.655,10.655,0,0,1-3.668.6,12.437,12.437,0,0,1-1.783-.126.383.383,0,1,0-.11.758,13.206,13.206,0,0,0,1.893.134,12.083,12.083,0,0,0,3.374-.454A10.411,10.411,0,0,1,11.161,107.094Z" transform="translate(0 -94.602)"/></g></svg>