<svg xmlns="http://www.w3.org/2000/svg" xmlns:xlink="http://www.w3.org/1999/xlink" width="54" height="54" viewBox="0 0 54 54"><defs><style>.a{fill:#ffa62b;}.b,.e{fill:none;}.b{stroke:#fff;stroke-linejoin:bevel;stroke-width:0.5px;}.c{fill:#fff;}.d{stroke:none;}.f{filter:url(#c);}.g{filter:url(#a);}</style><filter id="a" x="0" y="0" width="54" height="54" filterUnits="userSpaceOnUse"><feOffset dy="5" input="SourceAlpha"/><feGaussianBlur stdDeviation="3" result="b"/><feFlood flood-opacity="0.161"/><feComposite operator="in" in2="b"/><feComposite in="SourceGraphic"/></filter><filter id="c" x="1" y="1" width="52" height="52" filterUnits="userSpaceOnUse"><feOffset dy="5" input="SourceAlpha"/><feGaussianBlur stdDeviation="3" result="d"/><feFlood flood-opacity="0.161"/><feComposite operator="in" in2="d"/><feComposite in="SourceGraphic"/></filter></defs><g transform="translate(-159 -304)"><g transform="translate(168 308)"><g class="g" transform="matrix(1, 0, 0, 1, -9, -4)"><circle class="a" cx="18" cy="18" r="18" transform="translate(9 4)"/></g><g transform="translate(1.44 1.44)"><g class="f" transform="matrix(1, 0, 0, 1, -10.44, -5.44)"><g class="b" transform="translate(10 5)"><circle class="d" cx="17" cy="17" r="17"/><circle class="e" cx="17" cy="17" r="16.75"/></g></g></g></g><g transform="translate(173.616 318.271)"><path class="c" d="M21.316,99.136a2.814,2.814,0,1,0-3.228,0,4.875,4.875,0,0,0-1.663.975,6.309,6.309,0,0,0-2.282-1.244,3.565,3.565,0,1,0-3.687,0A6.361,6.361,0,0,0,8.2,100.1a4.915,4.915,0,0,0-1.643-.956,2.814,2.814,0,1,0-3.228,0A4.939,4.939,0,0,0,0,103.808v.322a.021.021,0,0,0,.02.02H5.984a6.559,6.559,0,0,0-.054.824v.332A2.593,2.593,0,0,0,8.524,107.9h7.559a2.593,2.593,0,0,0,2.594-2.594v-.332a6.559,6.559,0,0,0-.054-.824h6a.021.021,0,0,0,.02-.02v-.322A4.958,4.958,0,0,0,21.316,99.136Zm-3.648-2.307a2.034,2.034,0,1,1,2.073,2.034h-.078A2.031,2.031,0,0,1,17.668,96.829ZM9.5,95.815a2.785,2.785,0,1,1,2.946,2.78h-.322A2.789,2.789,0,0,1,9.5,95.815ZM2.892,96.829a2.034,2.034,0,1,1,2.073,2.034H4.886A2.034,2.034,0,0,1,2.892,96.829Zm3.228,6.535H.79A4.167,4.167,0,0,1,4.9,99.643h.059a4.124,4.124,0,0,1,2.658.99A6.4,6.4,0,0,0,6.12,103.364ZM17.888,105.3a1.817,1.817,0,0,1-1.814,1.814H8.515A1.817,1.817,0,0,1,6.7,105.3v-.332a5.6,5.6,0,0,1,5.428-5.594c.054,0,.112,0,.166,0s.112,0,.166,0a5.6,5.6,0,0,1,5.428,5.594Zm.58-1.941a6.386,6.386,0,0,0-1.478-2.711,4.143,4.143,0,0,1,2.682-1.009h.059a4.167,4.167,0,0,1,4.106,3.721Z" transform="translate(0 -92.25)"/></g></g></svg>