<svg xmlns="http://www.w3.org/2000/svg" viewBox="0 0 25 25" width="25" height="25">
	<style>
		tspan { white-space:pre }
		.shp0 { fill: #82c0cc } 
		.shp1 { fill: none;stroke: #ffffff;stroke-linejoin:bevel;stroke-width: 0.5 } 
		.shp2 { fill: #ffffff } 
	</style>
	<g id="Layer">
		<path id="Layer" class="shp0" d="M12.5 25C5.59 25 0 19.41 0 12.5C0 5.59 5.59 0 12.5 0C19.41 0 25 5.59 25 12.5C25 19.41 19.41 25 12.5 25Z" />
		<path id="Layer" class="shp1" d="M12.5 23.75C6.28 23.75 1.25 18.72 1.25 12.5C1.25 6.28 6.28 1.25 12.5 1.25C18.72 1.25 23.75 6.28 23.75 12.5C23.75 18.72 18.72 23.75 12.5 23.75Z" />
		<path id="Layer" fill-rule="evenodd" class="shp2" d="M18.7 11.91C19.04 12.03 19.35 12.2 19.63 12.41C19.92 12.62 20.17 12.88 20.37 13.17C20.58 13.46 20.74 13.78 20.85 14.11C20.96 14.45 21.01 14.8 21.01 15.16L21.01 15.38C21.01 15.38 21.01 15.39 21.01 15.39C21.01 15.39 21.01 15.39 21.01 15.39C21.01 15.39 21.01 15.39 21.01 15.39C21 15.4 21 15.4 21 15.4L16.83 15.4C16.84 15.44 16.84 15.49 16.85 15.54C16.85 15.59 16.85 15.63 16.86 15.68C16.86 15.73 16.86 15.78 16.86 15.82C16.87 15.87 16.87 15.92 16.87 15.97L16.87 16.2C16.87 16.43 16.82 16.67 16.73 16.89C16.64 17.11 16.51 17.3 16.34 17.47C16.17 17.64 15.97 17.77 15.76 17.86C15.54 17.95 15.3 18 15.07 18L9.82 18C9.58 18 9.35 17.95 9.13 17.86C8.91 17.77 8.71 17.64 8.55 17.47C8.38 17.3 8.25 17.11 8.16 16.89C8.06 16.67 8.02 16.43 8.02 16.2L8.02 15.97C8.02 15.92 8.02 15.87 8.02 15.82C8.02 15.78 8.02 15.73 8.03 15.68C8.03 15.63 8.03 15.59 8.04 15.54C8.04 15.49 8.05 15.44 8.05 15.4L3.91 15.4C3.91 15.4 3.91 15.4 3.91 15.39C3.91 15.39 3.91 15.39 3.9 15.39C3.9 15.39 3.9 15.39 3.9 15.39C3.9 15.39 3.9 15.38 3.9 15.38L3.9 15.16C3.9 14.8 3.95 14.45 4.06 14.11C4.17 13.78 4.33 13.46 4.54 13.17C4.74 12.88 4.99 12.62 5.27 12.41C5.56 12.2 5.87 12.03 6.21 11.92C5.51 11.43 5.21 10.54 5.46 9.73C5.72 8.91 6.48 8.36 7.33 8.36C8.18 8.36 8.94 8.91 9.19 9.73C9.45 10.54 9.15 11.43 8.45 11.92C8.55 11.95 8.66 11.99 8.76 12.04C8.86 12.09 8.96 12.14 9.05 12.19C9.15 12.25 9.24 12.31 9.33 12.37C9.42 12.44 9.51 12.51 9.59 12.58C9.7 12.48 9.82 12.39 9.95 12.31C10.07 12.22 10.2 12.15 10.33 12.07C10.46 12 10.6 11.94 10.74 11.88C10.87 11.82 11.01 11.77 11.16 11.73C10.21 11.15 9.75 10.01 10.05 8.94C10.35 7.87 11.33 7.13 12.44 7.13C13.55 7.13 14.52 7.87 14.82 8.94C15.12 10.01 14.67 11.15 13.72 11.73C13.86 11.77 14.01 11.82 14.15 11.88C14.29 11.94 14.42 12 14.56 12.08C14.69 12.15 14.82 12.23 14.94 12.31C15.07 12.4 15.19 12.49 15.3 12.59C15.39 12.52 15.47 12.45 15.56 12.38C15.66 12.31 15.75 12.25 15.85 12.19C15.94 12.14 16.04 12.09 16.15 12.04C16.25 11.99 16.35 11.95 16.46 11.91C15.76 11.42 15.46 10.54 15.72 9.73C15.97 8.91 16.73 8.36 17.58 8.36C18.43 8.36 19.19 8.91 19.44 9.73C19.7 10.54 19.4 11.42 18.7 11.91ZM16.17 10.31C16.17 10.5 16.2 10.68 16.27 10.85C16.34 11.02 16.44 11.17 16.57 11.3C16.7 11.43 16.85 11.54 17.02 11.61C17.19 11.68 17.37 11.72 17.55 11.73L17.61 11.73C18.17 11.72 18.68 11.36 18.89 10.84C19.1 10.31 18.97 9.7 18.57 9.31C18.16 8.91 17.56 8.79 17.03 9.01C16.51 9.23 16.17 9.75 16.17 10.31L16.17 10.31ZM10.5 9.61C10.5 9.85 10.55 10.1 10.64 10.32C10.73 10.55 10.86 10.76 11.03 10.94C11.19 11.12 11.39 11.26 11.62 11.36C11.84 11.47 12.08 11.53 12.32 11.54L12.54 11.54C13.31 11.5 13.99 11 14.25 10.27C14.51 9.55 14.32 8.74 13.76 8.21C13.2 7.68 12.37 7.53 11.67 7.84C10.96 8.14 10.5 8.84 10.5 9.61L10.5 9.61ZM5.91 10.31C5.91 10.5 5.94 10.68 6.01 10.85C6.08 11.02 6.18 11.17 6.31 11.3C6.44 11.43 6.59 11.54 6.76 11.61C6.93 11.68 7.11 11.72 7.29 11.73L7.34 11.73C7.91 11.72 8.42 11.36 8.63 10.84C8.84 10.31 8.71 9.7 8.31 9.31C7.9 8.91 7.3 8.79 6.77 9.01C6.25 9.23 5.91 9.75 5.91 10.31L5.91 10.31ZM8.15 14.85C8.2 14.67 8.25 14.5 8.32 14.33C8.39 14.16 8.46 14 8.55 13.84C8.64 13.68 8.74 13.52 8.84 13.38C8.95 13.23 9.06 13.09 9.19 12.95C9.06 12.84 8.92 12.75 8.78 12.66C8.63 12.58 8.48 12.5 8.32 12.45C8.17 12.39 8.01 12.34 7.84 12.31C7.68 12.28 7.51 12.27 7.34 12.27L7.3 12.27C6.95 12.27 6.6 12.34 6.27 12.46C5.94 12.59 5.64 12.78 5.38 13.02C5.12 13.25 4.91 13.53 4.75 13.85C4.59 14.16 4.49 14.5 4.45 14.85L8.15 14.85ZM16.32 15.97C16.32 15.47 16.22 14.97 16.04 14.51C15.85 14.04 15.57 13.62 15.22 13.26C14.87 12.9 14.46 12.61 14 12.41C13.54 12.21 13.05 12.1 12.55 12.08C12.51 12.08 12.47 12.08 12.44 12.08C12.4 12.08 12.36 12.08 12.32 12.08C11.82 12.1 11.33 12.21 10.87 12.41C10.41 12.61 10 12.9 9.65 13.26C9.3 13.62 9.03 14.04 8.84 14.51C8.65 14.97 8.55 15.47 8.55 15.97L8.55 16.2C8.55 16.36 8.59 16.53 8.65 16.68C8.71 16.83 8.81 16.97 8.92 17.09C9.04 17.21 9.18 17.3 9.33 17.36C9.48 17.42 9.65 17.46 9.81 17.46L15.06 17.46C15.23 17.46 15.39 17.42 15.54 17.36C15.7 17.3 15.84 17.21 15.95 17.09C16.07 16.97 16.16 16.83 16.23 16.68C16.29 16.53 16.32 16.36 16.32 16.2L16.32 15.97ZM20.45 14.85C20.41 14.5 20.31 14.16 20.15 13.85C19.99 13.53 19.78 13.25 19.52 13.02C19.26 12.78 18.96 12.59 18.63 12.47C18.3 12.34 17.95 12.27 17.6 12.27L17.56 12.27C17.39 12.27 17.22 12.28 17.06 12.31C16.89 12.35 16.73 12.39 16.57 12.45C16.41 12.51 16.26 12.58 16.11 12.67C15.97 12.76 15.83 12.86 15.7 12.97C15.82 13.1 15.94 13.24 16.04 13.39C16.14 13.53 16.24 13.69 16.33 13.85C16.41 14 16.49 14.17 16.55 14.34C16.62 14.5 16.68 14.68 16.72 14.85L20.45 14.85Z" />
	</g>
</svg>