<svg xmlns="http://www.w3.org/2000/svg" xmlns:xlink="http://www.w3.org/1999/xlink" width="41" height="41" viewBox="0 0 41 41">
  <defs>
    <filter id="Ellipse_2" x="0" y="0" width="41" height="41" filterUnits="userSpaceOnUse">
      <feOffset dy="5" input="SourceAlpha"/>
      <feGaussianBlur stdDeviation="3" result="blur"/>
      <feFlood flood-opacity="0.161"/>
      <feComposite operator="in" in2="blur"/>
      <feComposite in="SourceGraphic"/>
    </filter>
  </defs>
  <g id="Group_225" data-name="Group 225" transform="translate(-1767 -692)">
    <g id="Group_137" data-name="Group 137" transform="translate(1775 695)">
      <g id="Group_127" data-name="Group 127">
        <circle id="Ellipse_2-2" data-name="Ellipse 2" cx="12.5" cy="12.5" r="12.5" fill="#ffa62b"/>
      </g>
      <g id="Group_135" data-name="Group 135" transform="translate(1 1)">
        <g transform="matrix(1, 0, 0, 1, -9, -4)" filter="url(#Ellipse_2)">
          <g id="Ellipse_2-3" data-name="Ellipse 2" transform="translate(9 4)" fill="none" stroke="#fff" stroke-linejoin="bevel" stroke-width="0.5">
            <circle cx="11.5" cy="11.5" r="11.5" stroke="none"/>
            <circle cx="11.5" cy="11.5" r="11.25" fill="none"/>
          </g>
        </g>
      </g>
    </g>
    <g id="group_5_" data-name="group (5)" transform="translate(1778.9 702.132)">
      <g id="Group_126" data-name="Group 126">
        <path id="Path_142" data-name="Path 142" d="M14.8,97.032a1.954,1.954,0,1,0-2.242,0,3.386,3.386,0,0,0-1.155.677,4.381,4.381,0,0,0-1.585-.864,2.476,2.476,0,1,0-2.56,0,4.418,4.418,0,0,0-1.568.853,3.413,3.413,0,0,0-1.141-.664,1.954,1.954,0,1,0-2.242,0A3.43,3.43,0,0,0,0,100.276v.224a.015.015,0,0,0,.014.014H4.155a4.555,4.555,0,0,0-.037.572v.23a1.8,1.8,0,0,0,1.8,1.8h5.249a1.8,1.8,0,0,0,1.8-1.8v-.23a4.555,4.555,0,0,0-.037-.572H17.1a.015.015,0,0,0,.014-.014v-.224A3.443,3.443,0,0,0,14.8,97.032Zm-2.533-1.6a1.412,1.412,0,1,1,1.439,1.412h-.054A1.41,1.41,0,0,1,12.27,95.43Zm-5.669-.7a1.934,1.934,0,1,1,2.046,1.93H8.422A1.937,1.937,0,0,1,6.6,94.726Zm-4.592.7a1.412,1.412,0,1,1,1.439,1.412H3.393A1.412,1.412,0,0,1,2.008,95.43ZM4.25,99.968H.549A2.894,2.894,0,0,1,3.4,97.384h.041a2.864,2.864,0,0,1,1.846.687A4.447,4.447,0,0,0,4.25,99.968Zm8.172,1.348a1.262,1.262,0,0,1-1.26,1.26H5.913a1.262,1.262,0,0,1-1.26-1.26v-.23A3.89,3.89,0,0,1,8.422,97.2c.037,0,.078,0,.115,0s.078,0,.115,0a3.89,3.89,0,0,1,3.769,3.884Zm.4-1.348A4.435,4.435,0,0,0,11.8,98.085a2.877,2.877,0,0,1,1.863-.7H13.7a2.894,2.894,0,0,1,2.852,2.584Z" transform="translate(0 -92.25)" fill="#fff"/>
      </g>
    </g>
  </g>
</svg>
