<svg xmlns="http://www.w3.org/2000/svg" xmlns:xlink="http://www.w3.org/1999/xlink" width="43" height="43" viewBox="0 0 43 43"><defs><style>.a{fill:#82c0cc;}.b,.e{fill:none;}.b{stroke:#fff;stroke-linejoin:bevel;stroke-width:0.5px;}.c{fill:#fff;}.d{stroke:none;}.f{filter:url(#c);}.g{filter:url(#a);}</style><filter id="a" x="0" y="0" width="43" height="43" filterUnits="userSpaceOnUse"><feOffset dy="5" input="SourceAlpha"/><feGaussianBlur stdDeviation="3" result="b"/><feFlood flood-opacity="0.161"/><feComposite operator="in" in2="b"/><feComposite in="SourceGraphic"/></filter><filter id="c" x="1" y="1" width="41" height="41" filterUnits="userSpaceOnUse"><feOffset dy="5" input="SourceAlpha"/><feGaussianBlur stdDeviation="3" result="d"/><feFlood flood-opacity="0.161"/><feComposite operator="in" in2="d"/><feComposite in="SourceGraphic"/></filter></defs><g transform="translate(-194 -802)"><g transform="translate(27)"><g transform="translate(176 806)"><g class="g" transform="matrix(1, 0, 0, 1, -9, -4)"><circle class="a" cx="12.5" cy="12.5" r="12.5" transform="translate(9 4)"/></g></g><g transform="translate(176.5 806.5)"><g class="f" transform="matrix(1, 0, 0, 1, -9.5, -4.5)"><g class="b" transform="translate(10 5)"><circle class="d" cx="11.5" cy="11.5" r="11.5"/><circle class="e" cx="11.5" cy="11.5" r="11.25"/></g></g></g></g><g transform="translate(206.9 720.882)"><g transform="translate(0 92.25)"><path class="c" d="M14.8,97.032a1.954,1.954,0,1,0-2.242,0,3.386,3.386,0,0,0-1.155.677,4.381,4.381,0,0,0-1.585-.864,2.476,2.476,0,1,0-2.56,0,4.418,4.418,0,0,0-1.568.853,3.413,3.413,0,0,0-1.141-.664,1.954,1.954,0,1,0-2.242,0A3.43,3.43,0,0,0,0,100.276v.224a.015.015,0,0,0,.014.014H4.155a4.555,4.555,0,0,0-.037.572v.23a1.8,1.8,0,0,0,1.8,1.8h5.249a1.8,1.8,0,0,0,1.8-1.8v-.23a4.555,4.555,0,0,0-.037-.572H17.1a.015.015,0,0,0,.014-.014v-.224A3.443,3.443,0,0,0,14.8,97.032Zm-2.533-1.6a1.412,1.412,0,1,1,1.439,1.412h-.054A1.41,1.41,0,0,1,12.27,95.43Zm-5.669-.7a1.934,1.934,0,1,1,2.046,1.93H8.422A1.937,1.937,0,0,1,6.6,94.726Zm-4.592.7a1.412,1.412,0,1,1,1.439,1.412H3.393A1.412,1.412,0,0,1,2.008,95.43ZM4.25,99.968H.549A2.894,2.894,0,0,1,3.4,97.384h.041a2.864,2.864,0,0,1,1.846.687A4.447,4.447,0,0,0,4.25,99.968Zm8.172,1.348a1.262,1.262,0,0,1-1.26,1.26H5.913a1.262,1.262,0,0,1-1.26-1.26v-.23A3.89,3.89,0,0,1,8.422,97.2c.037,0,.078,0,.115,0s.078,0,.115,0a3.89,3.89,0,0,1,3.769,3.884Zm.4-1.348A4.435,4.435,0,0,0,11.8,98.085a2.877,2.877,0,0,1,1.863-.7H13.7a2.894,2.894,0,0,1,2.852,2.584Z" transform="translate(0 -92.25)"/></g></g></g></svg>