<svg xmlns="http://www.w3.org/2000/svg" xmlns:xlink="http://www.w3.org/1999/xlink" width="79" height="53.5" viewBox="0 0 79 53.5"><defs><style>.a{fill:#ffa62b;}.b{fill:#f6f6f6;font-size:12px;font-family:Assistant-Regular, Assistant;}.c{filter:url(#a);}</style><filter id="a" x="20" y="0" width="39" height="48" filterUnits="userSpaceOnUse"><feOffset dy="3" input="SourceAlpha"/><feGaussianBlur stdDeviation="3" result="b"/><feFlood flood-opacity="0.161"/><feComposite operator="in" in2="b"/><feComposite in="SourceGraphic"/></filter></defs><g transform="translate(-141 -846.5)"><g class="c" transform="matrix(1, 0, 0, 1, 141, 846.5)"><path class="a" d="M18,3A10.492,10.492,0,0,0,7.5,13.5C7.5,21.375,18,33,18,33S28.5,21.375,28.5,13.5A10.492,10.492,0,0,0,18,3Zm0,14.25a3.75,3.75,0,1,1,3.75-3.75A3.751,3.751,0,0,1,18,17.25Z" transform="translate(21.5 3)"/></g><path class="a" d="M7.5,0h64a7.5,7.5,0,0,1,0,15H7.5a7.5,7.5,0,0,1,0-15Z" transform="translate(141 885)"/><text class="b" transform="translate(181 896)"><tspan x="-28.86" y="0">התקיעה שלך</tspan></text></g></svg>