<svg xmlns="http://www.w3.org/2000/svg" width="47.952" height="30.446" viewBox="0 0 47.952 30.446"><defs><style>.a{fill:#489fb5;}</style></defs><g transform="translate(0 0)"><g transform="translate(0 0)"><path class="a" d="M41.471,105.647a5.474,5.474,0,1,0-6.281,0,9.485,9.485,0,0,0-3.235,1.9,12.274,12.274,0,0,0-4.44-2.419,6.936,6.936,0,1,0-7.173,0,12.376,12.376,0,0,0-4.393,2.391,9.563,9.563,0,0,0-3.2-1.86,5.474,5.474,0,1,0-6.281,0A9.609,9.609,0,0,0,0,114.736v.626a.041.041,0,0,0,.038.038h11.6a12.76,12.76,0,0,0-.1,1.6v.645a5.045,5.045,0,0,0,5.048,5.048H31.291a5.045,5.045,0,0,0,5.048-5.048V117a12.76,12.76,0,0,0-.1-1.6h11.68a.041.041,0,0,0,.038-.038v-.626A9.646,9.646,0,0,0,41.471,105.647Zm-7.1-4.488a3.956,3.956,0,1,1,4.032,3.956h-.152A3.951,3.951,0,0,1,34.374,101.159ZM18.492,99.186a5.418,5.418,0,1,1,5.731,5.408H23.6A5.425,5.425,0,0,1,18.492,99.186ZM5.626,101.159a3.956,3.956,0,1,1,4.032,3.956H9.507A3.957,3.957,0,0,1,5.626,101.159Zm6.281,12.714H1.537a8.107,8.107,0,0,1,7.989-7.239H9.64a8.023,8.023,0,0,1,5.171,1.926A12.457,12.457,0,0,0,11.907,113.873ZM34.8,117.649a3.535,3.535,0,0,1-3.529,3.529H16.566a3.535,3.535,0,0,1-3.529-3.529V117A10.9,10.9,0,0,1,23.6,106.121c.1.01.218.01.323.01s.218,0,.323-.01A10.9,10.9,0,0,1,34.8,117Zm1.129-3.776a12.425,12.425,0,0,0-2.875-5.275,8.061,8.061,0,0,1,5.218-1.964h.114a8.107,8.107,0,0,1,7.989,7.239Z" transform="translate(0 -92.25)"/></g></g></svg>