<svg xmlns="http://www.w3.org/2000/svg" width="10.924" height="10.945" viewBox="0 0 10.924 10.945"><defs><style>.a{fill:none;stroke:#000;stroke-linecap:round;stroke-linejoin:round;stroke-width:0.5px;}</style></defs><path class="a" d="M13.59,10.819v1.572a1.048,1.048,0,0,1-1.142,1.048A10.371,10.371,0,0,1,7.925,11.83,10.219,10.219,0,0,1,4.781,8.686,10.371,10.371,0,0,1,3.172,4.142,1.048,1.048,0,0,1,4.215,3H5.787a1.048,1.048,0,0,1,1.048.9A6.729,6.729,0,0,0,7.2,5.374,1.048,1.048,0,0,1,6.966,6.48L6.3,7.145A8.385,8.385,0,0,0,9.445,10.29l.666-.666a1.048,1.048,0,0,1,1.106-.236,6.729,6.729,0,0,0,1.473.367,1.048,1.048,0,0,1,.9,1.064Z" transform="translate(-2.917 -2.75)"/></svg>