<svg xmlns="http://www.w3.org/2000/svg" width="79" height="47.5" viewBox="0 0 79 47.5">
  <g id="Group_223" data-name="Group 223" transform="translate(-134 -170.5)">
    <path id="Icon_material-place" data-name="Icon material-place" d="M18,3A10.492,10.492,0,0,0,7.5,13.5C7.5,21.375,18,33,18,33S28.5,21.375,28.5,13.5A10.492,10.492,0,0,0,18,3Zm0,14.25a3.75,3.75,0,1,1,3.75-3.75A3.751,3.751,0,0,1,18,17.25Z" transform="translate(155.5 167.5)" fill="#16697a"/>
    <path id="Path_50" data-name="Path 50" d="M7.5,0h64a7.5,7.5,0,0,1,0,15H7.5a7.5,7.5,0,0,1,0-15Z" transform="translate(134 203)" fill="#16697a"/>
    <text id="אתה_יוצא_מכאן" data-name="אתה יוצא מכאן" transform="translate(174 214)" fill="#f6f6f6" font-size="12" font-family="Assistant-Regular, Assistant"><tspan x="-32.976" y="0">אתה יוצא מכאן</tspan></text>
  </g>
</svg>
