<svg xmlns="http://www.w3.org/2000/svg" xmlns:xlink="http://www.w3.org/1999/xlink" width="56" height="56" viewBox="0 0 56 56"><defs><style>.a{fill:#f6f6f6;}.b{fill:none;stroke:#0b3e46;stroke-linecap:round;stroke-linejoin:round;stroke-width:2px;}.c{filter:url(#a);}</style><filter id="a" x="0" y="0" width="56" height="56" filterUnits="userSpaceOnUse"><feOffset dy="3" input="SourceAlpha"/><feGaussianBlur stdDeviation="3" result="b"/><feFlood flood-opacity="0.161"/><feComposite operator="in" in2="b"/><feComposite in="SourceGraphic"/></filter></defs><g transform="translate(-12 -6)"><g class="c" transform="matrix(1, 0, 0, 1, 12, 6)"><circle class="a" cx="19" cy="19" r="19" transform="translate(9 6)"/></g><g transform="translate(27.5 18.5)"><path class="b" d="M19.773,16.636A3.136,3.136,0,1,1,16.636,13.5,3.136,3.136,0,0,1,19.773,16.636Z" transform="translate(-3.636 -3.636)"/><path class="b" d="M20.736,16.136a1.725,1.725,0,0,0,.345,1.9l.063.063a2.092,2.092,0,1,1-2.959,2.959L18.123,21a1.739,1.739,0,0,0-2.948,1.234v.178a2.091,2.091,0,0,1-4.182,0v-.094a1.725,1.725,0,0,0-1.129-1.579,1.725,1.725,0,0,0-1.9.345l-.063.063A2.092,2.092,0,1,1,4.94,18.185L5,18.123a1.739,1.739,0,0,0-1.234-2.948H3.591a2.091,2.091,0,0,1,0-4.182h.094A1.725,1.725,0,0,0,5.264,9.864a1.725,1.725,0,0,0-.345-1.9L4.856,7.9A2.092,2.092,0,1,1,7.815,4.94L7.877,5a1.725,1.725,0,0,0,1.9.345h.084a1.725,1.725,0,0,0,1.045-1.579V3.591a2.091,2.091,0,0,1,4.182,0v.094a1.739,1.739,0,0,0,2.948,1.234l.063-.063A2.092,2.092,0,1,1,21.06,7.815L21,7.877a1.725,1.725,0,0,0-.345,1.9v.084a1.725,1.725,0,0,0,1.579,1.045h.178a2.091,2.091,0,0,1,0,4.182h-.094a1.725,1.725,0,0,0-1.579,1.045Z"/></g></g></svg>