<svg xmlns="http://www.w3.org/2000/svg" width="11.168" height="6.634" viewBox="0 0 11.168 6.634"><defs><style>.a{fill:#0e0e0e;}</style></defs><path class="a" d="M10.4,94.866A4.67,4.67,0,0,0,8.764,94.6a4.67,4.67,0,0,0-1.633.264c-.5.193-.77.472-.77.785a2.4,2.4,0,1,1-4.808,0c0-.289-.39-.419-.776-.419S0,95.362,0,95.652A5.584,5.584,0,0,0,9.533,99.6a5.547,5.547,0,0,0,1.636-3.948C11.168,95.338,10.894,95.059,10.4,94.866Zm-1.633.119c1.233,0,2.02.395,2.02.666s-.787.666-2.02.666-2.02-.395-2.02-.666S7.531,94.985,8.764,94.985Zm-7.988.631a1.085,1.085,0,0,1,.288.035,1.086,1.086,0,0,1-.288.035,1.086,1.086,0,0,1-.288-.035A1.085,1.085,0,0,1,.776,95.617Zm4.808,5.236A5.207,5.207,0,0,1,.4,96.024a1.5,1.5,0,0,0,.38.046,1.459,1.459,0,0,0,.417-.057A2.787,2.787,0,0,0,6.3,97.153a3.138,3.138,0,0,0,.463.223c.1.037.2.072.3.1a.192.192,0,1,0,.11-.367c-.1-.029-.188-.06-.275-.094a2.748,2.748,0,0,1-.417-.2,2.764,2.764,0,0,0,.2-.615,1.876,1.876,0,0,0,.441.235,4.67,4.67,0,0,0,1.633.264,4.67,4.67,0,0,0,1.633-.264,2.044,2.044,0,0,0,.351-.173,5.165,5.165,0,0,1-.149.762,5.331,5.331,0,0,1-1.835.3,6.223,6.223,0,0,1-.892-.063.192.192,0,1,0-.055.379,6.606,6.606,0,0,0,.947.067,6.045,6.045,0,0,0,1.688-.227A5.209,5.209,0,0,1,5.584,100.852Z" transform="translate(0 -94.602)"/></svg>