<svg xmlns="http://www.w3.org/2000/svg" viewBox="0 0 37 37" width="37" height="37">
	<style>
		tspan { white-space:pre }
		.shp0 { fill: #156879 } 
		.shp1 { fill: none;stroke: #ffffff;stroke-linejoin:bevel;stroke-width: 0.5 } 
		.shp2 { fill: #ffffff } 
	</style>
	<g id="Layer">
		<path id="Layer" class="shp0" d="M18.5 37C8.27 37 0 28.73 0 18.5C0 8.27 8.27 0 18.5 0C28.73 0 37 8.27 37 18.5C37 28.73 28.73 37 18.5 37Z" />
		<path id="Layer" class="shp1" d="M18.5 35.75C8.96 35.75 1.25 28.04 1.25 18.5C1.25 8.96 8.96 1.25 18.5 1.25C28.04 1.25 35.75 8.96 35.75 18.5C35.75 28.04 28.04 35.75 18.5 35.75Z" />
		<path id="Layer" fill-rule="evenodd" class="shp2" d="M32.16 13.59C32.17 14.49 32.08 15.39 31.91 16.28C31.74 17.16 31.48 18.03 31.14 18.86C30.8 19.69 30.38 20.49 29.88 21.24C29.38 21.99 28.82 22.69 28.19 23.32C26.29 25.25 23.87 26.56 21.23 27.09C18.6 27.62 15.87 27.35 13.38 26.31C10.9 25.26 8.78 23.5 7.29 21.24C5.8 18.97 5 16.31 5 13.59C5 12.88 5.95 12.56 6.89 12.56C7.83 12.56 8.78 12.88 8.78 13.59C8.78 15.16 9.39 16.67 10.49 17.78C11.59 18.89 13.07 19.51 14.62 19.51C16.17 19.51 17.66 18.89 18.76 17.78C19.86 16.67 20.47 15.16 20.47 13.59C20.47 12.82 21.14 12.13 22.35 11.65C22.66 11.54 22.99 11.44 23.31 11.36C23.64 11.27 23.97 11.2 24.3 11.15C24.64 11.09 24.97 11.05 25.31 11.03C25.64 11 25.98 11 26.32 11C26.66 11 26.99 11 27.33 11.03C27.67 11.05 28 11.09 28.33 11.15C28.67 11.2 29 11.27 29.32 11.36C29.65 11.44 29.97 11.54 30.29 11.65C31.5 12.13 32.16 12.82 32.16 13.59ZM26.32 11.95C23.32 11.95 21.41 12.92 21.41 13.59C21.41 14.26 23.32 15.23 26.32 15.23C29.32 15.23 31.23 14.26 31.23 13.59C31.23 12.92 29.32 11.95 26.32 11.95L26.32 11.95ZM6.89 13.5C6.83 13.5 6.77 13.5 6.71 13.51C6.65 13.51 6.59 13.51 6.54 13.52C6.48 13.53 6.42 13.54 6.36 13.55C6.3 13.56 6.25 13.57 6.19 13.59C6.25 13.6 6.3 13.62 6.36 13.63C6.42 13.64 6.48 13.65 6.54 13.66C6.59 13.66 6.65 13.67 6.71 13.67C6.77 13.68 6.83 13.68 6.89 13.68C6.95 13.68 7.01 13.68 7.07 13.67C7.12 13.67 7.18 13.66 7.24 13.66C7.3 13.65 7.36 13.64 7.42 13.63C7.47 13.62 7.53 13.6 7.59 13.59C7.53 13.57 7.47 13.56 7.42 13.55C7.36 13.54 7.3 13.53 7.24 13.52C7.18 13.51 7.12 13.51 7.07 13.51C7.01 13.5 6.95 13.5 6.89 13.5ZM18.58 26.41C19.86 26.41 21.13 26.21 22.35 25.82C23.57 25.43 24.73 24.86 25.78 24.12C26.83 23.38 27.77 22.48 28.55 21.46C29.34 20.44 29.97 19.3 30.42 18.09C30.09 18.18 29.75 18.27 29.41 18.34C29.07 18.41 28.73 18.47 28.39 18.51C28.04 18.56 27.7 18.6 27.35 18.62C27.01 18.64 26.66 18.65 26.31 18.65C26.12 18.65 25.93 18.65 25.74 18.64C25.54 18.63 25.35 18.62 25.16 18.61C24.97 18.6 24.78 18.58 24.58 18.56C24.39 18.54 24.2 18.52 24.01 18.49C23.88 18.48 23.76 18.42 23.67 18.32C23.59 18.21 23.55 18.08 23.57 17.95C23.59 17.81 23.66 17.7 23.77 17.62C23.88 17.55 24.02 17.52 24.14 17.55C24.32 17.58 24.5 17.6 24.68 17.62C24.87 17.64 25.05 17.66 25.23 17.67C25.41 17.69 25.59 17.7 25.77 17.7C25.95 17.71 26.13 17.71 26.32 17.71C26.69 17.72 27.07 17.71 27.45 17.68C27.83 17.65 28.21 17.61 28.58 17.54C28.95 17.48 29.32 17.4 29.69 17.31C30.06 17.22 30.42 17.11 30.78 16.98C30.82 16.82 30.86 16.67 30.9 16.51C30.93 16.36 30.96 16.2 30.99 16.05C31.03 15.89 31.05 15.73 31.08 15.57C31.1 15.42 31.12 15.26 31.14 15.1C31.07 15.14 31 15.18 30.93 15.22C30.87 15.26 30.8 15.3 30.72 15.33C30.65 15.37 30.58 15.4 30.51 15.43C30.44 15.47 30.36 15.5 30.29 15.52C29.97 15.64 29.65 15.74 29.32 15.82C28.99 15.91 28.66 15.98 28.33 16.03C28 16.08 27.66 16.12 27.33 16.15C26.99 16.17 26.65 16.18 26.32 16.18C25.98 16.18 25.64 16.17 25.3 16.15C24.97 16.12 24.63 16.08 24.3 16.03C23.97 15.98 23.64 15.91 23.31 15.82C22.98 15.74 22.66 15.64 22.34 15.52C22.25 15.49 22.15 15.45 22.06 15.41C21.97 15.37 21.88 15.32 21.79 15.27C21.7 15.22 21.61 15.17 21.52 15.12C21.44 15.06 21.35 15.01 21.27 14.95C21.24 15.08 21.21 15.21 21.18 15.33C21.15 15.46 21.11 15.59 21.07 15.72C21.03 15.84 20.98 15.97 20.94 16.09C20.89 16.22 20.84 16.34 20.78 16.46C20.86 16.51 20.94 16.55 21.03 16.6C21.11 16.64 21.19 16.69 21.28 16.73C21.36 16.77 21.45 16.81 21.54 16.85C21.62 16.89 21.71 16.92 21.8 16.96C22.01 17.04 22.23 17.12 22.47 17.19C22.6 17.21 22.71 17.29 22.78 17.41C22.85 17.52 22.86 17.66 22.83 17.79C22.79 17.92 22.7 18.03 22.58 18.08C22.46 18.14 22.32 18.14 22.2 18.09C21.94 18.02 21.69 17.93 21.46 17.84C21.36 17.8 21.27 17.76 21.17 17.72C21.07 17.68 20.98 17.63 20.89 17.59C20.79 17.54 20.7 17.49 20.61 17.44C20.51 17.4 20.42 17.34 20.33 17.29C19.58 18.48 18.49 19.4 17.21 19.94C15.92 20.48 14.51 20.6 13.15 20.3C11.79 19.99 10.56 19.27 9.62 18.23C8.68 17.19 8.08 15.88 7.9 14.48C7.82 14.51 7.74 14.53 7.65 14.55C7.57 14.56 7.49 14.58 7.4 14.59C7.32 14.6 7.23 14.61 7.15 14.62C7.06 14.62 6.97 14.62 6.89 14.62C6.81 14.62 6.73 14.62 6.66 14.62C6.58 14.61 6.5 14.6 6.42 14.6C6.35 14.59 6.27 14.57 6.19 14.56C6.12 14.54 6.04 14.53 5.97 14.51C6.08 16.11 6.49 17.67 7.18 19.12C7.86 20.57 8.81 21.87 9.97 22.97C11.13 24.06 12.48 24.93 13.95 25.51C15.43 26.1 17 26.41 18.58 26.41L18.58 26.41Z" />
	</g>
</svg>