<svg xmlns="http://www.w3.org/2000/svg" viewBox="0 0 37 37" width="37" height="37">
	<style>
		tspan { white-space:pre }
		.shp0 { fill: #16697a } 
		.shp1 { fill: none;stroke: #ffffff;stroke-linejoin:bevel;stroke-width: 0.5 } 
		.shp2 { fill: #ffffff } 
	</style>
	<g id="Layer">
		<path id="Layer" class="shp0" d="M18.5 37C8.27 37 0 28.73 0 18.5C0 8.27 8.27 0 18.5 0C28.73 0 37 8.27 37 18.5C37 28.73 28.73 37 18.5 37Z" />
		<path id="Layer" class="shp1" d="M18.5 35.75C8.96 35.75 1.25 28.04 1.25 18.5C1.25 8.96 8.96 1.25 18.5 1.25C28.04 1.25 35.75 8.96 35.75 18.5C35.75 28.04 28.04 35.75 18.5 35.75Z" />
		<path id="Layer" fill-rule="evenodd" class="shp2" d="M22.15 16.71C22.99 17.07 23.78 17.55 24.48 18.13C25.19 18.72 25.8 19.41 26.3 20.17C26.81 20.94 27.2 21.77 27.45 22.65C27.71 23.53 27.84 24.45 27.84 25.36C27.86 25.66 27.85 25.95 27.81 26.25C27.77 26.54 27.7 26.83 27.61 27.11C27.51 27.39 27.39 27.65 27.24 27.91C27.09 28.16 26.91 28.4 26.71 28.62C25.17 30.16 21.68 29.63 20.97 29.57C20.14 29.51 19.25 29.45 18.36 29.45C17.47 29.45 16.58 29.51 15.75 29.57C13.32 29.68 11.25 29.81 10 28.62C9.8 28.41 9.62 28.17 9.46 27.92C9.31 27.66 9.18 27.4 9.08 27.11C8.99 26.83 8.92 26.54 8.89 26.25C8.85 25.95 8.85 25.66 8.88 25.36C8.88 24.45 9.01 23.54 9.27 22.66C9.54 21.78 9.92 20.95 10.43 20.18C10.93 19.42 11.54 18.73 12.24 18.14C12.94 17.55 13.73 17.07 14.57 16.71C14.32 16.46 14.1 16.2 13.91 15.91C13.72 15.62 13.55 15.32 13.42 15C13.29 14.68 13.19 14.35 13.12 14.01C13.06 13.67 13.03 13.32 13.03 12.98C13.03 11.2 13.91 9.54 15.38 8.55C16.86 7.56 18.73 7.37 20.37 8.05C22.01 8.72 23.21 10.16 23.57 11.9C23.93 13.64 23.39 15.44 22.15 16.71ZM14.27 12.98C14.28 13.52 14.38 14.06 14.59 14.56C14.8 15.06 15.11 15.52 15.49 15.91C15.88 16.29 16.33 16.6 16.84 16.81C17.34 17.01 17.88 17.12 18.42 17.12C20.1 17.12 21.61 16.11 22.26 14.56C22.9 13.01 22.54 11.23 21.36 10.04C20.17 8.86 18.39 8.5 16.84 9.14C15.29 9.79 14.27 11.3 14.27 12.98ZM25.95 27.79C26.08 27.62 26.2 27.44 26.3 27.25C26.4 27.06 26.48 26.85 26.54 26.65C26.6 26.44 26.65 26.23 26.67 26.01C26.69 25.79 26.68 25.58 26.66 25.36C26.67 24.5 26.54 23.65 26.29 22.83C26.03 22.02 25.65 21.24 25.15 20.55C24.65 19.85 24.05 19.23 23.36 18.72C22.67 18.21 21.91 17.81 21.09 17.54C20.89 17.65 20.68 17.75 20.46 17.84C20.25 17.93 20.03 18 19.8 18.06C19.58 18.12 19.35 18.17 19.12 18.2C18.89 18.23 18.66 18.25 18.42 18.25C18.19 18.26 17.96 18.24 17.73 18.21C17.5 18.18 17.27 18.14 17.04 18.08C16.82 18.02 16.6 17.94 16.38 17.85C16.17 17.76 15.96 17.66 15.76 17.54C14.95 17.82 14.19 18.22 13.5 18.73C12.81 19.24 12.21 19.86 11.72 20.56C11.22 21.25 10.84 22.02 10.58 22.84C10.32 23.66 10.18 24.51 10.19 25.36C10.16 25.58 10.16 25.79 10.18 26.01C10.2 26.23 10.24 26.44 10.3 26.65C10.36 26.85 10.45 27.06 10.55 27.25C10.65 27.44 10.77 27.62 10.9 27.79C11.78 28.62 13.62 28.5 15.76 28.38C16.59 28.32 17.48 28.26 18.42 28.26C19.37 28.26 20.26 28.32 21.09 28.38C23.22 28.5 25.06 28.62 25.95 27.79L25.95 27.79Z" />
	</g>
</svg>
