<svg xmlns="http://www.w3.org/2000/svg" xmlns:xlink="http://www.w3.org/1999/xlink" width="55" height="55" viewBox="0 0 55 55"><defs><style>.a{fill:#16697a;}.b,.e{fill:none;}.b{stroke:#fff;stroke-linejoin:bevel;stroke-width:0.5px;}.c{fill:#fff;}.d{stroke:none;}.f{filter:url(#c);}.g{filter:url(#a);}</style><filter id="a" x="0" y="0" width="55" height="55" filterUnits="userSpaceOnUse"><feOffset dy="5" input="SourceAlpha"/><feGaussianBlur stdDeviation="3" result="b"/><feFlood flood-opacity="0.161"/><feComposite operator="in" in2="b"/><feComposite in="SourceGraphic"/></filter><filter id="c" x="1" y="1" width="53" height="53" filterUnits="userSpaceOnUse"><feOffset dy="5" input="SourceAlpha"/><feGaussianBlur stdDeviation="3" result="d"/><feFlood flood-opacity="0.161"/><feComposite operator="in" in2="d"/><feComposite in="SourceGraphic"/></filter></defs><g transform="translate(-59 -253)">

<g transform="translate(68 257)">
<g transform="translate(0 0)">
<g class="g" transform="matrix(1, 0, 0, 1, -9, -4)">
<circle class="a" cx="18.5" cy="18.5" r="18.5" transform="translate(9 4)"/></g>
    <g transform="translate(1.48 1.48)">
    <g class="f" transform="matrix(1, 0, 0, 1, -10.48, -5.48)">
    <g class="b" transform="translate(10 5)">
<circle class="d" cx="17.5" cy="17.5" r="17.5"/>
<circle class="e" cx="17.5" cy="17.5" r="17.25"/>
</g>
</g>
</g>
</g><g transform="translate(8.88 7.647)"><g transform="translate(0 0)"><path class="c" d="M13.793,209.162a5.325,5.325,0,1,0-9.12-3.733,5.235,5.235,0,0,0,1.538,3.733,9.411,9.411,0,0,0-5.686,8.653,4.119,4.119,0,0,0,1.123,3.259c1.247,1.188,3.317,1.064,5.745.948.831-.058,1.72-.117,2.61-.117s1.779.058,2.61.117c.714.058,4.206.59,5.745-.948a4.41,4.41,0,0,0,1.123-3.259A9.32,9.32,0,0,0,13.793,209.162ZM5.92,205.429a4.148,4.148,0,1,1,4.148,4.148A4.16,4.16,0,0,1,5.92,205.429Zm11.672,14.814c-.889.831-2.727.714-4.855.59-.831-.058-1.72-.117-2.668-.117s-1.837.058-2.668.117c-2.136.117-3.973.241-4.855-.59a3.307,3.307,0,0,1-.714-2.428,8.249,8.249,0,0,1,5.57-7.822,5.15,5.15,0,0,0,2.668.714,5.776,5.776,0,0,0,2.668-.714,8.166,8.166,0,0,1,5.57,7.822A3.339,3.339,0,0,1,17.591,220.243Z" transform="translate(-0.525 -200.1)"/></g></g></g></g></svg>