<svg xmlns="http://www.w3.org/2000/svg" width="79" height="47.5" viewBox="0 0 79 47.5"><defs><style>.a{fill:#ffa62b;}.b{fill:#fff;stroke:#fff;stroke-width:0.5px;}</style></defs><g transform="translate(-134 -170.5)"><path class="a" d="M18,3A10.492,10.492,0,0,0,7.5,13.5C7.5,21.375,18,33,18,33S28.5,21.375,28.5,13.5A10.492,10.492,0,0,0,18,3Zm0,14.25a3.75,3.75,0,1,1,3.75-3.75A3.751,3.751,0,0,1,18,17.25Z" transform="translate(155.5 167.5)"/><path class="a" d="M7.5,0h64a7.5,7.5,0,0,1,0,15H7.5a7.5,7.5,0,0,1,0-15Z" transform="translate(134 203)"/><g transform="translate(-25.085 -19.396)"><path class="b" d="M167.738,227.8l-.156-1.4h.648l.168,1.4v7.6h-.66Z"/><path class="b" d="M174.614,233l-2.891-4.3-1.357,4.3h-.636l1.309-4.128.311-.756-1.092-1.716h.684l1.092,1.716,1.212,1.8.264-.96.8-2.556h.649l-1.332,4.092,1.7,2.508Z"/><path class="b" d="M176.391,232.448h1.475q2.148,0,2.148-2.4v-.708q0-2.4-2.148-2.4h-1.475v-.54h1.571a2.623,2.623,0,0,1,2,.75,3.117,3.117,0,0,1,.708,2.214v.672a3.117,3.117,0,0,1-.708,2.214,2.623,2.623,0,0,1-2,.75h-1.571Z"/><path class="b" d="M187.154,232.232a2.371,2.371,0,0,1-1.992.9,4.535,4.535,0,0,1-.948-.108l.072-.54a3.555,3.555,0,0,0,.84.1q2.088,0,2.088-2.964,0-2.724-1.848-2.724a1.539,1.539,0,0,0-1.11.4,2.236,2.236,0,0,0-.594,1.044L182.786,233h-.66l.912-4.68-.924-1.92h.672l.659,1.464a2.111,2.111,0,0,1,.776-1.134,2.034,2.034,0,0,1,1.205-.378,2.229,2.229,0,0,1,1.758.756,3.8,3.8,0,0,1,.666,2.52A4.2,4.2,0,0,1,187.154,232.232Z"/><path class="b" d="M196.214,233l-2.892-4.3-1.356,4.3h-.636l1.309-4.128.31-.756-1.092-1.716h.685l1.092,1.716,1.212,1.8.263-.96.805-2.556h.648l-1.332,4.092,1.7,2.508Z"/><path class="b" d="M202.861,233h-4.967v-.552h3.948l-3.66-6.048h.683l1.824,3.012L202,226.4h.672l-1.62,3.612Z"/><path class="b" d="M204.41,227.8l-.156-1.4h.647l.168,1.4V233h-.659Z"/><path class="b" d="M206.966,227.8l-.156-1.4h.647l.168,1.4v1.764l-.012.756-.647.156Z"/><path class="b" d="M215.834,228.608a1.79,1.79,0,0,0-.379-1.278,1.424,1.424,0,0,0-1.073-.39h-2.7v-.54h2.808q2,0,2,2.22V233h-.66Zm-4.152,1.164.095-.8h.565V233h-.66Z"/><path class="b" d="M217.658,232.664a1.376,1.376,0,0,0,1.014-.432,1.67,1.67,0,0,0,.281-1.08V226.4h2.713q1.992,0,1.992,2.22V233h-.648v-4.392a1.776,1.776,0,0,0-.385-1.278,1.446,1.446,0,0,0-1.08-.39H219.6v4.152a2.175,2.175,0,0,1-.444,1.476,2.062,2.062,0,0,1-1.429.588Z"/><path class="b" d="M229.825,233l-2.891-4.3-1.357,4.3h-.636l1.309-4.128.311-.756-1.092-1.716h.684l1.092,1.716,1.212,1.8.264-.96.8-2.556h.649l-1.332,4.092,1.7,2.508Z"/></g></g></svg>