<svg xmlns="http://www.w3.org/2000/svg" width="33.278" height="31.97" viewBox="0 0 33.278 31.97"><defs><style>.a{fill:#a5a4bf;stroke:#a5a4bf;stroke-linecap:round;stroke-width:0.5px;}</style></defs><g transform="translate(0.25 0.25)"><g transform="translate(0 0)"><path class="a" d="M27.99,10.215A4.793,4.793,0,0,0,23.2,15c0,1.072.672,2.687,2.056,4.937.487.792.971,1.512,1.335,2.038H12.14a5.137,5.137,0,1,0,0,10.275h6.578a2.689,2.689,0,0,1,0,5.377H6.242a3.182,3.182,0,1,0-.056,1.921H18.718a4.609,4.609,0,0,0,0-9.218H12.14a3.217,3.217,0,1,1,0-6.434H27.99l.771-1.042c.04-.054.993-1.344,1.96-2.917,1.383-2.25,2.056-3.866,2.056-4.937A4.793,4.793,0,0,0,27.99,10.215ZM3.182,39.765A1.262,1.262,0,1,1,4.444,38.5,1.263,1.263,0,0,1,3.182,39.765ZM27.99,20.628c-1.374-2.01-2.867-4.588-2.867-5.625a2.867,2.867,0,1,1,5.735,0C30.857,16.04,29.363,18.618,27.99,20.628Z" transform="translate(0 -10.215)"/></g><g transform="translate(27.019 3.542)"><path class="a" d="M423.011,65.545a.971.971,0,1,0,.971.971A.971.971,0,0,0,423.011,65.545Z" transform="translate(-422.04 -65.545)"/></g></g></svg>