<svg xmlns="http://www.w3.org/2000/svg" width="17.883" height="10.826" viewBox="0 0 17.883 10.826">
    <defs>
        <style>.a{fill:#fff;stroke:#fff;stroke-width:0.5px;}</style>
    </defs>
    <g transform="translate(0.25 0.25)">
        <path class="a" d="M16.185,95.013a7.269,7.269,0,0,0-2.542-.411,7.269,7.269,0,0,0-2.542.411c-.773.3-1.2.734-1.2,1.222a3.742,3.742,0,1,1-7.484,0c0-.45-.607-.651-1.209-.651S0,95.786,0,96.236a8.692,8.692,0,0,0,14.838,6.146,8.635,8.635,0,0,0,2.546-6.146C17.383,95.747,16.958,95.313,16.185,95.013Zm-2.542.186c1.919,0,3.144.614,3.144,1.037s-1.225,1.037-3.144,1.037S10.5,96.659,10.5,96.236,11.723,95.2,13.642,95.2Zm-12.434.982a1.689,1.689,0,0,1,.448.055,1.69,1.69,0,0,1-.448.055,1.69,1.69,0,0,1-.448-.055A1.689,1.689,0,0,1,1.209,96.181Zm7.483,8.149A8.105,8.105,0,0,1,.618,96.816a2.336,2.336,0,0,0,.591.072,2.271,2.271,0,0,0,.648-.088,4.338,4.338,0,0,0,7.956,1.773,4.884,4.884,0,0,0,.72.346c.149.058.309.112.473.161a.3.3,0,1,0,.171-.572c-.149-.045-.293-.094-.428-.146a4.277,4.277,0,0,1-.649-.314,4.3,4.3,0,0,0,.312-.956,2.919,2.919,0,0,0,.687.366,7.27,7.27,0,0,0,2.542.411,7.269,7.269,0,0,0,2.542-.411,3.184,3.184,0,0,0,.546-.269,8.04,8.04,0,0,1-.231,1.187,8.3,8.3,0,0,1-2.857.463,9.687,9.687,0,0,1-1.389-.1.3.3,0,1,0-.086.591,10.284,10.284,0,0,0,1.474.1,9.41,9.41,0,0,0,2.627-.354A8.108,8.108,0,0,1,8.692,104.331Z" transform="translate(0 -94.602)" />
    </g>
</svg>