<svg xmlns="http://www.w3.org/2000/svg" width="79" height="47.5" viewBox="0 0 79 47.5"><defs><style>.a{fill:#ffa62b;}.b{fill:#fff;stroke:#fff;stroke-width:0.5px;}</style></defs><g transform="translate(-134 -170.5)"><path class="a" d="M18,3A10.492,10.492,0,0,0,7.5,13.5C7.5,21.375,18,33,18,33S28.5,21.375,28.5,13.5A10.492,10.492,0,0,0,18,3Zm0,14.25a3.75,3.75,0,1,1,3.75-3.75A3.751,3.751,0,0,1,18,17.25Z" transform="translate(155.5 167.5)"/><path class="a" d="M7.5,0h64a7.5,7.5,0,0,1,0,15H7.5a7.5,7.5,0,0,1,0-15Z" transform="translate(134 203)"/><g transform="translate(-26.085 -61.396)"><path class="b" d="M161.391,269.8l-.157-1.4h.648l.168,1.4v7.6h-.659Z" transform="translate(7)"/><path class="b" d="M168.266,275l-2.892-4.3-1.356,4.3h-.635l1.307-4.128.312-.756L163.91,268.4h.684l1.092,1.716,1.212,1.8.264-.96.8-2.556h.647l-1.332,4.092,1.7,2.508Z" transform="translate(7)"/><path class="b" d="M170.042,274.448h1.476q2.146,0,2.148-2.4v-.708q0-2.4-2.148-2.4h-1.476v-.54h1.571a2.618,2.618,0,0,1,2,.75,3.108,3.108,0,0,1,.709,2.214v.672a3.108,3.108,0,0,1-.709,2.214,2.618,2.618,0,0,1-2,.75h-1.571Z" transform="translate(7)"/><path class="b" d="M189.865,275l-2.891-4.3-1.357,4.3h-.635l1.308-4.128.312-.756L185.51,268.4h.683l1.092,1.716,1.213,1.8.264-.96.8-2.556h.648l-1.332,4.092,1.7,2.508Z"/><path class="b" d="M196.514,275h-4.969v-.552h3.949l-3.66-6.048h.684l1.824,3.012,1.307-3.012h.672l-1.62,3.612Z"/><path class="b" d="M202.825,274.232a2.368,2.368,0,0,1-1.991.9,4.535,4.535,0,0,1-.949-.108l.072-.54a3.562,3.562,0,0,0,.84.1q2.088,0,2.088-2.964,0-2.724-1.848-2.724a1.535,1.535,0,0,0-1.109.4,2.22,2.22,0,0,0-.594,1.044L198.457,275h-.66l.912-4.68-.924-1.92h.672l.66,1.464a2.114,2.114,0,0,1,.775-1.134,2.033,2.033,0,0,1,1.206-.378,2.227,2.227,0,0,1,1.757.756,3.8,3.8,0,0,1,.666,2.52A4.19,4.19,0,0,1,202.825,274.232Z"/><path class="b" d="M204.793,274.448h2.2v-4.176a1.444,1.444,0,0,0-.258-.936,1.214,1.214,0,0,0-.774-.4l-.791-.132.107-.54.876.144a1.665,1.665,0,0,1,1.488,1.848V275h-2.844Z"/><path class="b" d="M215.834,270.608a1.794,1.794,0,0,0-.379-1.278,1.425,1.425,0,0,0-1.074-.39h-2.7v-.54h2.807q2,0,2,2.22V275h-.659Zm-4.152,1.164.095-.8h.565V275h-.66Z"/><path class="b" d="M217.657,274.664a1.376,1.376,0,0,0,1.014-.432,1.664,1.664,0,0,0,.282-1.08V268.4h2.712q1.992,0,1.992,2.22V275h-.647v-4.392a1.776,1.776,0,0,0-.385-1.278,1.447,1.447,0,0,0-1.08-.39H219.6v4.152a2.17,2.17,0,0,1-.445,1.476,2.059,2.059,0,0,1-1.428.588Z"/><path class="b" d="M229.824,275l-2.891-4.3-1.357,4.3h-.635l1.308-4.128.312-.756-1.092-1.716h.683l1.092,1.716,1.213,1.8.264-.96.8-2.556h.648l-1.332,4.092,1.7,2.508Z"/></g></g></svg>